<svg xmlns="http://www.w3.org/2000/svg" fill="none" viewBox="0 0 693 368">
  <defs/>
  <path fill="#fff" d="M138.5 23.5l-25.5 2L49.5002 76l-16.5 112.5s-1.7504 8.5 8.5 27.5c10.2505 19 55 44 87.9998 47 33 3 210 3 210 3V76.5l-86-3h-76l-3-24-5.5-20s-3.235-25.68385-8.5-27.00003C152.5.499976 138.5 23.5 138.5 23.5z"/>
  <path fill="#F4AB37" d="M93.5002 68.5512c19.4998-14 20.9998-42 20.4998-43.5-.5-1.5001-49.4999 1-49.4999 1s-5.0002-7.5-9.4999-10c-4.4998-2.5001-3.2086-11.81-17.9998-13.50005C22.2093.861109 29.5002 180.551 32.5003 188.551c3.0001 8 24.4997-29 26.4998-49.5 2.0001-20.5-21.0001-35.5-5.5-50.9998 15.5001-15.5 20.5-5.5 40.0001-19.5zM187 135c-2.5-29.5 50-59 50-59-7 4.3072 116.512-3.5 135.512 0 0 0-77.5 24-38.5 42s74.5 2 67.5 26-45.791 28.621-67.5 33.5c-21.709 4.879-60.139 3.955-89.012 0-25.883-3.546-55.5-13-58-42.5z"/>
  <path stroke="#4A4A4A" stroke-width="4" d="M66.5 26.5512c4.7846 1.1861 33.4832-2.0631 71-2 0 0 4.856-7.2685 8.5-11.5 4.596-5.33653 10.068-11.68641 13.5-11 7.5 1.5 4 10 11 30.5s4 40.5 7 40.5 154.629-.1675 255 5.5l-56 187.4998s-209-1-231-1.5-99.9999-17-110-63.5c-10-46.5-9-93-7.4997-108.9998 1.5003-16 1.9257-81.9621 6.9997-88.50001C40.0739-2.98667 61.7155 25.365 66.5 26.5512z"/>
  <path stroke="#4A4A4A" stroke-linecap="round" stroke-width="4" d="M4 50.0512l25.5 3M2 67.5512h26M6.5 85.5512l22-5M174 44.0512l23-4.5M176 52.5512h22M176.5 61.5512l19.5 4.5"/>
  <path fill="#4A4A4A" d="M135.164 50.4418c-.613-.919-1.854-1.1674-2.773-.5547s-1.168 1.8545-.555 2.7735l3.328-2.2188zm12.336 6.1094l-.535-1.927.535 1.927zm8.274-10.4236c-.51-.9797-1.718-1.3605-2.698-.8503-.979.5101-1.36 1.7178-.85 2.6975l3.548-1.8472zM133.5 51.5512c-1.664 1.1094-1.664 1.1102-1.663 1.1111 0 .0003.001.0012.001.0019.001.0013.002.0027.003.0042.002.0031.005.0066.007.0106.006.0079.012.0177.02.0292.016.023.037.053.063.0894.052.0729.125.1717.217.2919.185.2402.453.5678.8.9468.693.7545 1.722 1.7313 3.078 2.6232 2.743 1.8047 6.834 3.2564 12.009 1.8187l-1.07-3.854c-3.825 1.0623-6.734.014-8.741-1.3063-1.019-.6705-1.802-1.4125-2.329-1.9861-.261-.2852-.455-.5239-.578-.6841-.062-.08-.106-.1399-.131-.1757-.013-.0179-.021-.0297-.025-.0349-.002-.0026-.002-.0036-.002-.0028 0 .0004.001.0012.002.0024 0 .0007.001.0014.001.0022 0 .0005.001.0012.001.0014.001.0007.001.0015-1.663 1.1109zm14.535 6.927c5.509-1.5301 7.879-4.3675 8.432-7.355.255-1.3796.081-2.6111-.138-3.4727-.112-.4359-.239-.7941-.343-1.0518-.052-.1294-.099-.235-.135-.3141-.019-.0396-.035-.0727-.048-.0989-.006-.0132-.012-.0246-.017-.0343-.002-.0048-.005-.0092-.007-.0132-.001-.002-.002-.0039-.002-.0056-.001-.0009-.002-.0022-.002-.0026 0-.0012-.001-.0024-1.775.9212s-1.775.9225-1.775.9214c0-.0004-.001-.0014-.001-.0021-.001-.0014-.002-.0026-.002-.0038-.001-.0024-.002-.0043-.003-.0059-.002-.0032-.003-.005-.003-.0053 0-.0006.002.0044.007.0147.01.0207.028.0622.053.1221.048.1207.116.3094.177.5471.124.4857.2 1.1083.08 1.7564-.197 1.0682-1.077 2.9807-5.568 4.2284l1.07 3.854zM71.1339 52.3978c-.637-.9024-1.8849-1.1175-2.7873-.4805-.9024.637-1.1175 1.8849-.4805 2.7873l3.2678-2.3068zM85 61.5512l-.1051-1.9972L85 61.5512zm11.4959-9.1275c-.0704-1.1024-1.0211-1.9389-2.1234-1.8684-1.1024.0704-1.9389 1.0211-1.8684 2.1235l3.9918-.2551zM69.5 53.5512c-1.6339 1.1534-1.6335 1.154-1.633 1.1547.0002.0003.0007.001.0011.0015.0008.0011.0016.0023.0026.0037.0019.0027.0042.0059.0068.0096.0054.0074.0122.0169.0205.0284.0166.0229.0391.0537.0676.0919.0568.0763.1372.1822.2407.3133.2067.262.5062.6258.8938 1.056.773.8579 1.9085 1.9936 3.3698 3.115 2.9073 2.2312 7.2424 4.507 12.6352 4.2231l-.2102-3.9944c-4.1072.2161-7.5221-1.5081-9.9898-3.4019-1.2262-.9411-2.1845-1.8992-2.8333-2.6193-.3233-.3589-.5668-.6553-.7253-.8562-.0792-.1004-.137-.1766-.1726-.2245-.0179-.024-.0302-.0408-.0369-.05-.0033-.0046-.0052-.0073-.0058-.0081-.0002-.0003-.0001-.0002.0003.0004.0002.0003.0006.0008.001.0014.0002.0002.0005.0008.0006.0009.0004.0006.0008.0011-1.6331 1.1545zm15.6051 9.9972c5.7109-.3005 8.7355-2.9461 10.1901-5.7828.6916-1.3489.9881-2.6592 1.1152-3.6202.0641-.4844.0867-.8919.0928-1.1878.0031-.1483.002-.2697-.0002-.3598-.0011-.0451-.0024-.0825-.0038-.1117-.0006-.0146-.0012-.0271-.0018-.0375-.0003-.0052-.0006-.0099-.0008-.0141-.0001-.0021-.0002-.004-.0004-.0058 0-.0009-.0001-.0022-.0001-.0026-.0001-.0012-.0002-.0024-1.9961.1251-1.9959.1276-1.996.1264-1.9961.1253 0-.0003-.0001-.0013-.0001-.002-.0001-.0013-.0001-.0025-.0002-.0035-.0001-.0021-.0002-.0037-.0003-.0049-.0001-.0023-.0001-.0026-.0001-.0012.0002.0029.0006.0132.001.0302.0009.0343.0016.0954-.0001.1798-.0035.1695-.0171.4279-.0591.746-.0852.6439-.281 1.4845-.7092 2.3196-.7851 1.5311-2.5105 3.3856-6.8409 3.6135l.2102 3.9944z"/>
  <path stroke="#4A4A4A" stroke-width="4" d="M123.148 63.0512h-6.03c-.528 0-.695.7113-.224.9472l3.512 1.7559c.36.1799.793.1266 1.098-.1352l1.97-1.6883c.352-.3021.139-.8796-.326-.8796z"/>
  <rect width="370" height="257" x="206.5" y="9" fill="#E6E6E6" stroke="#4A4A4A" stroke-width="4" rx="6"/>
  <path fill="#E6E6E6" stroke="#4A4A4A" stroke-width="4" d="M207.715 266h367.544c.404 0 .799.122 1.132.351l108.835 74.737c.135.093.181.18.202.247.025.082.03.194-.007.313-.038.12-.104.209-.172.262-.055.043-.142.09-.306.09H100.165c-1.9765 0-2.755-2.562-1.1123-3.662l107.5503-72c.329-.22.716-.338 1.112-.338z"/>
  <path fill="#D2D3D5" stroke="#4A4A4A" stroke-width="4" d="M98.5 342h587v6c0 9.941-8.059 18-18 18h-551c-9.941 0-18-8.059-18-18v-6z"/>
  <path fill="#E6E6E6" stroke="#4A4A4A" stroke-width="4" d="M348.632 342h84.736c-.978 7.339-7.262 13-14.868 13h-55c-7.606 0-13.89-5.661-14.868-13zM346.737 308h89.092c2.165 0 4.161 1.166 5.225 3.05l8.468 15c2.258 4-.632 8.95-5.225 8.95H338.511c-4.56 0-7.454-4.886-5.261-8.885l8.226-15c1.053-1.921 3.07-3.115 5.261-3.115zM177.835 298l32.796-23h364.217l31.518 23H177.835z"/>
  <circle cx="391.5" cy="20" r="5" fill="#D2D3D5" stroke="#4A4A4A" stroke-width="4"/>
  <rect width="326" height="213" x="228.5" y="31" fill="#fff" stroke="#4A4A4A" stroke-width="4" rx="6"/>
  <path fill="#fff" d="M649.217 259.5c-6.641-34.018-71.5-55.5-71.5-55.5v40.5s23.84 2.263 28 15c8.245 25.246-91.783 32.63-78.5 59 9.069 18.005 57.5 4.5 73.5 0s55.444-23.43 48.5-59z"/>
  <path fill="#F4AB37" d="M611 242c7.5-5-6.109-17.452-4-22 2.109-4.548 35.5 18.5 36.5 33s-8 24.5-14 10-26-16-18.5-21z"/>
  <path stroke="#4A4A4A" stroke-width="4" d="M647.5 259.5C640.859 225.482 576 204 576 204v40.5s23.84 2.263 28 15c8.245 25.246-91.782 32.63-78.5 59 9.069 18.005 57.5 4.5 73.5 0s55.444-23.43 48.5-59z"/>
  <rect width="61" height="6" x="335" y="69" stroke="#2D3A45" stroke-linecap="round" stroke-width="6" rx="3"/>
  <rect width="131" height="4" x="334" y="96" stroke="#D7E2EA" stroke-linecap="round" stroke-width="4" rx="2"/>
  <rect width="28" height="6" x="473" y="69" stroke="#ED8000" stroke-linecap="round" stroke-width="6" rx="3"/>
  <rect width="145" height="4" x="334" y="114" stroke="#D7E2EA" stroke-linecap="round" stroke-width="4" rx="2"/>
  <rect width="131" height="4" x="334" y="150" stroke="#D7E2EA" stroke-linecap="round" stroke-width="4" rx="2"/>
  <rect width="141" height="4" x="334" y="132" stroke="#D7E2EA" stroke-linecap="round" stroke-width="4" rx="2"/>
  <rect width="124" height="4" x="334" y="168" stroke="#D7E2EA" stroke-linecap="round" stroke-width="4" rx="2"/>
  <rect width="64" height="24" x="252" y="66" fill="#2D3A45" rx="2"/>
  <rect width="64" height="24" x="252" y="156" fill="#D7E2EA" rx="2"/>
  <rect width="64" height="24" x="252" y="96" fill="#D7E2EA" rx="2"/>
  <rect width="64" height="24" x="252" y="186" fill="#D7E2EA" rx="2"/>
  <rect width="64" height="24" x="252" y="126" fill="#D7E2EA" rx="2"/>
</svg>
