<svg class="chat-heart" viewBox="0 0 24 24" xmlns="http://www.w3.org/2000/svg" xmlns:xlink="http://www.w3.org/1999/xlink">
  <path d="M4.998,20 L4.998,16 L2.998,16 C1.894,16 0.998,15.103 0.998,14 L0.998,2 C0.998,0.896 1.894,0 2.998,0 L18.998,0 C20.102,0 20.998,0.896 20.998,2 L20.998,14 C20.998,15.103 20.102,16 18.998,16 L10.332,16 L4.998,20 Z M2.998,2 L2.998,14 L6.998,14 L6.998,16 L9.664,14 L18.998,14 L18.998,2 L2.998,2 Z"></path>
  <path d="M10.998,12 C10.998,12 15.577,8.67 15.577,6.203 C15.577,3.859 12.015,2.843 10.998,5.919 C9.98,2.843 6.419,3.859 6.419,6.203 C6.419,8.67 10.998,12 10.998,12 Z"></path>
</svg>
