<svg xmlns="http://www.w3.org/2000/svg" xmlns:xlink="http://www.w3.org/1999/xlink" width="98" height="125"><defs><path id="a" d="M.152.163h84.487v103.858H.152z"/></defs><g fill="none" fill-rule="evenodd"><path fill="#FEFEFE" d="M48.175 22.727H7.09l10.542 96.633c3.547 3.554 21.245 4.766 30.542 4.766 9.296 0 26.995-1.212 30.541-4.766L89.26 22.727H48.175z"/><g transform="translate(7.09 20.979)"><mask id="b" fill="#fff"><use xlink:href="#a"/></mask><path fill="#4B6070" d="M13.083 97.486c3.64 2.843 19.437 4.17 29.313 4.17 9.876 0 25.672-1.327 29.312-4.17L82.021 2.528H2.77l10.312 94.958zm29.313 6.535c-4.347 0-11.23-.278-17.508-1.06-7.466-.93-11.965-2.257-13.753-4.057l-.292-.294L.152.163h84.487L73.948 98.61l-.292.294c-1.788 1.8-6.286 3.127-13.753 4.057-6.278.782-13.16 1.06-17.507 1.06z" mask="url(#b)"/></g><path fill="#4B6070" d="M97.37 21.716c-.705-.595-1.008-2-1.081-2.595.275-1.908-.038-3.487-.93-4.693a4.945 4.945 0 0 0-2.383-1.727c-.537-1.48-1.026-6.105-.925-7.7.117-1.853-1.235-2.852-2.015-3.145C86.154.189 57.858.014 49.241 0h-.19c-.064 0-.13 0-.196.003V0C40.242.013 11.948.186 8.062 1.856c-.78.293-2.131 1.292-2.014 3.145.1 1.595-.388 6.22-.925 7.7-.64.217-1.624.7-2.384 1.727-.891 1.206-1.204 2.784-.93 4.692-.073.598-.376 2.002-1.081 2.596-.535.45-.747 1.093-.568 1.72.272.944 1.333 2.03 7.15 2.923 7.887 1.212 21.933 1.744 41.73 1.585 2.355.019 4.594.028 6.725.028 40.461 0 41.707-3.29 42.13-4.408.249-.658.048-1.366-.524-1.848"/><path fill="#A87B4F" d="M9.713 43.706s11.206 1.87 39.773 1.87c28.566 0 39.773-1.87 39.773-1.87l-5.377 51.268s-9.133 3.802-34.396 3.802-34.59-3.869-34.59-3.869l-5.183-51.2z"/><path fill="#27363F" d="M55.168 70.804s-8.784 19.668-17.483 0h17.483zm-1.815-9.257c1.209.149 2.169 1.04 2.541 2.2.06-.202.104-.414.128-.635.192-1.808-1.013-3.442-2.692-3.65-1.678-.207-3.195 1.091-3.387 2.9-.054.506.005.998.15 1.45.437-1.467 1.786-2.447 3.26-2.265"/><path fill="#E3E7EB" d="M81.435 17.483c-.458 0-.854-.324-.91-.765-.062-.477.297-.91.8-.969 3.455-.398 4.977-.844 4.992-.849.484-.144.999.11 1.151.57.152.457-.117.946-.6 1.09-.068.02-1.7.499-5.322.916a1.006 1.006 0 0 1-.111.007m-5.033.607c-.465 0-.855-.47-.883-1.081-.03-.636.341-1.183.83-1.222l.601-.05c.481-.042.91.437.943 1.072.033.636-.336 1.185-.823 1.228a79.892 79.892 0 0 1-.668.054m-7.147.266c-.319 0-.641-.002-.97-.005-.489-.004-.882-.523-.88-1.16.004-.634.4-1.145.886-1.145h.006a104.703 104.703 0 0 0 4.03-.042c.488-.005.895.49.907 1.125.011.637-.376 1.165-.864 1.18-1.007.03-2.055.047-3.115.047"/><path fill="#E3E7EB" d="M68.247 18.357h-.01a191.754 191.754 0 0 1-5.207-.124c-.5-.019-.89-.397-.868-.846.02-.448.445-.797.943-.778 1.762.065 3.496.106 5.152.122.5.005.902.373.897.822-.005.446-.41.804-.907.804"/><path fill="#27363F" d="M35.937 62.5a3.06 3.06 0 1 1 6.119 0 3.06 3.06 0 0 1-6.119 0"/><path fill="#9A434A" d="M46.107 75.12s2.996-3.345 5.66-.633l.778 1.006s-2.687 4.927-6.271 4.927c-2.955 0-5.092-4.023-5.092-4.023s.431-5.164 4.925-1.277"/></g></svg>
