<svg class="computer-location" viewBox="0 0 24 24" xmlns="http://www.w3.org/2000/svg" xmlns:xlink="http://www.w3.org/1999/xlink">
  <path d="M13.3558333,18.1818182 C13.7866667,18.1818182 14.1588333,17.8845455 14.2514167,17.4681818 C14.344,17.0518182 14.1313333,16.6254545 13.7399167,16.4472727 C12.3484167,15.8109091 10.8001667,15.4545455 9.16666667,15.4545455 C7.53316667,15.4545455 5.98491667,15.8109091 4.59341667,16.4472727 C4.202,16.6254545 3.98933333,17.0509091 4.081,17.4672727 C4.17358333,17.8845455 4.54666667,18.1818182 4.9775,18.1818182 L13.3558333,18.1818182 Z"></path>
  <path d="M16.5,1.81818182 L14.6666667,1.81818182 L14.6666667,3.63636364 L16.5,3.63636364 L16.5,12.7272727 L1.83333333,12.7272727 L1.83333333,3.63636364 L3.66666667,3.63636364 L3.66666667,1.81818182 L1.83333333,1.81818182 C0.821333333,1.81818182 0,2.63272727 0,3.63636364 L0,12.7272727 C0,13.7309091 0.821333333,14.5454545 1.83333333,14.5454545 L16.5,14.5454545 C17.512,14.5454545 18.3333333,13.7309091 18.3333333,12.7272727 L18.3333333,3.63636364 C18.3333333,2.63272727 17.512,1.81818182 16.5,1.81818182 Z"></path>
  <path d="M9.16666667,0 C7.14175,0 5.5,1.62818182 5.5,3.63636364 C5.5,5.64454545 9.16666667,10 9.16666667,10 C9.16666667,10 12.8333333,5.64454545 12.8333333,3.63636364 C12.8333333,1.62818182 11.1915833,0 9.16666667,0 Z M9.16666667,5.45454545 C8.15466667,5.45454545 7.33333333,4.64 7.33333333,3.63636364 C7.33333333,2.63272727 8.15466667,1.81818182 9.16666667,1.81818182 C10.1786667,1.81818182 11,2.63272727 11,3.63636364 C11,4.64 10.1786667,5.45454545 9.16666667,5.45454545 Z"></path>
</svg>
