<svg xmlns="http://www.w3.org/2000/svg" width="100" height="96"><g fill="none"><path fill="#C3692C" d="M66.419 6.433l3.137.066 4.595 3.07 3.999 2.673.662-.994 3.8 4.263h2.607l5.59 5.456 4.86 8.725 4.065 18.576s1.59 7.996-3.005 16.19c-4.595 8.195-5.722 12.922-13.321 19.968-7.6 7.046-10.251 11.044-13.587 9.984C66.485 93.35 53.163 96 53.163 96s-13.189-1.877-14.448-1.259l-1.26.596s-7.93-.662-10.78-3.733c-2.873-3.07-11.18-9.188-13.322-11.198-2.121-1.988-11.245-17.317-11.245-17.317l.464-4.595S-.433 46.103.053 44.115c.464-1.988 3.8-12.193 5.258-14.38 1.458-2.186 5.722-11.176 6.805-12.788 1.06-1.59 13.586-12.59 13.586-12.59s6.805-1.525 7.666-1.525c.862 0 7.335-2.319 9.522-2.584C45.1-.017 54.953-.083 55.682.116c.685.198 10.737 6.317 10.737 6.317z"/><path fill="#E99F54" d="M69.082 7.899l5.359 3.589 3.382.528s12.826 11.735 14.605 17.24c1.779 5.504 8.455 13.122 4.15 26.904-4.304 13.783-8.477 19.618-8.477 19.618l-4.173 8.41s-4.897 6.495-8.982 7.486c-4.107.99-4.963 2.708-14.473 3.236-9.51.529-15.505-1.453-15.505-1.453s-8.697-2.664-11.333-2.994c-2.635-.33-8.982-3.72-9.707-4.778-.724-1.057-4.634-2.928-4.634-2.928L8.664 72.035s-4.436-7.552-4.436-10.15C4.228 59.309 1 50.81 1 50.81s.593-9.93 3.316-14.443c2.724-4.513 6.413-16.953 7.6-17.9 1.185-.925 7.796-8.278 7.796-8.278s8.718-4.514 9.729-4.712c.988-.198 9.992-.793 11.376-1.585 1.384-.793 5.161-2.576 5.886-2.378.725.198 6.94-1.387 10.19.198A7361.737 7361.737 0 0 1 69.083 7.9z"/><path fill="#F1B862" d="M48.124 2.087L63.57 7.454l9.855 5.104s10.121 6.445 12.53 13.199c2.409 6.753 8.663 17.246 6.652 22.812-2.011 5.566-6.077 20.7-8 23.142-1.922 2.464-6.806 8.426-6.806 8.426l-2.74 3.651S63.129 94.26 57.14 92.874c-5.989-1.386-12.066-3.124-13.325-4.246-1.26-1.122-13.834-6.886-13.834-6.886S13.385 72.46 12.79 70.325c-.597-2.133-6.983-9.81-6.784-10.559.198-.726.994-3.652 1.325-6.291.332-2.662-1.524-11.945-.663-13.661.862-1.716 4.906-14.651 7.293-17.335 2.387-2.684 7.005-10.537 7.005-10.537s13.9-9.46 23.358-5.478c0 0 1.503-5.191 3.8-4.377z"/><path fill="#FAC86F" d="M41.332 12.053s13.111-.73 19.392 3.21c6.282 3.94 13.507 3.874 17.284 9.872 3.778 5.999 11.662 5.8 8.082 12.95-3.58 7.149.286 21.404-8.06 22.732-8.345 1.328-9.773-1.505-12.013-.708-2.24.797-7.577 3.52-7.577 3.52s-6.193 4.36-8.455 6.883c-2.262 2.546-7.225 4.405-9.729 3.01-2.525-1.394-15.439-2.28-17.284-3.807-1.844-1.527-6.61-5.622-8.28-9.628-1.646-4.007-5.753-14.278-4.436-17.155 1.318-2.878 4.634-13.082 6.699-14.875 2.042-1.793 8.675-4.006 9.334-5.002.658-.996 3.448-7.814 5.029-8.478 1.603-.664 8.104-2.48 10.014-2.524z"/><path fill="#71412F" d="M79.055 30.87s-.537-2.074 1.253-1.854c1.79.221 3.2.75 3.915 1.413.716.662 3.043 3.289 2.752 3.708-.29.42-.246 2.362-1.812 3.84-1.566 1.457-4.05 2.539-5.482 1.766-1.431-.772-3.176-1.523-4.027-2.648-.827-1.126-.738-.663-.447-1.832.29-1.148.94-.927 1.342-1.987l.425-1.06 2.081-1.346z"/><path fill="#F1B862" d="M76.956 28.18c-1.49-.18-5 3.297-5.312 3.952-.31.655-.822 1.333-.377 2.507.533 2.077 1.31 3.32 1.31 3.32s.756 1.015 1.823 1.76c1.067.723 2.6 2.168 2.867 1.942.266-.226 2.51.339 2.51.339s3.934-.316 4.045-1.016c.111-.7-1.444-7.068-1.444-7.068s-3.934-5.555-5.422-5.735z"/><path fill="#71412F" d="M76.889 30.235s-.6-2.37 1.378-2.1c1.977.249 3.51.859 4.31 1.604.8.745 3.334 3.726 3.023 4.2-.311.474-.267 2.687-2 4.335-1.733 1.649-4.444 2.868-6.044 2.01-1.578-.858-3.512-1.716-4.423-3.003-.91-1.287-.8-.768-.489-2.078.312-1.31 1.023-1.038 1.49-2.258l.466-1.22 2.289-1.49z"/><path fill="#58352C" d="M86.844 34.774c.312-.474-2.244-3.455-3.022-4.2-.422-.406-1.044-.745-1.822-1.039 1.044 1.152 2.733 3.252 2.467 3.636-.311.474-.267 2.687-2 4.335-1.734 1.649-4.467 2.868-6.045 2.01-.489-.27-1.022-.542-1.533-.813 1.022.971 2.578 1.716 3.911 2.439 1.578.858 4.311-.361 6.044-2.01 1.734-1.67 1.69-3.884 2-4.358z"/><path fill="#F1B862" d="M36.455 15.171c-1.364-.15-4.546 2.786-4.841 3.343-.273.557-.75 1.115-.341 2.122.477 1.757 1.182 2.807 1.182 2.807s.681.857 1.659 1.478c.977.622 2.363 1.822 2.613 1.65.25-.171 2.273.279 2.273.279s3.59-.257 3.682-.857c.09-.6-1.318-5.979-1.318-5.979s-3.546-4.671-4.91-4.843z"/><path fill="#71412F" d="M35.59 16.414s.274-1.478 2.07-1.264c1.795.214 3.204.729 3.908 1.35.727.643 3.046 3.15 2.75 3.557-.273.407-.227 2.272-1.818 3.664-1.568 1.393-4.045 2.422-5.5 1.693-1.432-.728-3.182-1.457-4.023-2.528-.84-1.072-.727-.643-.454-1.757.295-1.115-.341-.643.09-1.672.432-1.028.91-1.736.91-1.736l2.068-1.307z"/><path fill="#58352C" d="M45.91 21.043c.272-.407-2.046-2.914-2.75-3.557-.387-.343-.955-.643-1.66-.879.955.964 2.477 2.743 2.25 3.064-.273.408-.227 2.272-1.818 3.665-1.591 1.393-4.068 2.421-5.5 1.693-.455-.236-.932-.45-1.41-.686.933.814 2.342 1.436 3.569 2.057 1.432.729 3.932-.3 5.5-1.693s1.545-3.278 1.818-3.664z"/><path fill="#F1B862" d="M85.43 53.07c-1.084-.14-3.622 2.372-3.853 2.837-.23.488-.6.953-.277 1.79.392 1.489.946 2.396.946 2.396s.554.744 1.316 1.256c.761.511 1.892 1.558 2.076 1.395.185-.163 1.824.233 1.824.233s2.861-.233 2.93-.744c.07-.512-1.061-5.093-1.061-5.093s-2.816-3.93-3.9-4.07z"/><path fill="#71412F" d="M84.738 54.116s.208-1.256 1.662-1.093c1.43.186 2.538.605 3.115 1.163.577.535 2.423 2.674 2.193 3.023-.231.35-.185 1.93-1.454 3.117-1.246 1.186-3.23 2.07-4.385 1.441-1.154-.604-2.538-1.232-3.207-2.162-.67-.907-.577-.558-.347-1.489.231-.93-.253-.558.07-1.418.323-.86.738-1.489.738-1.489l1.615-1.093z"/><path fill="#58352C" d="M92.977 58.07c.23-.35-1.615-2.489-2.192-3.023-.3-.28-.762-.535-1.316-.745.762.814 1.985 2.326 1.8 2.605-.23.349-.184 1.93-1.454 3.116-1.246 1.186-3.23 2.07-4.384 1.442-.37-.186-.739-.395-1.108-.581.739.697 1.87 1.232 2.839 1.744 1.153.605 3.115-.256 4.384-1.442 1.223-1.186 1.2-2.79 1.43-3.116z"/><path fill="#F1B862" d="M49.951 37.088c-.988-.11-3.322 2.107-3.524 2.524-.203.417-.54.856-.247 1.603.359 1.339.875 2.129.875 2.129s.494.658 1.212 1.12c.719.46 1.729 1.382 1.909 1.25.18-.131 1.66.22 1.66.22s2.627-.197 2.695-.658c.067-.461-.966-4.522-.966-4.522s-2.626-3.534-3.614-3.666z"/><path fill="#71412F" d="M49.322 38.032s.202-1.12 1.505-.966c1.302.154 2.334.549 2.85 1.032.517.482 2.223 2.392 2.021 2.678-.202.285-.18 1.712-1.325 2.765-1.144 1.054-2.963 1.822-4.018 1.296-1.055-.527-2.335-1.098-2.94-1.91-.607-.812-.54-.483-.315-1.317.202-.834-.247-.483.067-1.273.315-.769.674-1.317.674-1.317l1.481-.988z"/><path fill="#58352C" d="M56.843 41.522c.202-.307-1.482-2.217-2.02-2.7-.27-.263-.696-.483-1.213-.659.696.725 1.819 2.064 1.639 2.327-.202.308-.18 1.712-1.325 2.788-1.144 1.054-2.963 1.822-4.018 1.295-.337-.175-.673-.351-1.033-.527.674.615 1.707 1.098 2.605 1.559 1.055.549 2.85-.22 4.018-1.295 1.167-1.076 1.145-2.48 1.347-2.788z"/><path fill="#F1B862" d="M21.415 43.09c-1.31-.157-5.76 3.098-6.022 3.681-.262.584-.568 1.325-.175 2.38.458 1.84 1.026 2.716 1.026 2.716.938.651 2.269 1.909 2.509 1.729.24-.18 2.182.292 2.182.292s3.447-.27 3.534-.898c.087-.629-1.265-6.263-1.265-6.263s-.502-3.458-1.79-3.637z"/><path fill="#71412F" d="M21.83 43.898c1.723.224 2.006.875 2.006.875.699.674 2.466 1.572 2.182 1.976-.262.427-.218 2.38-1.745 3.839-1.506 1.459-3.884 2.536-5.28 1.773-1.375-.763-1.702-.134-2.51-1.257-.807-1.122-.632-.606-.37-1.773.283-1.168.087-.27.502-1.325.414-1.077-.131-1.796 1.287-2.761 1.418-.965 2.182-1.572 3.927-1.347z"/><path fill="#58352C" d="M26.978 47.243c-.502-.83-2.313-2.425-2.727-2.2-.415.224.153.875.153.875.545.696.523 1.01.523 1.01s.306 1.841-1.222 3.3c-1.505 1.46-3.905 2.537-5.28 1.774-.436-.247.044.18-.392-.067.894.853 1.309.853 2.487 1.504 1.375.763 3.775-.315 5.28-1.774 1.505-1.481.916-3.996 1.178-4.422z"/><path fill="#F1B862" d="M62.391 11.132c-1.065-.132-4.76 2.502-4.978 2.985-.217.483-.456 1.076-.13 1.932.39 1.492.847 2.195.847 2.195.783.527 1.87 1.536 2.066 1.383.195-.154 1.804.241 1.804.241s2.848-.22 2.913-.724c.065-.505-1.043-5.07-1.043-5.07s-.392-2.81-1.479-2.942z"/><path fill="#71412F" d="M60.783 12.559s.521-.966 1.934-.769c1.413.198 1.653.725 1.653.725.565.548 2.021 1.273 1.804 1.602-.217.33-.196 1.932-1.435 3.117-1.26 1.186-3.217 2.064-4.348 1.449-1.152-.615-1.413-.11-2.065-1.01-.652-.922-.522-.505-.304-1.449.217-.944.065-.22.413-1.075.326-.878.522-1.69.522-1.69l1.826-.9z"/><path fill="#58352C" d="M67 14.49c-.413-.68-1.913-1.953-2.24-1.778-.325.176.11.703.11.703.434.57.434.812.434.812s.24 1.493-1 2.678c-1.26 1.185-3.217 2.063-4.37 1.449-.347-.198.044.131-.325-.066.739.702 1.087.702 2.043 1.207 1.152.615 3.109-.241 4.37-1.449 1.239-1.163.76-3.205.978-3.556z"/><g><path fill="#F1B862" d="M27.326 63.22c-1.065-.132-4.76 2.502-4.978 2.985-.218.483-.457 1.075-.13 1.932.39 1.492.847 2.195.847 2.195.783.527 1.87 1.536 2.065 1.383.196-.154 1.805.241 1.805.241s2.848-.22 2.913-.724c.065-.505-1.044-5.071-1.044-5.071s-.413-2.81-1.478-2.941z"/><path fill="#71412F" d="M25.717 64.646s.522-.966 1.935-.768c1.435.176 1.652.724 1.652.724.566.55 2.022 1.274 1.805 1.603-.218.33-.196 1.932-1.435 3.117-1.24 1.185-3.217 2.063-4.348 1.449-1.152-.615-1.413-.11-2.065-1.01-.652-.922-.522-.505-.304-1.449.217-.944.065-.22.413-1.075.326-.878.521-1.69.521-1.69l1.826-.9z"/><path fill="#58352C" d="M31.935 66.578c-.413-.68-1.913-1.954-2.24-1.778-.347.198.11.702.11.702.434.571.434.813.434.813s.24 1.492-1 2.678c-1.26 1.185-3.217 2.063-4.37 1.448-.347-.197.044.132-.326-.065.74.702 1.087.702 2.044 1.207 1.152.615 3.109-.242 4.37-1.449 1.217-1.185.739-3.227.978-3.556z"/></g><path fill="#603913" d="M62 74s-7.523 15.75-15 0h15zm2.473-8.568c1.577.163 2.83 1.182 3.326 2.507.087-.224.13-.469.173-.734.26-2.059-1.317-3.934-3.52-4.179-2.182-.244-4.169 1.244-4.428 3.323-.064.57 0 1.141.195 1.651.583-1.651 2.332-2.772 4.254-2.568zm-19 0c1.577.163 2.83 1.182 3.326 2.507.087-.224.13-.469.173-.734.26-2.059-1.317-3.934-3.52-4.179-2.182-.244-4.169 1.244-4.428 3.323-.064.57 0 1.141.195 1.651.583-1.651 2.332-2.772 4.254-2.568z"/><g><path fill="#F0B758" d="M22.22 30.485S17.18 30 20.05 34.13s4.783-.185 4.783-.185l-2.613-3.461z"/><path fill="#542C1B" d="M21.917 34.777s1.96 1.108 3.476.438c1.517-.669-.91-3.877-.91-3.877l-2.566 3.439z"/><path fill="#71422D" d="M22.127 31.385s-.14-2.423 1.68-.808c1.82 1.615 1.05 3.37 1.05 3.37s-1.167 2.422-3.64.322c-2.474-2.1.14-3.369.91-2.884z"/></g></g></svg>
