<svg id="Layer_1" data-name="Layer 1" xmlns="http://www.w3.org/2000/svg" viewBox="0 15 335 295"><defs><style>.cls-1{fill:#37c0ca}.cls-2{fill:#ceb42c}.cls-5{fill:#fff}.cls-4{fill:#203c73}.cls-6{fill:#9b6883}.cls-7{fill:#4e3412}.cls-8{fill:#4b1715}.cls-9{fill:#249a47}.cls-10{fill:#055b40}</style></defs><path class="cls-1" d="M162.83 186.33c-44 0-61.33 18-61.33 18s-13.33-25-33.67-25c0 0-6.33 33.33 7.67 33.33-14 0-7.46 32.13-7.46 32.13 16.67 0 33.46-27.46 33.46-27.46s13.33 48.33 57.33 48.33c22.29 0 36.7-9.07 45.51-18-17.67-4-17-17.19-17-17.19 1.2 5.87 16.65 10.06 22.46 10.83a50.47 50.47 0 0 0 6.37-11s-9.34-43.97-53.34-43.97z" transform="translate(-64.96 -90.02)"/><path class="cls-1" d="M162.49 185.27c-16.13.09-32.65 2.28-47.44 9.05-5 2.3-10.49 5.11-14.4 9.12l1.85.55c-6.92-12.85-19.7-25.35-35-25.73a.83.83 0 0 0-.8.6c-1.73 9.23-5.44 34.23 9.15 34.87l-.68-2.14c-13.83.61-10 24.63-8.24 33.26a1.5 1.5 0 0 0 1.46 1c14.79-.49 27-16.26 34.15-27.82l-2.15-.63a78.57 78.57 0 0 0 15 28c13.86 16.85 34.11 23.88 55.59 20.45a61.8 61.8 0 0 0 34.19-17.28c.77-.77 0-1.74-.9-1.94-7.48-1.85-16.12-7.12-15.79-15.94l-2.29-.13c2.45 8.07 16.54 10.77 23.62 11.81a1 1 0 0 0 1-.35c3.16-4.39 7.38-8.91 5.76-14.37a68 68 0 0 0-7.06-15.79c-10.26-16.89-27.29-26.36-47-26.57-1.56 0-.56 2.12.68 2.14 22 .23 39.55 12.86 48.33 32.72 1.07 2.41 3.73 8 3.51 10.06-.11 1-2.46 4.69-3.34 6.12-.51.83-1.63 3.45-2.67 3.83-.77.28-2.93-.56-3.71-.75-5-1.17-15.15-3.4-16.84-9-.3-1-2.24-1.53-2.29-.13-.38 10.15 9.65 16.32 18.22 18.44l-.9-1.94c-20.13 20.12-55.06 24.73-77.75 6.22a72.88 72.88 0 0 1-23.12-35.71c-.21-.76-1.62-1.49-2.15-.63-6.82 11.07-18.61 26.63-32.77 27.09l1.46 1c-1.51-7.51-5.27-30.46 6.68-31 1.62-.07.49-2.08-.68-2.14-7.56-.33-7.62-11.79-7.58-17.21a85.42 85.42 0 0 1 .69-9.88c.08-.68.11-4.16.69-4.58a57.44 57.44 0 0 1 5.91 1.47 29.79 29.79 0 0 1 7 3.09 45.64 45.64 0 0 1 10 8.32 59 59 0 0 1 8.66 11.87c.27.5 1.33 1.08 1.85.55 3.78-3.88 9.08-6.66 13.93-8.88 14.64-6.7 30.92-8.86 46.89-8.95 1.52-.02.53-2.15-.72-2.14z" transform="translate(-64.96 -90.02)"/><path class="cls-2" d="M284.59 164.87S299.5 133.59 249 121.1c-57.91-14.31-83.63 14.9-83.63 14.9s-8-25-25-28.29c0 0 0 25.32 11.63 27.6-11.66-2.28-20.72 19.9-20.72 19.9 13.88 2.71 31.45-13.89 31.45-13.89s-3.24 26.17 67 40.44c20.09 4.08 34.63-1.41 43.68-7.2-27.58-5.89-24.41-17.89-24.41-17.89 5.33 4.19 18 12.33 31 13a36.84 36.84 0 0 0 4.59-4.8z" transform="translate(-64.96 -90.02)"/><path class="cls-2" d="M285.8 165c6.68-14.23-2.45-29-14.75-36.22-15.35-9.08-35.25-12.34-52.87-12.29-13.15 0-26.45 2.5-38.32 8.31-5.53 2.7-11.45 6.19-15.6 10.86l2.29.14c-3.91-12-12.43-25.71-25.53-28.66-.42-.1-1.88-.21-1.88.55 0 9.11 1.45 25.47 12.25 28.14l1-1.15c-11.17-1.58-18.65 11.62-22.26 20.35-.21.5.53.71.88.77 12.06 1.89 24.43-6.29 32.86-14.18l-2.33-.31c-.68 5.87 4.19 12.05 8 15.85 6.07 6.06 13.85 10.34 21.64 13.75a168.51 168.51 0 0 0 42 12.09c14.3 2.15 28.88-.31 41.19-8 .56-.35.36-.84-.26-1-6.63-1.48-26.51-6.45-23.82-17.37l-2.33.33a67.44 67.44 0 0 0 22.27 11.61c2.61.75 7.78 2.59 10.42 1.6 2-.75 3.88-3.47 5.19-5.15.5-.65-1.88-1-2.41-.32-1.24 1.59-2.78 3.63-4.77 4.21-3.12.9-10.45-2.4-13.18-3.55a69.47 69.47 0 0 1-15.36-9c-.55-.42-2.12-.53-2.33.33-1.27 5.18 4.22 10 8 12.29a43.77 43.77 0 0 0 9.1 4c1.21.4 5.62.81 6.2 1.72.4.63.74-.52-.26.49a11.61 11.61 0 0 1-2.88 1.58 54.92 54.92 0 0 1-27.44 5.7c-11.1-.52-22.39-3.74-33-7a125.78 125.78 0 0 1-21.51-8.75c-7.45-4-15.14-9.19-19.44-16.68-1.43-2.49-2.9-5.75-2.55-8.73.1-.87-2-.65-2.33-.31-7.6 7.12-19.15 15.31-30 13.6l.88.77c3-7.18 9.87-20.78 19.19-19.46.79.11 2.46-.78 1-1.15-9.87-2.44-11-18.78-11-27.06l-1.88.55c12.55 2.83 20.64 16.42 24.38 27.91.22.66 1.9.57 2.29.14 10.4-11.71 28.55-16.85 43.47-18.17 18.37-1.62 39.07 1.34 55.67 9.56 9.36 4.63 18 12.2 19.56 23a25.28 25.28 0 0 1-1.74 14c-.5.87 1.94 1.11 2.3.31z" transform="translate(-64.96 -90.02)"/><path class="cls-1" d="M152 222.24c-5.75 0-5.75 9.5-1 9.5-7 0-8.75 11.25-1.22 11.25-6 0-5.78 11-1 11" transform="translate(-64.96 -90.02)"/><path class="cls-4" d="M152.07 221.41c-6 .59-8.26 10.33-1.46 11.15l.46-1.65c-7.58.58-10.59 12.25-1.68 12.9l.46-1.65c-6.35.62-8.41 11.79-1.48 12.65 1.11.14 2.2-1.46.74-1.64-4.25-.53-3.57-8.94.57-9.35.92-.09 1.85-1.55.46-1.65-6.4-.47-4.68-9.18.77-9.6 1-.07 1.83-1.49.46-1.65-4-.49-3.37-7.46.54-7.85 1.24-.12 1.65-1.81.17-1.66z" transform="translate(-64.96 -90.02)"/><path class="cls-1" d="M174.05 246.42c-5.75 0-5.75-9.5-1-9.5-7 0-8.75-11.25-1.22-11.25-6 0-5.78-11-1-11" transform="translate(-64.96 -90.02)"/><path class="cls-4" d="M174.44 245.68c-3.36-.33-6-7.49-1.5-8 .83-.1 1.91-1.36.5-1.47-4.81-.37-8.55-9.28-1.73-9.78.87-.06 1.88-1.34.5-1.47-3.9-.38-5.85-9-1.53-9.53 1.16-.14 1.71-1.65.23-1.47-6.75.84-6.09 11.82.52 12.47l.5-1.47c-8.64.63-7.27 12.11.72 12.72l.5-1.47c-6.53.78-5.84 10.34.5 11 1 .1 2.25-1.33.78-1.47z" transform="translate(-64.96 -90.02)"/><path class="cls-1" d="M164.5 223s-1.25 4.25-4 4.25-7-11-17.75-10.5c0 0-3.5 10.75 0 17.75 0 0 8.25 4.25 17.5-3 0 0 4.25-.75 4.25 4.25" transform="translate(-64.96 -90.02)"/><path class="cls-4" d="M163.41 223.12a6.69 6.69 0 0 1-1.13 2.3c-1.69 1.87-1.61.95-2.89 0-1.53-1.14-2.67-3-4.07-4.35a17 17 0 0 0-12.16-5c-.54 0-1.31.19-1.5.79-1.45 4.57-3.82 15.83 1.28 18.61 2.73 1.49 7.1 1.08 10 .38a30.56 30.56 0 0 0 6.73-3c2.31-1.19 3.59.51 3.79 3.21.06.79 2.24.31 2.17-.58-.19-2.6-1.45-4.65-4.26-4.66a4.62 4.62 0 0 0-1.76.33c-1.66.58-3.17 2.19-4.88 2.87a14.9 14.9 0 0 1-6.23 1c-1 0-3.69-.16-4.62-1-1.4-1.25-1.44-4.91-1.5-6.67a32.32 32.32 0 0 1 1.52-10.75l-1.5.79c4.66 0 8.34 1.91 11.58 5.14 1.48 1.47 2.77 3.62 4.56 4.74 3.25 2 6.18-1.53 7.11-4.41.26-.83-1.93-.55-2.18.24z" transform="translate(-64.96 -90.02)"/><path class="cls-1" d="M138.33 204c-5.75 0-5.75 9.5-1 9.5-7 0-8.75 11.25-1.22 11.25-6 0-5.78 11-1 11" transform="translate(-64.96 -90.02)"/><path class="cls-4" d="M138.47 203.36c-5.88.58-8.37 10-1.55 10.79l.55-1.29c-7.47.57-10.72 11.89-1.77 12.54l.55-1.29c-6.28.62-8.51 11.43-1.58 12.29.88.11 2.28-1.12.83-1.3-4.18-.52-3.73-9.3.48-9.71.77-.08 1.94-1.19.55-1.29-6.2-.45-5.06-9.52.67-10 .8-.06 1.91-1.13.55-1.29-4-.48-3.62-7.81.45-8.21 1.09-.11 1.78-1.43.28-1.28z" transform="translate(-64.96 -90.02)"/><path class="cls-1" d="M130.33 242.75c-5.75 0-5.75-9.5-1-9.5-7 0-8.75-11.25-1.22-11.25" transform="translate(-64.96 -90.02)"/><path class="cls-4" d="M130.75 242.12c-3.54-.28-5.82-7.84-1.56-8.26.75-.07 1.95-1.15.56-1.24-5.08-.33-8.38-9.6-1.79-10 1.09-.07 1.8-1.32.29-1.23-8.62.53-7.33 12 .66 12.49l.56-1.24c-6.51.63-5.91 10.24.44 10.74.85.07 2.3-1.14.84-1.26z" transform="translate(-64.96 -90.02)"/><circle class="cls-5" cx="131.44" cy="129.15" r="1.17"/><path class="cls-4" d="M196.66 220.26c0 .51-.25 1.43-.82 1.35a1.73 1.73 0 0 1-1.23-1.7c0-.57.31-1.44.92-1.23a1.83 1.83 0 0 1 1.13 1.74c0 .69 2.22.25 2.17-.58-.2-3.67-6.41-2.88-6.41.51 0 3.71 6.23 3 6.41-.35.04-.89-2.14-.46-2.17.26z" transform="translate(-64.96 -90.02)"/><path class="cls-1" d="M91.87 138.15l-8.75-3.67"/><path class="cls-4" d="M157.4 227.8l-8.75-3.67c-.47-.2-1.78.47-1.14.74l8.75 3.67c.47.2 1.78-.47 1.14-.74z" transform="translate(-64.96 -90.02)"/><path class="cls-1" d="M90.95 139.98l-11.04.92"/><path class="cls-4" d="M156 229.48l-11 .92c-.81.07-1.12 1.13-.13 1l11-.92c.81-.07 1.12-1.13.13-1z" transform="translate(-64.96 -90.02)"/><path class="cls-6" d="M231.5 307.63c2.5 6.22 21.89 7.27 28.62 7a57.15 57.15 0 0 0 3.81-12.22s-14.27-44.41-51.24-39.18-43.26 60.38-43.26 60.38-5.32-21.42-22.4-19c0 0 5.15 25.32 16.92 23.66-11.76 1.66-10 24.21-10 24.21 14-2 14.74-23 14.74-23S184 351 220.92 345.74a47.34 47.34 0 0 0 33-20c-17.25-.07-22.42-18.11-22.42-18.11z" transform="translate(-64.96 -90.02)"/><path class="cls-6" d="M230.3 308c2.09 4.16 7.91 5.29 12.06 6.08a79 79 0 0 0 17.32 1.29c.48 0 1.36-.18 1.58-.71 1.56-3.79 4.47-9.22 3.6-13.41-.67-3.23-2.75-6.65-4.27-9.53-5.65-10.69-13.8-20.77-25-26a40.76 40.76 0 0 0-38.36 2.49c-10.81 6.8-17.77 18.28-22.35 29.92a103.43 103.43 0 0 0-6.7 25.64l2.41-.51c-2.81-11-11.33-20.71-23.47-19.37-.45 0-1.47.43-1.34 1.06 1.81 8.73 6.55 25 18 24l.28-1.43c-10.91 2.09-12 16.23-11.31 25.27 0 .4.82.41 1.06.37 11.08-2 15.67-13.65 16.09-23.86l-2.32.67c6.49 9 18.64 14.2 29.15 16.18 21.86 4.11 44.89-2 58.29-20.42.35-.48-.33-.75-.69-.76-10.36-.32-18.78-7.93-21.66-17.71-.26-.89-2.66-.2-2.4.7a27.28 27.28 0 0 0 12.36 15.79c2.57 1.41 5.33 1.44 7.92 2.51 1.91.79 1.71-.64.78 1.35-.73 1.55-2.76 3.27-4 4.5a45.47 45.47 0 0 1-23.09 12.33c-17.76 3.66-42.88.63-54.46-15.47-.43-.59-2.29-.07-2.32.67a37.57 37.57 0 0 1-1.33 8.18 27.29 27.29 0 0 1-3.12 7.5c-1.18 1.87-5 6.75-7.53 6.38-.64-.09-.44-1.07-.45-2.48a50.81 50.81 0 0 1 .35-6.19c.63-5.23 2.24-12.9 8.37-14.07 1.16-.22 2-1.58.28-1.43-9.87.88-14.32-15.9-15.85-23.29l-1.34 1.06c11.21-1.24 18.82 8.73 21.34 18.64.22.87 2.32.23 2.41-.51 2.31-19.88 11-44.36 29-55 14.84-8.76 33.15-5.14 45.37 6.28a70 70 0 0 1 17 26.07 7.6 7.6 0 0 1 .62 2.18c0 1.76-.92 3.92-1.43 5.55-.3 1-.76 2-1 2.94-.94 3.87.23 1.85-1.94 2.45-3.86 1.07-10.09-.48-13.92-1.16s-9.73-1.61-11.66-5.48c-.36-.84-2.72-.05-2.33.74z" transform="translate(-64.96 -90.02)"/><path class="cls-6" d="M208.82 301.65c-4.83.68-3.44 10.51.55 9.94-5.88.83-5.71 12.67.62 11.78-5.06.72-3.25 12.06.75 11.5" transform="translate(-64.96 -90.02)"/><path class="cls-7" d="M208.68 301.13c-5.09 1.36-5 11 .63 11l-.08-1.07c-6.44 1.54-6.72 13.23.7 12.85l-.08-1.07c-5.37 1.43-4.92 12.51.83 12.57.84 0 1.1-1.1.12-1.11-4 0-4.26-9.47-.66-10.42.73-.19.78-1.12-.08-1.07-5.73.29-5.39-9.55-.54-10.71.77-.18.75-1.07-.08-1.07-3.89 0-3.8-8-.47-8.87.9-.24.62-1.28-.28-1z" transform="translate(-64.96 -90.02)"/><path class="cls-6" d="M208.95 312.26c-4.83.68-6.22-9.14-2.23-9.71-5.88.83-9-10.59-2.67-11.49-5.06.72-6.46-10.69-2.47-11.25" transform="translate(-64.96 -90.02)"/><path class="cls-7" d="M209 311.77c-3.41.06-6-7.63-2.18-8.76.7-.21.82-1 0-.94-4.72.2-8.44-9.15-2.63-10.54.73-.18.8-1 0-.94-3.7.08-6.28-9.15-2.42-10.31.87-.26.64-1.17-.24-.91-4.31 1.29-3.49 8.56-.77 11.07.75.69 1.39.66 2.17 1.11 0 0 .88-1-.82-.25s-2.3 3.34-2.16 5.07c.2 2.41 1.56 5.14 3.84 6.22 2.55 1.2 2.37-1.29.78.85-2.56 3.44.09 9.41 4.37 9.32.79 0 1.14-1 .15-1z" transform="translate(-64.96 -90.02)"/><path class="cls-6" d="M193.91 334.18c-4.83.68-6.22-9.14-2.23-9.71-5.88.83-9-10.59-2.67-11.49" transform="translate(-64.96 -90.02)"/><path class="cls-7" d="M194.19 333.76c-3.55.13-6.31-7.86-2.41-8.91.67-.18.86-.83 0-.78-4.93.29-8.31-9.45-2.67-10.71.88-.2.68-.94-.2-.74-6.08 1.38-4.91 12.33 1.09 12.24 1.64 0 .82-1-.33.3a5 5 0 0 0-1 3.36c0 3 1.7 6.2 5 6.07.55 0 1.53-.87.56-.84z" transform="translate(-64.96 -90.02)"/><path class="cls-6" d="M219.45 300.95s-.83 4.6-4 5-9.71-10.23-22.07-8c0 0-2.48 11.69 2.6 18.36 0 0 10.17 3 19.81-6 0 0 4.81-1.47 5.54 3.7" transform="translate(-64.96 -90.02)"/><path class="cls-7" d="M218.72 301c-1.65 8-7.24 1.84-10.74-.34a20.87 20.87 0 0 0-14.53-3.08c-.28 0-.75.18-.82.52-1 4.88-1.88 16.64 3.7 18.88 2.86 1.15 7.32.22 10.12-.62a23.68 23.68 0 0 0 7-3.44c-.74.54 3.12-2.31 2.52-2.14 2.65-.76 4.07 1.3 4.59 3.52.13.55 1.58.18 1.45-.39-2.07-8.81-9.48-1-13.39.75-2.66 1.18-9.31 3.27-12.18 1.31-3.54-2.43-3.15-11.36-2.81-14.89 0-.5 0-2.66.42-3.06s5.37.37 5.59.41a18 18 0 0 1 3.33 1c3.64 1.44 6.23 4.11 9.54 6 3.78 2.19 6.82-.69 7.64-4.63.12-.6-1.34-.38-1.45.16z" transform="translate(-64.96 -90.02)"/><ellipse class="cls-5" cx="245.69" cy="293.19" rx=".99" ry="1.22" transform="rotate(-8.05 -426.554 709.717)"/><path class="cls-6" d="M220.94 290.29c-4.77 1-2.71 10.72 1.24 9.88-5.81 1.24-4.82 13 1.43 11.71-5 1.06-2.4 12.26 1.54 11.42" transform="translate(-64.96 -90.02)"/><path class="cls-7" d="M220.83 289.9c-3.9 1.34-4.9 7.91-1.12 10.2 2.12 1.28 1.78-.84-.21 1a7.43 7.43 0 0 0-1.81 6.46c.32 1.94 1.57 4.53 3.83 4.74 1.36.13 1 .09 1.06-.53 0 .13-1.68 1.52-1.86 1.86-1.76 3.21-.07 10.32 4.33 10.06.74 0 1.19-.91.18-.85-3.91.23-5.16-9.36-1.53-10.6.62-.21.89-.92 0-.82-5.86.71-6-9.44-1.42-10.89.65-.21.87-.87 0-.82-3.86.24-4.62-7.9-1.22-9.07.84-.29.66-1.08-.21-.78zm25.41 4.31c.05.56-.09 2.07-1 1.79a2 2 0 0 1-1.13-1.67c-.08-.56.11-2.06 1-1.79.69.21 1 1 1.13 1.67s1.55.14 1.45-.39a2.43 2.43 0 0 0-2.91-2.11 2.62 2.62 0 0 0-2.1 3 2.42 2.42 0 0 0 2.81 2.12 2.65 2.65 0 0 0 2.2-3c-.05-.47-1.51-.16-1.45.38z" transform="translate(-64.96 -90.02)"/><path class="cls-6" d="M148.8 217.18l-7.89-2.75"/><path class="cls-7" d="M214.2 306.78l-7.89-2.78c-.51-.18-1.7.56-.87.85l7.89 2.75c.51.18 1.7-.56.87-.85z" transform="translate(-64.96 -90.02)"/><path class="cls-6" d="M148.3 219.19l-9.15 2.26"/><path class="cls-7" d="M213.13 308.72L204 311c-.9.22-.64 1.2.26 1l9.15-2.26c.9-.22.64-1.2-.26-1z" transform="translate(-64.96 -90.02)"/><path class="cls-6" d="M185.43 319.44c-4.83.68-6.22-9.14-2.23-9.71-5.88.83-9-10.59-2.67-11.49" transform="translate(-64.96 -90.02)"/><path class="cls-7" d="M185.71 319c-3.55.13-6.31-7.86-2.41-8.91.67-.18.86-.83 0-.78-4.93.29-8.31-9.45-2.67-10.71.88-.2.68-.94-.2-.74-6.08 1.35-4.88 12.33 1.08 12.25 1.64 0 .82-1-.33.3a5 5 0 0 0-1 3.36c0 3 1.7 6.2 5 6.07.55 0 1.53-.87.56-.84z" transform="translate(-64.96 -90.02)"/><path class="cls-2" d="M226.35 154.2c-4.79-.93-5.91 4.79-2 5.57-5.83-1.14-8.61 5.36-2.34 6.58-5-1-6.11 5.69-2.15 6.47" transform="translate(-64.96 -90.02)"/><path class="cls-8" d="M226.59 153.65c-2-.24-4.29.21-5.1 2.34s.54 3.71 2.49 4.28l.66-1.05c-2.37-.31-5.4.16-6.54 2.6-1.26 2.7 1.18 4.43 3.53 5l.66-1.05c-2.23-.25-4.49.42-5.3 2.74a3.58 3.58 0 0 0 2.49 4.78c.65.2 1.71-.75.83-1-3.23-1-2.56-5.87 1.49-5.41.55.06 1.52-.83.66-1.05-5.08-1.31-3.08-6.16 1.68-5.53.55.07 1.52-.8.66-1.05-2.95-.86-2.83-5 1.29-4.51.74.09 1.47-1 .49-1.09z" transform="translate(-64.96 -90.02)"/><path class="cls-2" d="M240.65 147.69c-4.79-.93-3.67-6.66.29-5.89-5.83-1.14-6-8.21.31-7-5-1-3.52-7.57.44-6.8" transform="translate(-64.96 -90.02)"/><path class="cls-8" d="M241.08 147.23a3.44 3.44 0 0 1-2.6-1.92c-.53-1.33-.21-3.25 2.2-3 .47 0 1.54-.73.69-.95-3.72-1-6.3-6.83-.38-6 .49.07 1.52-.71.69-.95a3.47 3.47 0 0 1-2.81-2.52 2.56 2.56 0 0 1 2.56-3.33c.66.06 1.5-.9.52-1-5.24-.45-6.14 6.32-1.13 7.75l.69-.95c-6.75-.91-7.2 6.32-1 7.93l.69-.95c-5-.48-5.82 5.48-1 6.84.57.16 1.71-.68.85-.92z" transform="translate(-64.96 -90.02)"/><path class="cls-2" d="M190.47 160.86c-4.52-1.83-1.27-9.86 2.47-8.34-5.51-2.23-3-12.29 2.89-9.89" transform="translate(-64.96 -90.02)"/><path class="cls-8" d="M191 160.5c-2.76-1.43-2.58-8.71 1.45-7.59.34.09 1.65-.45 1-.76-4-1.93-4-11.07 1.87-9.14.47.16 1.69-.53.88-.8-6.66-2.2-9.9 7.72-3.91 10.65l1-.76c-5.05-1.4-8.13 6.68-3.48 9.1.43.22 1.76-.4 1.15-.71z" transform="translate(-64.96 -90.02)"/><path class="cls-2" d="M242.52 151.55a8.5 8.5 0 0 1-7.62 2.14c-4.77-.93-10.37-11.41-29.08-14.64 0 0-7.79 7.65-2.85 14.59a57.85 57.85 0 0 0 30.81 3.46s7.49.82 6.68 4.93" transform="translate(-64.96 -90.02)"/><path class="cls-8" d="M241.93 151.4c-4.34 4.33-8.94.82-12.48-2a54.69 54.69 0 0 0-9.87-6.53 45.75 45.75 0 0 0-7.07-2.78c-1.67-.5-5-1.88-6.6-1.48s-3.11 3.27-3.81 4.62c-1.44 2.78-2.71 8.3.25 10.74 1.38 1.14 4.26 1.61 5.88 2.07a60.34 60.34 0 0 0 16.47 2.23c3.41 0 15.38-2.79 15 3.84 0 .64 1.43.37 1.45-.16.16-3.08-2.65-4.34-5.31-5a9 9 0 0 0-2.93-.19c-4.21.17-8.29.75-12.53.41-4.64-.37-11.46-.92-15.64-3.42-4.48-2.68-2.6-9 0-12.57 1.88-2.65 2.25-1.55 5.43-.7a45.12 45.12 0 0 1 8.82 3.37 68.71 68.71 0 0 1 10.91 7.55c4 3.09 9.19 4.28 13.21.26.61-.61-.8-.67-1.18-.29z" transform="translate(-64.96 -90.02)"/><ellipse class="cls-5" cx="270.36" cy="150.21" rx="1.22" ry=".99" transform="rotate(-78.95 183.25 144.64)"/><path class="cls-2" d="M247.36 143.86c-4.84-.6-5.73 6.56-1.73 7.06-5.9-.73-8.42 7.57-2.08 8.35-5.08-.63-5.9 7.69-1.89 8.19" transform="translate(-64.96 -90.02)"/><path class="cls-8" d="M247.64 143.42c-4.56-.07-7.89 6.49-2.45 7.9l.71-.85c-5.81-.22-10.13 7.68-2.8 9.2l.71-.85c-4.87-.09-8.17 7.58-2.61 9 .49.13 1.71-.61.88-.82-3.69-1-2.58-7.41 1.18-7.34.37 0 1.56-.67.71-.85-5.1-1.06-4-7.72 1.37-7.51.38 0 1.55-.63.71-.85-3.39-.88-2.72-6.27 1-6.21.58 0 1.53-.85.55-.87z" transform="translate(-64.96 -90.02)"/><path class="cls-7" d="M270.56 151.5c-.17.71-.7 1.78-1.53 1.08a2.09 2.09 0 0 1-.56-2c.14-.73.72-1.76 1.53-1.08a2.12 2.12 0 0 1 .56 2c-.08.56 1.38.31 1.45-.18.2-1.37-.46-2.8-2-2.86a3 3 0 0 0-3 2.35 2.27 2.27 0 0 0 1.91 2.85 3 3 0 0 0 3.07-2.35c.15-.52-1.31-.31-1.43.19z" transform="translate(-64.96 -90.02)"/><path class="cls-2" d="M155.31 60.77l-11.73-6.19"/><path class="cls-8" d="M220.84 150.41l-11.72-6.19c-.46-.24-1.78.41-1.14.74l11.72 6.19c.46.24 1.78-.41 1.14-.74z" transform="translate(-64.96 -90.02)"/><path class="cls-2" d="M160.59 65.15l-15.91-2.13"/><path class="cls-8" d="M225.8 154.64l-15.91-2.13c-.7-.09-1.48.91-.51 1l15.91 2.13c.7.09 1.48-.91.51-1z" transform="translate(-64.96 -90.02)"/><path class="cls-2" d="M189.77 145.72c-4.52-1.83-1.27-9.86 2.47-8.34-5.51-2.23-3-12.29 2.89-9.89" transform="translate(-64.96 -90.02)"/><path class="cls-8" d="M190.35 145.36c-2.76-1.43-2.58-8.71 1.45-7.59.34.09 1.65-.45 1-.76-4-1.93-4-11.07 1.87-9.14.47.16 1.69-.53.88-.8-6.66-2.2-9.9 7.72-3.91 10.65l1-.76c-5.05-1.4-8.13 6.68-3.48 9.1.43.22 1.76-.4 1.15-.71z" transform="translate(-64.96 -90.02)"/><path class="cls-9" d="M383.25 221.91c8.22 1.56 12.75-20.16 12.75-20.16-10.75-.17-22 16.82-22 16.82s-7.37-17.41-34-17.41c-38.19 0-36.23 19.9-36.23 19.9a30.18 30.18 0 0 0 2.52 7.14c3.5.2 13.58-.39 14.94-3.71 0 0-.17 10.09-12 10.09 4.17 6.24 11.19 11.14 24.28 13.62 25.85 4.9 39.07-22 39.07-22s6.49 21.29 20 22.54c-.08.01-1.11-25.27-9.33-26.83z" transform="translate(-64.96 -90.02)"/><path class="cls-9" d="M383.65 223.06c8.39.94 11.85-14.51 13.12-20.5.13-.6-.41-2-1.18-2-9.47.33-17.43 9.66-22.33 17l1.25.71c-5.29-12.18-20.31-17.7-32.55-18.21-12.61-.53-34.3 1.16-38.54 16.26-1.24 4.42.37 8 2.25 12.17.15.34.54.85 1 .86 4.22.16 12.7.36 15.23-3.86l-1.5-1.58c-.21 6.29-6 9.32-11.61 9.53-.81 0-.19 1.42 0 1.72 8.94 12.83 28.91 18.36 43.28 12.38 9-3.72 16.84-11.67 21.15-20.34l-1.39-1c3 9.81 9.9 22.22 21.08 23.71.3 0 .4-.35.39-.56a81.7 81.7 0 0 0-2.1-15.54c-1.09-4.52-3-11.6-8.16-13-1.11-.29-.34 2 .43 2.21 5.24 1.4 6.32 10.07 7.08 14.53.26 1.5 2.31 9.35 1.15 10.57.22-.23-3.8-1.62-4.38-1.91a18.42 18.42 0 0 1-4.6-3.38A33.33 33.33 0 0 1 377 235a47.43 47.43 0 0 1-3.81-8.78c-.08-.26-1-1.75-1.39-1a44.46 44.46 0 0 1-17 18.19c-14 8.08-35.82 4.15-45.25-9.38v1.72c6.34-.23 12.16-3.76 12.39-10.66 0-.41-1-2.42-1.5-1.58-1.61 2.7-6 3-8.74 3.35-1.22.13-3.11.56-4.31.25-1.59-.42-1.82-1.85-2.33-3.4a7.46 7.46 0 0 1-.46-4.19c1-6.41 6.44-10.87 12.07-13.31 16.35-7.1 48.24-6.85 56.71 12.66.12.28.88 1.27 1.25.71 4.78-7.13 12.51-16.35 21.74-16.67l-1.18-2c-1.21 5.71-4.51 20.71-12.38 19.83-.81-.07-.01 2.26.84 2.32z" transform="translate(-64.96 -90.02)"/><path class="cls-9" d="M366.17 215.55c3.38.64 2.32 6.22-.47 5.69 4.11.78 3.89 7.58-.54 6.74 3.54.67 2.17 7.11-.62 6.58" transform="translate(-64.96 -90.02)"/><path class="cls-10" d="M365.76 216.05c1.8.59 2.92 4.72 0 4.63-.51 0-1.22.84-.47 1.06 2.5.72 4.32 6.1.12 5.69-.53-.05-1.53.77-.66 1.05 2.19.71 2.62 5.6-.15 5.52-.85 0-1.09 1.08-.12 1.11 4 .13 4.84-6.43 1.09-7.63l-.66 1.05c5.17.5 6-6.42 1.19-7.8l-.47 1.06c3.91.12 4.52-5.58.94-6.75-.65-.21-1.7.72-.83 1z" transform="translate(-64.96 -90.02)"/><path class="cls-9" d="M344.94 221.91c3.39-.56 2.46-6.17-.34-5.7 4.13-.69 4.06-7.49-.38-6.76" transform="translate(-64.96 -90.02)"/><path class="cls-10" d="M345 222.29c3.6-.91 3.79-6.74-.34-6.48v.78c4.54-1.06 5-8.09-.38-7.54-.71.07-1.2.92-.19.82 3.74-.39 3.46 5.25.38 6-.69.16-.85.84 0 .78 2.36-.15 2.5 4.37.34 4.92-.87.22-.68 1 .2.74z" transform="translate(-64.96 -90.02)"/><path class="cls-9" d="M335 245c3 1.69 5.78-3.26 3.31-4.65 3.65 2.06 7.86-3.29 3.94-5.5 3.14 1.77 6.24-4 3.76-5.43" transform="translate(-64.96 -90.02)"/><path class="cls-10" d="M334.62 245.41c3.21 1.33 7.57-3 4.3-5.51l-1 .86c4 1.78 9.41-3.26 4.93-6.36l-1 .86c3.42 1.43 8.08-3.7 4.75-6.28-.46-.36-1.76.31-1.13.79 2 1.55-.4 5.57-2.77 4.57-.43-.18-1.63.41-1 .86 2.8 1.93.51 6.18-3 4.64-.44-.2-1.6.38-1 .86 1.81 1.4.13 4.81-2.32 3.8-.56-.23-1.69.57-.85.92z" transform="translate(-64.96 -90.02)"/><path class="cls-9" d="M335.22 220.36s.18 5.54 2.78 6 9.24-12.49 19.3-9.94c0 0 .77 14.07-4.21 22.19 0 0-8.82 3.83-15.86-6.89 0 0-3.85-1.7-5 4.55" transform="translate(-64.96 -90.02)"/><path class="cls-10" d="M334.49 220.55c.18 3.8 2 8 5.89 5.1 3.37-2.53 5.58-6.19 9.57-8 .94-.43 5.8-2.15 6.61-.93.21.31 0 1.25 0 1.6.37 1.71-.08 3.95-.23 5.67a48.28 48.28 0 0 1-1.19 7.51c-.43 1.73-1.18 5.82-2.59 6.87-3.72 2.75-10.34-1.72-12.65-4.24-1.65-1.8-1.81-3.41-4.36-3s-3.55 2.91-4.12 5.22c-.14.58 1.32.37 1.45-.16a4.78 4.78 0 0 1 3.58-4.14q1 1.37 2.11 2.65a18.41 18.41 0 0 0 2.19 2.06 13.65 13.65 0 0 0 6.11 2.78c1.72.29 4.84.45 6.44-.58 2.89-1.87 3.73-9.19 4.14-12.12a56.45 56.45 0 0 0 .53-10.61c0-.12-.2-.21-.29-.23-4.82-.95-8.95.74-12.67 3.79-1.76 1.45-3.59 4.37-5.61 5.33-2.81 1.34-3.4-2.67-3.51-5 0-.52-1.48-.21-1.45.39z" transform="translate(-64.96 -90.02)"/><path class="cls-9" d="M324.51 206.91c3.38-.65 4.46 4.92 1.67 5.46 4.11-.8 6.42 5.61 2 6.46 3.54-.69 4.64 5.8 1.85 6.34" transform="translate(-64.96 -90.02)"/><path class="cls-10" d="M324.42 207.33c2.2-.16 4 3.84 1.47 4.71-.67.23-.44.81.2.75 2.86-.26 5.85 4.5 2 5.65-.66.2-.87.88 0 .82 2.5-.19 4.13 4.72 1.65 5.59-1 .33-.09.88.59.65 3.89-1.37 1.75-7.38-2.06-7.09v.82c5.09-1.51 2.76-7.71-2-7.28l.2.75c3.78-1.33 1.74-6.47-1.87-6.21-.73.05-1.19.92-.18.85z" transform="translate(-64.96 -90.02)"/><path class="cls-9" d="M357.93 236.49c3.38.64 4.44-4.94 1.65-5.47 4.11.78 6.39-5.63 2-6.47" transform="translate(-64.96 -90.02)"/><path class="cls-10" d="M357.65 236.91c3.5.38 6.36-5.12 2.37-6.29l-.88.8a4.82 4.82 0 0 0 5.09-2.5 3.18 3.18 0 0 0-2.24-4.78c-.47-.12-1.7.59-.88.8 3.32.84 2.35 6.1-1.09 5.67-.41-.05-1.75.55-.88.8 2.19.64 1.52 4.91-.92 4.65-.57-.06-1.53.73-.56.84z" transform="translate(-64.96 -90.02)"/><circle class="cls-5" cx="316.56" cy="216.71" r=".7" transform="rotate(-79.26 229.728 210.922)"/><path class="cls-10" d="M314.94 217.21c-.32 2.37 3.54 2.33 3.94.29.46-2.36-3.45-2.28-3.94-.29-.13.52 1.33.31 1.45-.18a.81.81 0 0 1 .27-.51c.12-.07-.08 0 0 0a.58.58 0 0 1 .28.1 1.07 1.07 0 0 1 .48 1.09.93.93 0 0 1-.24.48c-.13.13 0 0 0 0a.52.52 0 0 1-.22-.07 1.06 1.06 0 0 1-.54-1.12c.05-.53-1.42-.28-1.48.21z" transform="translate(-64.96 -90.02)"/><path class="cls-9" d="M276.22 138.27l12.72-.57"/><path class="cls-10" d="M341.09 228.73l12.72-.57c.75 0 1.18-.93.18-.88l-12.72.57c-.75 0-1.18.93-.18.88z" transform="translate(-64.96 -90.02)"/><path class="cls-9" d="M276.2 141.47l6.38 1.77"/><path class="cls-10" d="M340.74 232l6.39 1.77c.61.17 1.71-.72.84-1l-6.39-1.77c-.61-.17-1.71.72-.84 1z" transform="translate(-64.96 -90.02)"/><path class="cls-1" d="M1006.25 210.53a68 68 0 0 0-7.06-15.79c-10.26-16.89-27.29-26.36-47-26.57-16.13.09-32.65 2.28-47.44 9.05-4.61 2.11-9.58 4.66-13.4 8.17-7.09-12.3-19.46-23.86-34.16-24.23a.83.83 0 0 0-.8.6c-1.52 8.13-4.58 28.49 4.69 33.66-9.26 4.55-6 24.6-4.46 32.33a1.5 1.5 0 0 0 1.46 1c13.92-.46 25.57-14.45 32.83-25.73a80.13 80.13 0 0 0 14.19 25.25c13.86 16.85 34.11 23.88 55.59 20.45a61.8 61.8 0 0 0 34.19-17.28c.77-.77 0-1.74-.9-1.94-6.18-1.53-13.15-5.41-15.19-11.69 5.14 4.74 15.13 6.61 20.74 7.43a1 1 0 0 0 1-.35c3.13-4.38 7.34-8.89 5.72-14.36z" transform="translate(-64.96 -90.02)"/><path class="cls-2" d="M1060.72 111.72c-15.35-9.08-35.25-12.34-52.87-12.29-13.15 0-26.45 2.5-38.32 8.31-4.84 2.36-10 5.32-13.95 9.15-4.16-11.53-12.46-24-24.89-26.81-.42-.1-1.88-.21-1.88.55 0 8.25 1.19 22.42 9.42 27-9.08 1.44-15.28 12.61-18.47 20.31-.21.5.53.71.88.77 11 1.73 22.26-4.93 30.55-12.1.6 5.11 4.68 10.18 8 13.46 6.07 6.06 13.85 10.34 21.64 13.75a168.51 168.51 0 0 0 42 12.09c14.3 2.15 28.88-.31 41.19-8 .56-.35.36-.84-.26-1-6.24-1.4-24.2-5.88-24.06-15.5a66.16 66.16 0 0 0 20.18 10.06c2.61.75 7.78 2.59 10.42 1.6 1.93-.73 3.77-3.31 5.07-5a.52.52 0 0 0 .12-.15.29.29 0 0 0 .06-.14c6.53-14.16-2.55-28.78-14.83-36.06z" transform="translate(-64.96 -90.02)"/><path class="cls-4" d="M941.57 206c1.24-.12 1.65-1.81.17-1.66-5.12.51-7.52 7.73-3.81 10.3-4.73 2.42-6.23 9.53-1.24 11.57-4 3-4.42 10.82 1.34 11.53 1.11.14 2.2-1.46.74-1.64-4.25-.53-3.57-8.94.57-9.35.92-.09 1.85-1.55.46-1.65-6.4-.47-4.68-9.18.77-9.6 1-.07 1.83-1.49.46-1.65-4.03-.5-3.38-7.48.54-7.85zm22.54 22.59c-3.36-.33-6-7.49-1.5-8 .83-.1 1.91-1.36.5-1.47-4.81-.37-8.55-9.28-1.73-9.78.87-.06 1.88-1.34.5-1.47-3.9-.38-5.85-9-1.53-9.53 1.16-.14 1.71-1.65.23-1.47-5.86.73-6.13 9.1-1.78 11.72-4.8 2.36-3.79 9.62 1.43 11.55-3.54 2.65-2.21 9.43 3.1 10 .99.02 2.25-1.4.78-1.55z" transform="translate(-64.96 -90.02)"/><path class="cls-1" d="M954.17 205.91s-1.25 4.25-4 4.25-7-11-17.75-10.5c0 0-3.5 10.75 0 17.75 0 0 8.25 4.25 17.5-3 0 0 4.25-.75 4.25 4.25" transform="translate(-64.96 -90.02)"/><path class="cls-4" d="M943.59 205.46c1.48 1.47 2.77 3.62 4.56 4.74 3.25 2 6.18-1.53 7.11-4.41.26-.83-1.93-.55-2.18.24a6.69 6.69 0 0 1-1.13 2.3c-1.69 1.87-1.61.95-2.89 0-1.53-1.14-2.67-3-4.07-4.35a17 17 0 0 0-12.16-5c-.54 0-1.31.19-1.5.79-1.45 4.57-3.82 15.83 1.28 18.61 2.73 1.49 7.1 1.08 10 .38a30.56 30.56 0 0 0 6.73-3c2.31-1.19 3.59.51 3.79 3.21.06.79 2.24.31 2.17-.58-.19-2.6-1.45-4.65-4.26-4.66a4.62 4.62 0 0 0-1.76.33c-1.66.58-3.17 2.19-4.88 2.87a14.9 14.9 0 0 1-6.23 1c-1 0-3.69-.16-4.62-1-1.4-1.25-1.44-4.91-1.5-6.67a32.15 32.15 0 0 1 1.27-9.9 16 16 0 0 1 10.27 5.1zm-15.73-17.91c1.09-.11 1.78-1.43.28-1.28-5.19.52-7.73 7.88-3.57 10.17-5 2.3-6.71 9.67-1.2 11.49-4.2 2.74-4.93 10.65 1 11.38.88.11 2.28-1.12.83-1.3-4.18-.52-3.73-9.3.48-9.71.77-.08 1.94-1.19.55-1.29-6.2-.45-5.06-9.52.67-10 .8-.06 1.91-1.13.55-1.29-4.04-.44-3.66-7.72.41-8.17z" transform="translate(-64.96 -90.02)"/><path class="cls-4" d="M920.41 225c-3.54-.28-5.82-7.84-1.56-8.26.75-.07 1.95-1.15.56-1.24-5.08-.33-8.38-9.6-1.79-10 1.09-.07 1.79-1.32.29-1.23-7.88.48-7.47 10.08-1.25 12.13-3.69 2.5-2.46 9.44 2.91 9.87.86.09 2.31-1.12.84-1.27z" transform="translate(-64.96 -90.02)"/><circle class="cls-5" cx="921.11" cy="112.06" r="1.17"/><path class="cls-4" d="M988.5 202.74c-.2-3.67-6.41-2.88-6.41.51 0 3.71 6.23 3 6.41-.35v-.16zm-3 1.78a1.73 1.73 0 0 1-1.23-1.7c0-.57.31-1.44.92-1.23a1.8 1.8 0 0 1 1.13 1.68c-.05.52-.32 1.33-.82 1.25zm-38.14 6l-8.75-3.67c-.71-.3-2.67.71-1.71 1.11l8.75 3.67c.71.3 2.67-.71 1.71-1.11zm-1.68 1.61l-11 .92c-1.21.1-1.68 1.69-.2 1.57l11-.92c1.21-.1 1.68-1.69.2-1.57z" transform="translate(-64.96 -90.02)"/><path class="cls-6" d="M1054.52 284.14c-.67-3.23-2.75-6.65-4.27-9.53-5.65-10.69-13.8-20.77-25-26a40.76 40.76 0 0 0-38.36 2.49c-10.81 6.8-17.77 18.28-22.35 29.92a108.64 108.64 0 0 0-5.9 20.37c-3.79-8.89-11.5-15.76-21.86-14.62-.45 0-1.47.43-1.34 1.06 1.63 7.86 5.64 21.86 14.76 23.83-7.65 4.16-8.42 16.07-7.82 24 0 .4.82.41 1.06.37 9.95-1.8 14.65-11.37 15.81-20.69 6.79 7.49 17.61 11.9 27.11 13.68 21.86 4.11 44.89-2 58.29-20.42.35-.48-.33-.75-.69-.76-8.69-.27-16-5.67-19.83-13.17A31.62 31.62 0 0 0 1032 297a79 79 0 0 0 17.32 1.29c.48 0 1.36-.18 1.58-.71 1.58-3.82 4.49-9.25 3.62-13.44z" transform="translate(-64.96 -90.02)"/><path class="cls-7" d="M1000.49 316.95c-3.55 0-3.84-9-.62-9.89 1.1-.29 1.17-1.68-.12-1.61-4.74.24-5-7.28-1.72-9.59a4.71 4.71 0 0 0 .48 0 1.13 1.13 0 0 0 1.12-.77c.75-.44.6-1.46-.49-1.46-3.43 0-3.37-7.54-.43-8.33 1.35-.36.93-1.92-.42-1.56a4.74 4.74 0 0 0-1.82.95c-4.34.12-7.87-8.8-2.56-10.07 1.1-.26 1.2-1.44-.07-1.42-3.31.07-5.78-8.82-2.4-9.84 1.31-.39 1-1.76-.37-1.36-5.14 1.54-3.95 10 .36 12.17-4.18 2.89-2.08 10.26 2.82 11.73-2.47 2.49-1.34 7.53 1.79 9.31-3.38 3.23-3.18 10 1.23 11.55-3.31 3.44-2.21 11.75 3 11.8 1.31.06 1.73-1.56.22-1.61zm-16.49-.49c-3.22.12-6-7.58-2.5-8.52 1-.27 1.29-1.25 0-1.17-4.55.26-7.84-9.17-2.67-10.32 1.33-.29 1-1.41-.3-1.12a5.3 5.3 0 0 0-4.35 6c-2.54-1.57-4.13-7.31-1.15-8.11 1-.27 1.29-1.25 0-1.17-4.55.26-7.84-9.17-2.67-10.32 1.33-.29 1-1.41-.3-1.12-6.9 1.53-4.88 11.06.84 12.49-3.09 2.87-1.08 9.89 3.63 9.89a7.12 7.12 0 0 0 4.85 4.85c-3.13 2.9-1 10.07 3.79 9.89.83-.04 2.28-1.32.83-1.27z" transform="translate(-64.96 -90.02)"/><path class="cls-6" d="M1009.12 283.86s-.83 4.6-4 5-9.71-10.23-22.07-8c0 0-2.48 11.69 2.6 18.36 0 0 10.17 3 19.81-6 0 0 4.81-1.47 5.54 3.7" transform="translate(-64.96 -90.02)"/><path class="cls-7" d="M1014.95 308.84c-3.44.23-4.77-10.53-1.52-11.83.93-.37 1.34-1.61 0-1.42-5.38.75-5.7-10.6-1.41-12.16 1-.36 1.3-1.52 0-1.42-3.39.25-4.25-8.84-1.22-10 1.26-.5 1-1.87-.31-1.35-4.66 1.86-4.84 10.82-.64 12.59-4.16 3.64-3.79 12.78 1.44 13.83-3.39 4-2 13.65 3.42 13.29 1.07-.12 1.74-1.63.24-1.53zM1003.37 296h-.07c-.15.13-.16.14.07 0z" transform="translate(-64.96 -90.02)"/><path class="cls-7" d="M1006.47 292.52a6 6 0 0 0-1.81.53c-2.26 1-4.09 3.32-6.49 4.38a19.81 19.81 0 0 1-5.57 1.57c-1.52.19-4.3.57-5.72-.17-1.79-.92-2.61-4.79-3-6.71a30.32 30.32 0 0 1 .12-10.62 19.64 19.64 0 0 1 13.08 3.58c1.94 1.29 4 3.68 6.34 4.29 3.6 1 6.13-2.45 6.78-5.63.18-.89-2-.56-2.18.24a6.87 6.87 0 0 1-1 2.59c-2.12 2.75-2.32 1.34-4 .52s-3.4-2.6-5.12-3.67a21.24 21.24 0 0 0-14.77-3.12c-.43.06-1.12.28-1.22.78-1 5-1.88 16.8 3.84 19.05 3 1.17 7.49.24 10.39-.63a23.56 23.56 0 0 0 7.12-3.47c.53-.41 2.94-2.26 2.42-2.11 2.48-.7 3.71 1.41 4.18 3.42.19.82 2.37.26 2.17-.58-.63-2.85-2.51-4.65-5.56-4.24z" transform="translate(-64.96 -90.02)"/><ellipse class="cls-5" cx="1035.36" cy="276.1" rx=".99" ry="1.22" transform="rotate(-8.1 362.203 693.157)"/><path class="cls-7" d="M1037.35 276.74a2.43 2.43 0 0 0-2.91-2.11 2.62 2.62 0 0 0-2.1 3 2.42 2.42 0 0 0 2.81 2.12 2.65 2.65 0 0 0 2.2-3.01zm-2.43 2.18a2 2 0 0 1-1.13-1.67c-.08-.56.11-2.06 1-1.79.69.21 1 1 1.13 1.68s-.11 2.05-1 1.77zm-35.24 9.88l-7.89-2.8c-.76-.26-2.54.84-1.31 1.27l7.89 2.75c.76.26 2.54-.84 1.31-1.27zm.32 2.58l-9.15 2.26c-1.35.33-1 1.8.39 1.46l9.15-2.26c1.35-.33 1-1.8-.39-1.46z" transform="translate(-64.96 -90.02)"/><path class="cls-8" d="M1016.91 136.7c-1.91-.22-4.36 0-5.64 1.65a2.68 2.68 0 0 0 .41 4 6.22 6.22 0 0 0-3.55 1.72c-2 2.12-.81 4 1.16 5.06a4.57 4.57 0 0 0-2.4 1.55 3.39 3.39 0 0 0 1.78 5.5c.48.14 2.38-.64 1.79-.82-2.74-.83-3.1-6 .36-5.65.4 0 2.43-.65 1.79-.82-1.34-.34-3-.95-3.29-2.48-.47-2.14 1.61-3.59 3.84-3.29.39.05 2.44-.63 1.79-.82-2.51-.74-3.28-5.15.16-4.75.51.03 2.33-.78 1.8-.85zm14.09-25.01c1 .09 2.23-1.4.77-1.53-4.61-.4-6.33 4.48-3.66 7-3.39 1.18-3.58 5.31-.14 7.37-2.53 1.59-2.32 5.59 1.75 6.73.9.25 2.57-1.06 1.27-1.43a3.2 3.2 0 0 1-2.46-1.8c-.45-1.17-.12-2.79 1.73-2.62.74.07 2.31-1.14 1-1.48-3.35-.87-6.07-6.23-.71-5.5.77.1 2.28-1.12 1-1.48a3.23 3.23 0 0 1-2.66-2.36c-.3-1.22.35-3.05 2.11-2.9zm-44.88 13.12c-6.35-2.1-10 6.18-6 10.12-3.46 1.57-4.89 7.37-.87 9.46.82.43 2.73-.69 1.68-1.24-2.42-1.26-2.45-8 1-7 .64.18 2.57-.8 1.47-1.34-3.69-1.8-3.81-10.29 1.42-8.56.95.3 2.59-1.01 1.3-1.44z" transform="translate(-64.96 -90.02)"/><path class="cls-2" d="M1032.18 134.46a8.5 8.5 0 0 1-7.62 2.14c-4.77-.93-10.37-11.41-29.08-14.64 0 0-7.79 7.65-2.85 14.59a57.85 57.85 0 0 0 30.81 3.46s7.49.82 6.68 4.93" transform="translate(-64.96 -90.02)"/><path class="cls-8" d="M999.62 123.64a44.76 44.76 0 0 1 8.75 3.34 68.26 68.26 0 0 1 10.86 7.51c4.14 3.24 9.66 4.36 13.84.19.92-.91-1.2-1-1.76-.44-4.12 4.12-8.51.59-11.85-2.08a55 55 0 0 0-9.92-6.57 46.21 46.21 0 0 0-7.14-2.8c-1.77-.53-5-1.91-6.77-1.49-1.94.46-3.37 3.24-4.19 4.82-1.46 2.83-2.76 8.47.28 10.93 1.43 1.16 4.29 1.64 6 2.11a60.73 60.73 0 0 0 16.55 2.25c3.28 0 15.14-2.77 14.82 3.66 0 1 2.14.56 2.18-.24.16-3.18-2.7-4.5-5.45-5.14-4.94-1.15-10.41.62-15.54.21-4.61-.37-11.34-.91-15.49-3.38-4.4-2.62-2.49-8.84 0-12.36 1.84-2.65 1.69-1.37 4.83-.52z" transform="translate(-64.96 -90.02)"/><ellipse class="cls-5" cx="1060.03" cy="133.12" rx="1.22" ry=".99" transform="rotate(-78.95 972.943 127.528)"/><path class="cls-8" d="M1036.76 127.5c-4.18-.07-7.62 5.18-4.66 7.6-4 1.65-6.12 6.6-2.05 8.64-3.41 2.1-4.83 7.56 0 8.81.88.23 2.57-1.07 1.27-1.4-3.08-.8-2.71-6.8.87-6.73.66 0 2.35-1.18 1-1.45-4.12-.86-4.66-7.12 1.06-6.9.68 0 2.35-1.11 1-1.45-2.64-.69-3.13-5.66.71-5.6 1.04-.02 2.26-1.49.8-1.52z" transform="translate(-64.96 -90.02)"/><path class="cls-7" d="M1059.69 131.37a3 3 0 0 0-3 2.35 2.27 2.27 0 0 0 1.91 2.85 3 3 0 0 0 3.07-2.35c.21-1.36-.46-2.79-1.98-2.85zm-1 4.13a2.09 2.09 0 0 1-.56-2c.14-.73.72-1.76 1.53-1.08a2.12 2.12 0 0 1 .56 2c-.16.7-.69 1.77-1.52 1.07z" transform="translate(-64.96 -90.02)"/><path class="cls-8" d="M1012.35 132.61L999.92 128c-.73-.27-2.56.95-1.56 1.33l12.42 4.63c.73.27 2.56-.95 1.56-1.33zm2.59 3.5L999 134c-1.06-.14-2.22 1.36-.76 1.56l15.91 2.13c1.06.14 2.22-1.36.76-1.56zm-29.28-26.24c-6.38-2.11-10.5 6.15-6 10-3.51 1.46-5.11 7.16-1.06 9.27.61.32 2.61-.58 1.73-1a3.42 3.42 0 0 1-1.94-3.46c0-1.3.91-4.33 2.87-3.79.49.13 2.45-.65 1.54-1.1-3.58-1.75-3.94-10.54 1.16-8.86.61.19 2.58-.77 1.7-1.06z" transform="translate(-64.96 -90.02)"/><path class="cls-9" d="M1186.44 185.48c.13-.6-.41-2-1.18-2-9.14.31-16.86 9-21.8 16.19-5.83-11.14-20.1-16.24-31.83-16.73-12.61-.53-34.3 1.16-38.54 16.26-1.24 4.42.37 8 2.25 12.17.15.34.54.85 1 .86 3.29.12 9.16.26 12.79-1.68-1.88 3.74-6.31 5.61-10.67 5.77-.81 0-.19 1.42 0 1.72 8.94 12.83 28.91 18.36 43.28 12.38 8.53-3.55 16.09-10.93 20.51-19.12 3.34 9.37 10 20.1 20.33 21.48.3 0 .4-.35.39-.56a81.71 81.71 0 0 0-2.1-15.54c-.82-3.39-2.08-8.24-4.86-11 6.46-2.18 9.31-14.9 10.43-20.2z" transform="translate(-64.96 -90.02)"/><path class="cls-10" d="M1133.76 193.06c3.27-.34 3.07 4.79.33 5.43-1.06.25-1.24 1.41 0 1.33 1.94-.12 2.06 3.93.3 4.38-1.33.34-1 1.61.34 1.27 3.28-.83 4-5.26 1.57-6.63 3-2.33 2.58-7.67-2.34-7.16-1.09.11-1.7 1.53-.2 1.38zm2.82 18.66c-.63-.49-2.61.43-1.71 1.13 1.51 1.17 0 5.15-2.06 4.3-.61-.26-2.72.43-1.71 1.13 1.92 1.32 1.56 6.06-2.23 4.37-.62-.28-2.68.38-1.71 1.13 1.27 1 .52 4.41-1.6 3.53-.72-.3-2.68.72-1.71 1.13 2.86 1.19 7.08-1.67 6.14-4.32 3.08-.46 5.85-3.3 4-5.8 3.01-.97 5.43-4.4 2.59-6.6zm-16.9-10.28c2.72-2 1.37-5.88-2-6.62 2-2 0-5.8-3.35-5.57-1 .07-1.83 1.24-.32 1.13 1.87-.13 3.53 3.74 1.41 4.48-1 .35-.68 1.06.26 1 2.43-.22 5.43 4.38 2 5.39-1 .28-1.34 1.17 0 1.07 2.12-.16 3.74 4.61 1.59 5.36-1.44.5-.12 1.16.84.82 3.62-1.27 2.52-5.91-.43-7.06zm37.55 2.64c2.22-1.49 2.74-5.07-.53-6.14-.64-.21-2.6.75-1.73 1 1.33.44 3.16 4.65.82 4.57-.53 0-2.31.83-1.1 1.18 1.79.52 4.28 5.93.8 5.59-.4 0-2.51.78-1.54 1.09a2.54 2.54 0 0 1 1.85 2.47c.07.65-.15 3-1.18 3-.81 0-2.32 1.16-.85 1.2 3.66.11 5.7-4.95 3.11-7 2.83-1.37 3.45-5.25.35-6.96z" transform="translate(-64.96 -90.02)"/><path class="cls-9" d="M1124.88 203.27s.18 5.54 2.78 6 9.24-12.49 19.3-9.94c0 0 .77 14.07-4.21 22.19 0 0-8.82 3.83-15.86-6.89 0 0-3.85-1.7-5 4.55" transform="translate(-64.96 -90.02)"/><path class="cls-10" d="M1123.8 203.56c.2 4.18 2.46 8.26 6.55 5.07 3.26-2.54 5.52-6.13 9.43-7.9.84-.38 5.39-2 6.1-1 .2.28 0 1.24 0 1.54.38 1.7-.08 3.95-.23 5.67a48.28 48.28 0 0 1-1.19 7.51c-.42 1.69-1.12 5.53-2.33 6.64-3.22 3-10.29-2.1-12.22-4.2-1.79-1.95-2-3.54-4.75-3s-3.81 3-4.43 5.46c-.22.87 2 .56 2.18-.24a4.59 4.59 0 0 1 3-3.89 22.64 22.64 0 0 0 2 2.59 17.88 17.88 0 0 0 2.24 2.1 13.91 13.91 0 0 0 6.18 2.81c1.78.31 5.16.5 6.81-.63 3-2.08 3.9-9.09 4.36-12.33a56.74 56.74 0 0 0 .52-10.66c0-.17-.3-.31-.43-.34-5-1-9.32.75-13.18 3.93-1.59 1.31-3.74 4.66-5.61 5.33-2.31.83-2.75-2.92-2.85-5 0-.78-2.22-.32-2.17.58zm28.08 3.32c-.67-.17-2.55.85-1.34 1.16 2.84.72 2.41 5.69-.63 5.32-.58-.07-2.62.78-1.34 1.16 1.66.48 1.53 4.51-.31 4.31-.66-.07-2.54 1-1.34 1.16a4.3 4.3 0 0 0 4.66-2.36 3.21 3.21 0 0 0-.29-3.36 4.88 4.88 0 0 0 2.94-2.45c1.16-2.31.03-4.34-2.35-4.94z" transform="translate(-64.96 -90.02)"/><circle class="cls-5" cx="1106.23" cy="199.62" r=".7" transform="rotate(-79.26 1019.39 193.84)"/><path class="cls-10" d="M1104.61 200.12c-.32 2.37 3.54 2.33 3.94.29.45-2.35-3.45-2.28-3.94-.29zm2.49.47a.93.93 0 0 1-.24.48v.05a.52.52 0 0 1-.22-.07 1.06 1.06 0 0 1-.54-1.12.81.81 0 0 1 .27-.51.6.6 0 0 1 .27.1 1.07 1.07 0 0 1 .46 1.08zm23.64 11.41l12.72-.57c1.21-.05 1.7-1.6.21-1.53l-12.72.57c-1.21.05-1.7 1.6-.21 1.53zm-.55 3.11l6.39 1.77a1.53 1.53 0 0 0 1.54-.41.6.6 0 0 0-.27-1l-6.39-1.77a1.53 1.53 0 0 0-1.54.41.6.6 0 0 0 .27 1z" transform="translate(-64.96 -90.02)"/></svg>