<svg viewBox="0 0 463 323" xmlns="http://www.w3.org/2000/svg" xmlns:xlink="http://www.w3.org/1999/xlink">
    <path d="M190.623171,159 L209.927637,162.938156 L232.138053,263.771819 C229.311777,268.485543 225.349448,270.842405 220.251067,270.842405 C215.152686,270.842405 204.40233,270.842405 188,270.842405 C191.213705,263.730295 197.272217,259.031987 206.175537,256.747482 C215.078858,254.462977 221.028972,255.491704 224.025879,259.833664 L190.623171,159 Z M230,165 L246.173901,165 L238.086951,265.718448 C243.996798,261.99113 249.926437,260.127471 255.875867,260.127471 C261.825298,260.127471 268.679876,264.033339 276.439601,271.845076 C250.871168,271.845076 238.086951,271.845076 238.086951,271.845076 C238.086951,271.845076 232.658046,271.309426 232.658046,265.718448 C232.658046,261.99113 231.77203,228.418314 230,165 Z" fill="#9B9B9B"></path>
    <path d="M196,156 L242,156 L240.901797,159.024037 C240.471024,160.210224 239.343968,161 238.081984,161 L199.918016,161 C198.656032,161 197.528976,160.210224 197.098203,159.024037 L196,156 Z" fill="#979797"></path>
    <path d="M336.660293,175.438705 C335.90981,182.579075 329.513009,187.759103 322.372638,187.008619 L107.555909,164.430471 C100.415538,163.679988 95.2355112,157.283187 95.9859944,150.142817 L98.3576134,127.578369 C73.3649213,75.4147639 60.4382126,48.3945595 59.5774875,46.5177557 C58.2744949,43.6765915 57.0781152,44.855535 56.6515074,48.914437 C56.2248997,52.973339 51.2630667,55.8163645 50.7474518,60.722113 C50.2318369,65.6278615 46.3835866,68.2567963 44.4731956,65.8903278 C42.5628045,63.5238592 48.1639511,51.3177598 47.966311,53.1981798 C47.7686709,55.0785998 31.9800709,58.7495818 29.9225671,58.5333294 C28.5508978,58.3891611 23.2985339,62.1467813 14.1654752,69.80619 C12.4774849,72.249969 11.8425859,71.4824413 12.2607783,67.5036069 C12.6789706,63.5247725 16.0262785,60.26772 22.3027018,57.7324493 C28.0599624,56.0242222 28.7761773,55.250684 24.4513464,55.4118348 C20.1265156,55.5729855 14.5222314,55.8327669 7.6384939,56.1911789 L0.942890757,57.3527389 C-0.0361183797,56.7390153 0.116757089,55.2845024 1.40151716,52.9892001 C2.68627724,50.6938978 9.31031026,50.4550262 21.2736162,52.2725853 C21.0147183,51.2982556 20.1370894,50.2793478 18.6407296,49.2158618 C17.1443698,48.1523758 14.7780596,46.8657659 11.5417988,45.3560323 L6.41755479,43.6346358 C5.95338093,40.6890044 6.4915795,39.297149 8.0321505,39.4590696 C9.5727215,39.6209901 12.5339705,41.0138565 16.9158976,43.6376687 C20.6620899,45.8403967 22.7741612,47.5276471 23.2521115,48.6994199 C23.9043262,50.2984303 24.4498823,51.7882013 25.628881,51.4606643 C26.2380227,51.291439 25.6520702,50.7242373 28.1736397,49.2166934 C39.0428629,42.7184268 46.7576093,37.3219962 53.2054682,37.3356491 C55.9849251,37.3415344 57.9067295,36.9717973 61.4703483,39.5639639 C68.7893983,44.8878209 82.0386565,65.1539789 101.218123,100.362438 L110.515451,11.9042733 C111.265934,4.76390269 117.662735,-0.416124525 124.803105,0.334358666 C131.710312,1.06033533 136.890717,1.60481783 140.34432,1.96780617 C184.627768,6.62218407 251.052939,13.6037509 339.619835,22.9125067 C346.760205,23.6629899 351.940233,30.0597908 351.189749,37.2001614 L341.137449,132.841414 C348.926951,122.760797 355.621336,114.867823 361.220603,109.162493 C370.280708,99.9307683 382.854799,89.7118998 394.300214,82.7811493 C400.79437,78.8486241 405.616322,75.2655421 412.483752,75.2867044 C424.316923,75.3231687 423.327472,76.6555521 426.613689,81.3114535 C429.899906,85.9673549 426.956186,94.9881109 428.783746,97.4337279 C430.611305,99.879345 435.242069,96.792458 437.763401,96.2318597 C443.536335,94.9482931 444.47261,92.5297572 446.731676,92.7671946 C448.308108,92.9328843 449.184256,97.9895386 442.686678,99.9511594 C438.354959,101.258907 433.54985,102.0448 428.271351,102.308839 C434.789032,103.070008 439.438195,103.767851 442.218837,104.402367 C446.389801,105.354142 448.507675,103.573306 448.565646,105.069444 C448.623617,106.565582 448.23025,110.308218 442.424026,109.697959 C438.553211,109.29112 433.750435,107.638868 428.015699,104.741203 C431.633321,114.263379 431.897111,119.770066 428.807069,121.261265 C424.172006,123.498062 427.523223,117.138095 425.597948,112.413908 C424.796817,110.448116 423.835493,107.744226 418.949166,101.956626 C417.311074,100.016392 416.456623,95.8900884 416.385814,89.577716 L412.274088,100.627459 C407.982604,102.351437 405.949916,102.137793 406.176023,99.9865266 C406.32044,98.6124904 412.250534,91.2472533 413.71965,86.8738582 C414.273658,85.2246361 413.608824,83.768131 411.725148,82.5043427 C396.609794,91.8883023 383.737994,101.888612 373.109749,112.505271 C363.804108,121.800768 352.435306,135.347709 339.003341,153.146094 L336.660293,175.438705 Z" fill="#2F3031"></path>
    <rect stroke="#979797" fill="#FFFFFF" transform="translate(224.660039, 88.253883) rotate(6.000000) translate(-224.660039, -88.253883) " x="114.660039" y="23.7538829" width="220" height="129"></rect>
    <path d="M122.004717,12.6090897 L121.063961,21.5597867 L339.858778,44.5560486 L340.799534,35.6053516 L122.004717,12.6090897 Z" stroke="#979797" fill="#FFFFFF"></path>
    <polygon fill="#465460" points="120.618964 21.0102615 340.408303 44.1110519 339.363018 54.0562709 119.573679 30.9554805"></polygon>
    <path d="M143.179382,26.3979819 L157.102689,27.8613804 C158.201207,27.9768393 158.998134,28.9609625 158.882676,30.0594811 L158.255505,36.0266125 L140.354111,34.1451001 L140.981281,28.1779687 C141.09674,27.0794502 142.080864,26.2825229 143.179382,26.3979819 Z" fill="#FFFFFF"></path>
    <path d="M162.075298,28.3840227 L175.998605,29.8474212 C177.097123,29.9628801 177.89405,30.9470033 177.778592,32.0455219 L177.255949,37.0181314 L159.354555,35.136619 L159.877197,30.1640095 C159.992656,29.065491 160.97678,28.2685637 162.075298,28.3840227 Z" fill="#D8D8D8"></path>
    <rect stroke="#FFFFFF" fill="#D2D3D5" transform="translate(139.165737, 46.348603) rotate(6.000000) translate(-139.165737, -46.348603) " x="136.384487" y="43.5877333" width="5.5625" height="5.52173913"></rect>
    <rect stroke="#FFFFFF" fill="#D2D3D5" transform="translate(150.913527, 47.583345) rotate(6.000000) translate(-150.913527, -47.583345) " x="148.132277" y="44.8224758" width="5.5625" height="5.52173913"></rect>
    <rect stroke="#FFFFFF" fill="#D2D3D5" transform="translate(133.291842, 45.731232) rotate(6.000000) translate(-133.291842, -45.731232) " x="130.510592" y="42.9703621" width="5.5625" height="5.52173913"></rect>
    <rect stroke="#FFFFFF" fill="#D2D3D5" transform="translate(145.039632, 46.965974) rotate(6.000000) translate(-145.039632, -46.965974) " x="142.258382" y="44.2051046" width="5.5625" height="5.52173913"></rect>
    <rect stroke="#FFFFFF" fill="#D2D3D5" transform="translate(156.787422, 48.200717) rotate(6.000000) translate(-156.787422, -48.200717) " x="154.006172" y="45.439847" width="5.5625" height="5.52173913"></rect>
    <rect stroke="#FFFFFF" fill="#D2D3D5" transform="translate(162.661317, 48.818088) rotate(6.000000) translate(-162.661317, -48.818088) " x="159.880067" y="46.0572183" width="5.5625" height="5.52173913"></rect>
    <rect stroke="#FFFFFF" fill="#D2D3D5" transform="translate(126.804411, 50.951272) rotate(6.000000) translate(-126.804411, -50.951272) " x="124.023161" y="48.190402" width="5.5625" height="5.52173913"></rect>
    <rect stroke="#FFFFFF" fill="#D2D3D5" transform="translate(138.552201, 52.186014) rotate(6.000000) translate(-138.552201, -52.186014) " x="135.770951" y="49.4251445" width="5.5625" height="5.52173913"></rect>
    <rect stroke="#FFFFFF" fill="#D2D3D5" transform="translate(137.938664, 58.023425) rotate(6.000000) translate(-137.938664, -58.023425) " x="135.157414" y="55.2625556" width="5.5625" height="5.52173913"></rect>
    <rect stroke="#FFFFFF" fill="#D2D3D5" transform="translate(137.325127, 63.860836) rotate(6.000000) translate(-137.325127, -63.860836) " x="134.543877" y="61.0999667" width="5.5625" height="5.52173913"></rect>
    <rect stroke="#FFFFFF" fill="#D2D3D5" transform="translate(136.711591, 69.698247) rotate(6.000000) translate(-136.711591, -69.698247) " x="133.930341" y="66.9373778" width="5.5625" height="5.52173913"></rect>
    <rect stroke="#FFFFFF" fill="#D2D3D5" transform="translate(150.299990, 53.420756) rotate(6.000000) translate(-150.299990, -53.420756) " x="147.51874" y="50.6598869" width="5.5625" height="5.52173913"></rect>
    <rect stroke="#FFFFFF" fill="#D2D3D5" transform="translate(149.686454, 59.258168) rotate(6.000000) translate(-149.686454, -59.258168) " x="146.905204" y="56.4972981" width="5.5625" height="5.52173913"></rect>
    <rect stroke="#FFFFFF" fill="#D2D3D5" transform="translate(149.072917, 65.095579) rotate(6.000000) translate(-149.072917, -65.095579) " x="146.291667" y="62.3347092" width="5.5625" height="5.52173913"></rect>
    <rect stroke="#FFFFFF" fill="#D2D3D5" transform="translate(126.190874, 56.788683) rotate(6.000000) translate(-126.190874, -56.788683) " x="123.409624" y="54.0278131" width="5.5625" height="5.52173913"></rect>
    <rect stroke="#FFFFFF" fill="#D2D3D5" transform="translate(125.577337, 62.626094) rotate(6.000000) translate(-125.577337, -62.626094) " x="122.796087" y="59.8652242" width="5.5625" height="5.52173913"></rect>
    <rect stroke="#FFFFFF" fill="#D2D3D5" transform="translate(124.963801, 68.463505) rotate(6.000000) translate(-124.963801, -68.463505) " x="122.182551" y="65.7026354" width="5.5625" height="5.52173913"></rect>
    <rect stroke="#FFFFFF" fill="#D2D3D5" transform="translate(132.678306, 51.568643) rotate(6.000000) translate(-132.678306, -51.568643) " x="129.897056" y="48.8077732" width="5.5625" height="5.52173913"></rect>
    <rect stroke="#FFFFFF" fill="#D2D3D5" transform="translate(132.064769, 57.406054) rotate(6.000000) translate(-132.064769, -57.406054) " x="129.283519" y="54.6451844" width="5.5625" height="5.52173913"></rect>
    <rect stroke="#FFFFFF" fill="#D2D3D5" transform="translate(131.451232, 63.243465) rotate(6.000000) translate(-131.451232, -63.243465) " x="128.669982" y="60.4825955" width="5.5625" height="5.52173913"></rect>
    <rect stroke="#FFFFFF" fill="#D2D3D5" transform="translate(130.837696, 69.080876) rotate(6.000000) translate(-130.837696, -69.080876) " x="128.056446" y="66.3200066" width="5.5625" height="5.52173913"></rect>
    <rect stroke="#FFFFFF" fill="#D2D3D5" transform="translate(144.426096, 52.803385) rotate(6.000000) translate(-144.426096, -52.803385) " x="141.644846" y="50.0425157" width="5.5625" height="5.52173913"></rect>
    <rect stroke="#FFFFFF" fill="#D2D3D5" transform="translate(143.812559, 58.640796) rotate(6.000000) translate(-143.812559, -58.640796) " x="141.031309" y="55.8799268" width="5.5625" height="5.52173913"></rect>
    <rect stroke="#FFFFFF" fill="#D2D3D5" transform="translate(143.199022, 64.478208) rotate(6.000000) translate(-143.199022, -64.478208) " x="140.417772" y="61.7173379" width="5.5625" height="5.52173913"></rect>
    <rect stroke="#FFFFFF" fill="#D2D3D5" transform="translate(156.173885, 54.038128) rotate(6.000000) translate(-156.173885, -54.038128) " x="153.392635" y="51.2772582" width="5.5625" height="5.52173913"></rect>
    <rect stroke="#FFFFFF" fill="#D2D3D5" transform="translate(155.560349, 59.875539) rotate(6.000000) translate(-155.560349, -59.875539) " x="152.779099" y="57.1146693" width="5.5625" height="5.52173913"></rect>
    <rect stroke="#FFFFFF" fill="#D2D3D5" transform="translate(154.946812, 65.712950) rotate(6.000000) translate(-154.946812, -65.712950) " x="152.165562" y="62.9520804" width="5.5625" height="5.52173913"></rect>
    <rect stroke="#FFFFFF" fill="#D2D3D5" transform="translate(162.047780, 54.655499) rotate(6.000000) translate(-162.047780, -54.655499) " x="159.26653" y="51.8946294" width="5.5625" height="5.52173913"></rect>
    <rect stroke="#FFFFFF" fill="#D2D3D5" transform="translate(161.434244, 60.492910) rotate(6.000000) translate(-161.434244, -60.492910) " x="158.652994" y="57.7320405" width="5.5625" height="5.52173913"></rect>
    <rect stroke="#FFFFFF" fill="#D2D3D5" transform="translate(160.820707, 66.330321) rotate(6.000000) translate(-160.820707, -66.330321) " x="158.039457" y="63.5694517" width="5.5625" height="5.52173913"></rect>
    <path d="M167.3764,55.4630017 L167.3764,151.134235 L329.056562,151.134235 L329.056562,55.4630017 L167.3764,55.4630017 Z M166.716481,54.7986181 L329.716481,54.7986181 L329.716481,151.798618 L166.716481,151.798618 L166.716481,54.7986181 Z" fill="#D2D3D5" fill-rule="nonzero" transform="translate(248.216481, 103.298618) rotate(6.000000) translate(-248.216481, -103.298618) "></path>
    <rect fill="#ED8000" transform="translate(181.601388, 43.507905) rotate(6.000000) translate(-181.601388, -43.507905) " x="172.601388" y="40.5079051" width="18" height="6" rx="2"></rect>
    <path d="M194.772062,43.3696694 C194.417022,43.3696694 194.129205,43.6681463 194.129205,44.0363361 L194.129205,47.3696694 C194.129205,47.7378593 194.417022,48.0363361 194.772062,48.0363361 L210.200633,48.0363361 C210.555674,48.0363361 210.843491,47.7378593 210.843491,47.3696694 L210.843491,44.0363361 C210.843491,43.6681463 210.555674,43.3696694 210.200633,43.3696694 L194.772062,43.3696694 Z M194.772062,42.7030028 L210.200633,42.7030028 C210.910714,42.7030028 211.486348,43.2999564 211.486348,44.0363361 L211.486348,47.3696694 C211.486348,48.1060491 210.910714,48.7030028 210.200633,48.7030028 L194.772062,48.7030028 C194.061982,48.7030028 193.486348,48.1060491 193.486348,47.3696694 L193.486348,44.0363361 C193.486348,43.2999564 194.061982,42.7030028 194.772062,42.7030028 Z" fill="#979797" fill-rule="nonzero" transform="translate(202.486348, 45.703003) rotate(6.000000) translate(-202.486348, -45.703003) "></path>
    <path d="M305.136167,54.1457476 C303.867378,54.0123925 302.729624,54.9432329 302.594922,56.2248379 C302.46022,57.5064429 303.379579,58.6534946 304.648368,58.7868497 L331.56013,61.61539 C332.828919,61.748745 333.966673,60.8179046 334.101375,59.5362996 C334.236077,58.2546946 333.316718,57.1076429 332.04793,56.9742878 L305.136167,54.1457476 Z M305.205853,53.482733 L332.117615,56.3112732 C333.748915,56.4827297 334.930948,57.9575106 334.75776,59.6052884 C334.584571,61.2530662 333.121744,62.4498611 331.490444,62.2784045 L304.578682,59.4498643 C302.947382,59.2784078 301.765349,57.8036269 301.938537,56.1558491 C302.111726,54.5080713 303.574553,53.3112764 305.205853,53.482733 Z" fill="#979797" fill-rule="nonzero"></path>
    <polygon fill="#465460" points="311.20282 54.1130396 320.153517 55.0537958 319.526346 61.0209271 310.575649 60.080171"></polygon>
    <path d="M216.784957,54.4920124 L216.784957,150.492012 L255.784957,150.492012 L255.784957,54.4920124 L216.784957,54.4920124 Z M215.784957,53.4920124 L255.784957,53.4920124 L255.784957,150.492012 L215.784957,150.492012 L215.784957,53.4920124 Z" fill="#D2D3D5" fill-rule="nonzero" transform="translate(235.784957, 101.992012) rotate(6.000000) translate(-235.784957, -101.992012) "></path>
    <path d="M178.995864,50.4676665 L178.995864,146.467667 L216.995864,146.467667 L216.995864,50.4676665 L178.995864,50.4676665 Z M177.995864,49.4676665 L216.995864,49.4676665 L216.995864,146.467667 L177.995864,146.467667 L177.995864,49.4676665 Z" fill="#D2D3D5" fill-rule="nonzero" transform="translate(197.495864, 97.967667) rotate(6.000000) translate(-197.495864, -97.967667) "></path>
    <path d="M255.576789,58.464094 L255.576789,154.464094 L292.576789,154.464094 L292.576789,58.464094 L255.576789,58.464094 Z M254.576789,57.464094 L292.576789,57.464094 L292.576789,154.464094 L254.576789,154.464094 L254.576789,57.464094 Z" fill="#D2D3D5" fill-rule="nonzero" transform="translate(273.576789, 105.964094) rotate(6.000000) translate(-273.576789, -105.964094) "></path>
    <path d="M292.374099,62.3316471 L292.374099,158.331647 L329.374099,158.331647 L329.374099,62.3316471 L292.374099,62.3316471 Z M291.374099,61.3316471 L329.374099,61.3316471 L329.374099,158.331647 L291.374099,158.331647 L291.374099,61.3316471 Z" fill="#D2D3D5" fill-rule="nonzero" transform="translate(310.374099, 109.831647) rotate(6.000000) translate(-310.374099, -109.831647) "></path>
    <path d="M185.215127,56.959332 L218.03435,60.4087713 C219.132868,60.5242302 219.929796,61.5083535 219.814337,62.606872 L216.155841,97.4151384 C216.040382,98.5136569 215.056258,99.3105842 213.95774,99.1951252 L181.138517,95.7456859 C180.039999,95.630227 179.243071,94.6461038 179.35853,93.5475852 L183.017027,58.7393189 C183.132486,57.6408003 184.116609,56.8438731 185.215127,56.959332 Z" fill="#46B1E1"></path>
    <path d="M218.656494,121.810166 L252.433511,125.360274 C253.53203,125.475733 254.328957,126.459856 254.213498,127.558375 L252.477958,144.07094 C252.362499,145.169459 251.378375,145.966386 250.279857,145.850927 C250.160516,145.838384 250.042547,145.815126 249.927376,145.781434 L228.563296,139.531671 C228.158043,139.41312 227.800707,139.169353 227.542473,138.835287 L216.865077,125.022377 C216.18954,124.148463 216.350357,122.892386 217.22427,122.21685 C217.63155,121.902022 218.144539,121.756358 218.656494,121.810166 Z" fill="#46B1E1"></path>
    <path d="M253.786565,125.502486 L285.123151,128.796094 C286.22167,128.911552 287.018597,129.895676 286.903138,130.994194 C286.854724,131.454829 286.647932,131.88438 286.318066,132.20952 L274.07388,144.27825 C273.727814,144.619357 273.269399,144.822808 272.784276,144.850595 L251.951815,146.043822 C250.849053,146.106985 249.903884,145.264224 249.840721,144.161461 C249.834544,144.053623 249.837114,143.945461 249.848404,143.838037 L251.588464,127.282472 C251.703923,126.183954 252.688047,125.387027 253.786565,125.502486 Z" fill="#46B1E1"></path>
    <path d="M298.79968,66.886533 L330.624381,70.2314439 C331.7229,70.3469028 332.519827,71.331026 332.404368,72.4295446 L326.864359,125.139205 C326.7489,126.237724 325.764777,127.034651 324.666259,126.919192 L292.841558,123.574281 C291.743039,123.458822 290.946112,122.474699 291.061571,121.37618 L296.60158,68.6665199 C296.717039,67.5680013 297.701162,66.7710741 298.79968,66.886533 Z" fill="#46B1E1"></path>
    <path d="M231.444023,124.159698 L274.208465,128.654422 L269.742931,139.245667 C261.175747,140.244949 255.054836,140.55148 251.380199,140.16526 C247.705561,139.77904 241.714801,138.199521 233.407918,135.426703 L231.444023,124.159698 Z" fill="#FFFFFF"></path>
    <path d="M192.68736,80.8778016 C192.591016,81.7396852 191.638041,82.3426994 190.558831,82.2246714 C189.479622,82.1066434 188.682852,81.3122681 188.779196,80.4503844 C189.783888,71.4625309 193.263672,66.8548427 199.640748,67.5251004 C205.956176,68.1888786 208.672379,73.396073 208.334047,82.4291401 C208.30156,83.296487 207.397268,83.9453304 206.314254,83.8783725 C205.231239,83.8114145 204.379618,83.0540108 204.412104,82.1866639 C204.695387,74.6233719 202.813945,71.0164877 199.312469,70.6484677 C195.872641,70.2869273 193.523539,73.397445 192.68736,80.8778016 Z" fill="#2D3A45" fill-rule="nonzero"></path>
    <path d="M307.514718,95.0554054 C307.354612,95.8510014 306.417062,96.335413 305.420642,96.1373688 C304.424222,95.9393247 303.746255,95.1338203 303.906361,94.3382242 C305.575968,86.0416284 309.195637,82.0301138 315.085725,83.1750308 C320.918872,84.3088797 323.026248,89.3845873 321.974138,97.7776781 C321.873116,98.5835751 320.977211,99.1146794 319.973078,98.9639328 C318.968946,98.8131862 318.236831,98.0376733 318.337854,97.2317763 C319.218774,90.2043298 317.759051,86.688523 314.524967,86.0598807 C311.347823,85.4423066 308.904288,88.1503647 307.514718,95.0554054 Z" fill="#2D3A45" fill-rule="nonzero"></path>
    <path d="M61.0731996,147.478842 L370.369509,179.987194 L369.951395,183.965282 C369.43183,188.908616 365.003275,192.494788 360.059942,191.975223 L68.6650266,161.348383 C63.7216931,160.828818 60.1355204,156.400263 60.6550857,151.45693 L61.0731996,147.478842 Z" fill="#9B9B9B"></path>
</svg>
