<svg class="headphone-pulse" viewBox="0 0 24 24" xmlns="http://www.w3.org/2000/svg" xmlns:xlink="http://www.w3.org/1999/xlink">
  <polygon points="12.947 13.761 10.1566667 8.18033333 6.8145 13.75 5.5 13.75 5.5 15.5833333 7.85216667 15.5833333 10.01 11.98725 12.7196667 17.4056667 15.1570833 13.75 16.5 13.75 16.5 11.9166667 14.17625 11.9166667"></polygon>
  <path d="M20.1666667,11 L19.25,11 L19.25,8.25 C19.25,3.7015 15.5485,0 11,0 C6.4515,0 2.75,3.7015 2.75,8.25 L2.75,11 L1.83333333,11 C0.82225,11 0,11.8213333 0,12.8333333 L0,16.5 C0,17.5110833 0.82225,18.3333333 1.83333333,18.3333333 L3.66666667,18.3333333 C4.17266667,18.3333333 4.58333333,17.9235833 4.58333333,17.4166667 L4.58333333,8.25 C4.58333333,4.71258333 7.46166667,1.83333333 11,1.83333333 C14.5383333,1.83333333 17.4166667,4.71258333 17.4166667,8.25 L17.4166667,17.4166667 C17.4166667,17.9235833 17.8273333,18.3333333 18.3333333,18.3333333 L20.1666667,18.3333333 C21.17775,18.3333333 22,17.5110833 22,16.5 L22,12.8333333 C22,11.8213333 21.17775,11 20.1666667,11 Z M2.75,16.5 L1.83333333,16.5 L1.83333333,12.8333333 L2.75,12.8333333 L2.75,16.5 Z M19.25,16.5 L19.25,12.8333333 L20.1666667,12.8333333 L20.1675833,16.5 L19.25,16.5 Z"></path>
</svg>
