<svg viewBox="0 0 400 150" xmlns="http://www.w3.org/2000/svg"><g fill="none" fill-rule="evenodd"><path d="M201.818 72.465c10.828-24.084 26.728-32.601 47.7-25.551" stroke="#D7E1EA" stroke-width="4" stroke-linecap="round" stroke-dasharray="4,7"/><path d="M169.36 82.189h48v48h-48z"/><path d="M207.515 92.047a19.873 19.873 0 0 0-14.144-5.858 19.868 19.868 0 0 0-14.142 5.858 19.869 19.869 0 0 0-5.86 14.14 19.883 19.883 0 0 0 5.86 14.146 19.874 19.874 0 0 0 14.142 5.856 19.88 19.88 0 0 0 14.142-5.854c7.798-7.802 7.798-20.49.002-28.288zm-1.516 23.946l-9.8-9.804 9.802-9.8c4.466 5.748 4.466 13.852-.002 19.604zm-2.824-22.432l-9.804 9.802-9.802-9.802a15.866 15.866 0 0 1 9.802-3.372c3.6 0 7.008 1.194 9.804 3.372zm-25.806 12.628c0-3.598 1.194-7.008 3.372-9.8l9.802 9.8-9.802 9.804a15.872 15.872 0 0 1-3.372-9.804zm6.2 12.63l9.8-9.802 9.8 9.802a15.849 15.849 0 0 1-9.798 3.37 15.864 15.864 0 0 1-9.802-3.37z" fill="#D0021B" fill-rule="nonzero"/><path d="M253.527 20h45v45h-45z"/><g transform="translate(253.527 23.75)" fill="#95A9BA" fill-rule="nonzero"><path d="M22.5 3.75c2.71 0 5.263.684 7.5 1.883V1.49A19.589 19.589 0 0 0 22.5 0C13.6 0 6.067 5.94 3.641 14.063H0l5.625 7.5 5.625-7.5H7.607C9.887 8.046 15.694 3.75 22.5 3.75zM39.375 19.688l-5.625 7.5h2.766c-2.687 5.008-7.945 8.437-14.016 8.437-2.71 0-5.263-.684-7.5-1.883v4.14a19.59 19.59 0 0 0 7.5 1.493c8.198 0 15.223-5.044 18.178-12.188H45l-5.625-7.5zM5.625 32.813A5.626 5.626 0 0 0 0 38.437h11.25a5.626 5.626 0 0 0-5.625-5.624z"/><circle cx="5.625" cy="29.063" r="3.75"/><path d="M39.375 8.436a5.626 5.626 0 0 0-5.625 5.625H45a5.627 5.627 0 0 0-5.625-5.625z"/><circle cx="39.375" cy="4.688" r="3.75"/></g><path stroke="#D7E1EA" fill="#D7E1EA" fill-rule="nonzero" stroke-linecap="round" d="M205.369 79.322l-.956-2.775-3.588 1.236 3.905-8.01-2.637-1.286-3.906 8.01-1.235-3.588-2.775.956 2.866 8.324z"/><g><path d="M101.975 20.5h45v45h-45z"/><g transform="translate(101.975 24.25)" fill="#556979" fill-rule="nonzero"><path d="M22.5 3.75c2.71 0 5.263.684 7.5 1.883V1.49A19.589 19.589 0 0 0 22.5 0C13.6 0 6.067 5.94 3.641 14.063H0l5.625 7.5 5.625-7.5H7.607C9.887 8.046 15.694 3.75 22.5 3.75zM39.375 19.688l-5.625 7.5h2.766c-2.687 5.008-7.945 8.437-14.016 8.437-2.71 0-5.263-.684-7.5-1.883v4.14a19.59 19.59 0 0 0 7.5 1.493c8.198 0 15.223-5.044 18.178-12.188H45l-5.625-7.5zM5.625 32.813A5.626 5.626 0 0 0 0 38.437h11.25a5.626 5.626 0 0 0-5.625-5.624z"/><circle cx="5.625" cy="29.063" r="3.75"/><path d="M39.375 8.436a5.626 5.626 0 0 0-5.625 5.625H45a5.627 5.627 0 0 0-5.625-5.625z"/><circle cx="39.375" cy="4.688" r="3.75"/></g></g></g></svg>