<svg viewBox="0 0 400 150" xmlns="http://www.w3.org/2000/svg"><g fill="none" fill-rule="evenodd"><path d="M221.05 47.207h54.495v54.498H221.05z"/><g fill="#46B1E1" fill-rule="nonzero"><path d="M248.298 51.748c-10.016 0-18.165 8.15-18.165 18.165 0 7.55 4.623 14.24 11.603 16.935l6.562 13.12 6.56-13.12a18.118 18.118 0 0 0 11.605-16.935c0-10.015-8.15-18.165-18.165-18.165zm4.23 31.11l-.901.293-3.33 6.662-3.33-6.66-.902-.292a13.59 13.59 0 0 1-9.39-12.948c0-7.513 6.11-13.623 13.623-13.623 7.513 0 13.624 6.11 13.624 13.623a13.587 13.587 0 0 1-9.394 12.945z"/><path d="M248.298 60.83c-5.01 0-9.083 4.074-9.083 9.083 0 5.01 4.074 9.083 9.083 9.083s9.082-4.074 9.082-9.083-4.073-9.082-9.082-9.082zm0 13.625a4.546 4.546 0 0 1-4.541-4.542 4.547 4.547 0 0 1 4.54-4.54 4.547 4.547 0 0 1 4.542 4.54 4.546 4.546 0 0 1-4.541 4.542z"/></g><path d="M124.018 12.808h63.422V76.23h-63.422z"/><g fill="#465460" fill-rule="nonzero"><path d="M155.731 33.948c-4.37 0-7.927-3.557-7.927-7.927 0-4.371 3.557-7.928 7.927-7.928 4.371 0 7.928 3.557 7.928 7.928 0 4.37-3.557 7.927-7.928 7.927zm0-10.57a2.647 2.647 0 0 0-2.642 2.643 2.647 2.647 0 0 0 2.642 2.642 2.647 2.647 0 0 0 2.643-2.642 2.647 2.647 0 0 0-2.643-2.643z"/><path d="M161.017 70.945h-10.57a2.644 2.644 0 0 1-2.643-2.643v-10.57h-2.643a2.644 2.644 0 0 1-2.643-2.643v-7.928c0-7.285 5.928-13.213 13.213-13.213 7.286 0 13.213 5.928 13.213 13.213v7.928a2.644 2.644 0 0 1-2.642 2.643h-2.643v10.57a2.644 2.644 0 0 1-2.642 2.643zm-7.928-5.285h5.285V55.09a2.644 2.644 0 0 1 2.643-2.643h2.642V47.16c0-4.37-3.557-7.927-7.928-7.927-4.37 0-7.927 3.557-7.927 7.927v5.286h2.642a2.644 2.644 0 0 1 2.643 2.642v10.57z"/></g><path d="M124.456 72.707h63.422v63.422h-63.422z"/><g fill="#95A9BA" fill-rule="nonzero"><path d="M156.504 94.063c-4.371 0-7.928-3.557-7.928-7.928s3.557-7.928 7.928-7.928c4.37 0 7.928 3.557 7.928 7.928 0 4.37-3.557 7.928-7.928 7.928zm0-10.57a2.647 2.647 0 0 0-2.643 2.642 2.647 2.647 0 0 0 2.643 2.642 2.647 2.647 0 0 0 2.642-2.642 2.647 2.647 0 0 0-2.642-2.643zM161.789 131.059h-10.57a2.644 2.644 0 0 1-2.643-2.643v-10.57h-2.643a2.644 2.644 0 0 1-2.642-2.643v-7.927c0-7.286 5.927-13.213 13.213-13.213 7.285 0 13.213 5.927 13.213 13.213v7.927a2.644 2.644 0 0 1-2.643 2.643h-2.642v10.57a2.644 2.644 0 0 1-2.643 2.643zm-7.928-5.285h5.285v-10.57a2.644 2.644 0 0 1 2.643-2.643h2.643v-5.285c0-4.371-3.557-7.928-7.928-7.928s-7.928 3.557-7.928 7.928v5.285h2.643a2.644 2.644 0 0 1 2.642 2.642v10.57z"/></g><path d="M173.338 44.101c22.916-13.12 40.786-10.665 53.608 7.366M172.443 102.09c23.304 7.537 40.562 3.707 51.774-11.49" stroke="#D7E1EA" stroke-width="4" stroke-linecap="round" stroke-dasharray="4,7"/></g></svg>