<svg viewBox="0 0 400 150" xmlns="http://www.w3.org/2000/svg"><g fill="none" fill-rule="evenodd"><path fill="#D0021B" fill-rule="nonzero" d="M294.98 25.158l-3.156-3.154-7.343 7.345-7.345-7.345-3.156 3.154 7.345 7.345-7.345 7.345 3.156 3.154 7.345-7.345 7.343 7.345 3.156-3.154-7.345-7.345z"/><path fill="#78A240" fill-rule="nonzero" d="M103.27 43.978l-9.342-6.23 2.723-4.085 5.389 3.592 10.893-15.251 3.995 2.855z"/><text font-family="Roboto-Black, Roboto" font-size="14" font-weight="700" fill="#677C8C" transform="translate(203.259 48.972)"><tspan x="28.5" y="43.361">a</tspan></text><path d="M203.759 49.472h64v64h-64z"/><g fill="#556979" fill-rule="nonzero"><path d="M235.761 73.472c-4.41 0-8-3.59-8-8 0-4.411 3.59-8 8-8 4.411 0 8 3.589 8 8 0 4.41-3.589 8-8 8zm0-10.667a2.671 2.671 0 0 0-2.666 2.667 2.671 2.671 0 0 0 2.666 2.666 2.671 2.671 0 0 0 2.667-2.666 2.671 2.671 0 0 0-2.667-2.667zM238.428 108.138h-5.333a2.666 2.666 0 0 1-2.544-1.864 421.775 421.775 0 0 0-1.963-6.088c-1.565-.005-3.552-.048-3.552-.048a2.665 2.665 0 0 1-2.528-3.314l4.075-16.032c.842-4.176 4.72-7.32 9.178-7.32 4.46 0 8.334 3.144 9.214 7.469l4.042 15.885a2.675 2.675 0 0 1-.466 2.267 2.677 2.677 0 0 1-2.062 1.048s-1.984.043-3.549.048a418.407 418.407 0 0 0-1.965 6.088 2.672 2.672 0 0 1-2.547 1.861zm-3.379-5.333h1.424c2.531-8 2.662-8 4.62-8 .156 0 .308.013.46.04.302.013.862.013 1.472.008l-.648-2.592c-1.208-4.84-1.208-4.84-1.922-7.552l-.672-2.56c-.406-1.968-2.12-3.344-4.022-3.344-1.9 0-3.616 1.376-3.986 3.197l-.707 2.707c-.715 2.71-.715 2.71-1.923 7.552l-.648 2.592c.616.005 1.176.005 1.478-.008.221-.04.466-.04.672-.04 1.752 0 1.976.317 4.402 8z"/></g><g><text font-family="Roboto-Black, Roboto" font-size="14" font-weight="700" fill="#677C8C" transform="translate(252.65 48.972)"><tspan x="28.5" y="43.361">b</tspan></text><path d="M253.15 49.472h64v64h-64z"/><g fill="#556979" fill-rule="nonzero"><path d="M285.152 73.472c-4.41 0-8-3.59-8-8 0-4.411 3.59-8 8-8s8 3.589 8 8c0 4.41-3.59 8-8 8zm0-10.667a2.671 2.671 0 0 0-2.667 2.667 2.671 2.671 0 0 0 2.667 2.666 2.671 2.671 0 0 0 2.667-2.666 2.671 2.671 0 0 0-2.667-2.667zM287.819 108.138h-5.334a2.666 2.666 0 0 1-2.544-1.864 421.775 421.775 0 0 0-1.962-6.088c-1.566-.005-3.552-.048-3.552-.048a2.665 2.665 0 0 1-2.528-3.314l4.074-16.032c.843-4.176 4.72-7.32 9.18-7.32 4.458 0 8.332 3.144 9.212 7.469l4.043 15.885a2.675 2.675 0 0 1-.467 2.267 2.677 2.677 0 0 1-2.06 1.048s-1.985.043-3.55.048a418.407 418.407 0 0 0-1.966 6.088 2.672 2.672 0 0 1-2.546 1.861zm-3.379-5.333h1.424c2.53-8 2.661-8 4.619-8 .157 0 .31.013.461.04.301.013.861.013 1.472.008l-.648-2.592c-1.208-4.84-1.208-4.84-1.923-7.552l-.672-2.56c-.405-1.968-2.12-3.344-4.02-3.344-1.902 0-3.617 1.376-3.988 3.197l-.706 2.707c-.715 2.71-.715 2.71-1.923 7.552l-.648 2.592c.616.005 1.176.005 1.477-.008.222-.04.467-.04.672-.04 1.752 0 1.976.317 4.403 8z"/></g></g><g><text font-family="Roboto-Black, Roboto" font-size="14" font-weight="700" fill="#677C8C" transform="translate(304.147 48.972)"><tspan x="28.5" y="43.361">c</tspan></text><path d="M304.647 49.472h64v64h-64z"/><g fill="#556979" fill-rule="nonzero"><path d="M336.65 73.472c-4.41 0-8-3.59-8-8 0-4.411 3.59-8 8-8s8 3.589 8 8c0 4.41-3.59 8-8 8zm0-10.667a2.671 2.671 0 0 0-2.667 2.667 2.671 2.671 0 0 0 2.667 2.666 2.671 2.671 0 0 0 2.667-2.666 2.671 2.671 0 0 0-2.667-2.667zM339.317 108.138h-5.334a2.666 2.666 0 0 1-2.544-1.864 421.775 421.775 0 0 0-1.962-6.088c-1.566-.005-3.552-.048-3.552-.048a2.665 2.665 0 0 1-2.528-3.314l4.074-16.032c.843-4.176 4.72-7.32 9.18-7.32 4.458 0 8.332 3.144 9.212 7.469l4.043 15.885a2.675 2.675 0 0 1-.467 2.267 2.677 2.677 0 0 1-2.06 1.048s-1.985.043-3.55.048a418.407 418.407 0 0 0-1.966 6.088 2.672 2.672 0 0 1-2.546 1.861zm-3.379-5.333h1.424c2.53-8 2.661-8 4.619-8 .157 0 .31.013.461.04.301.013.861.013 1.472.008l-.648-2.592c-1.208-4.84-1.208-4.84-1.923-7.552l-.672-2.56c-.405-1.968-2.12-3.344-4.02-3.344-1.902 0-3.617 1.376-3.988 3.197l-.706 2.707c-.715 2.71-.715 2.71-1.923 7.552l-.648 2.592c.616.005 1.176.005 1.477-.008.222-.04.467-.04.672-.04 1.752 0 1.976.317 4.403 8z"/></g></g><g fill="#ED8000" fill-rule="nonzero"><path d="M309.072 81.057l3.704 3.704h-8.87v3.23h8.87l-3.704 3.705 2.284 2.284 7.604-7.603-7.604-7.604z"/></g><g fill="#ED8000" fill-rule="nonzero"><path d="M256.891 81.057l3.704 3.704h-8.87v3.23h8.87l-3.704 3.705 2.284 2.284 7.604-7.603-7.604-7.604z"/></g><g><text font-family="Roboto-Black, Roboto" font-size="14" font-weight="700" fill="#677C8C" transform="translate(112.906 41.3)"><tspan x="28.5" y="43.361">a</tspan></text><path d="M113.406 41.8h64v64h-64z"/><g fill="#556979" fill-rule="nonzero"><path d="M145.409 65.8c-4.41 0-8-3.59-8-8 0-4.411 3.59-8 8-8s8 3.589 8 8c0 4.41-3.59 8-8 8zm0-10.667a2.671 2.671 0 0 0-2.667 2.667 2.671 2.671 0 0 0 2.667 2.666 2.671 2.671 0 0 0 2.667-2.666 2.671 2.671 0 0 0-2.667-2.667z"/><path d="M148.076 100.466h-5.334a2.666 2.666 0 0 1-2.544-1.864 421.775 421.775 0 0 0-1.962-6.088c-1.566-.005-3.552-.048-3.552-.048a2.665 2.665 0 0 1-2.528-3.314l4.074-16.032c.843-4.176 4.72-7.32 9.179-7.32 4.459 0 8.333 3.144 9.213 7.469l4.043 15.885a2.675 2.675 0 0 1-.467 2.267 2.677 2.677 0 0 1-2.061 1.048s-1.984.043-3.55.048a418.407 418.407 0 0 0-1.965 6.088 2.672 2.672 0 0 1-2.546 1.861zm-3.38-5.333h1.425c2.53-8 2.661-8 4.619-8 .157 0 .309.013.46.04.302.013.862.013 1.473.008l-.648-2.592c-1.208-4.84-1.208-4.84-1.923-7.552l-.672-2.56c-.405-1.968-2.12-3.344-4.021-3.344-1.901 0-3.616 1.376-3.987 3.197l-.706 2.707c-.715 2.71-.715 2.71-1.923 7.552l-.648 2.592c.616.005 1.176.005 1.477-.008.222-.04.467-.04.672-.04 1.752 0 1.976.317 4.403 8z"/></g><g><text font-family="Roboto-Black, Roboto" font-size="14" font-weight="700" fill="#677C8C" transform="translate(70.906 63.3)"><tspan x="28.5" y="43.361">b</tspan></text><path d="M71.406 63.8h64v64h-64z"/><g fill="#556979" fill-rule="nonzero"><path d="M103.409 87.8c-4.41 0-8-3.59-8-8 0-4.411 3.59-8 8-8s8 3.589 8 8c0 4.41-3.59 8-8 8zm0-10.667a2.671 2.671 0 0 0-2.667 2.667 2.671 2.671 0 0 0 2.667 2.666 2.671 2.671 0 0 0 2.667-2.666 2.671 2.671 0 0 0-2.667-2.667zM106.076 122.466h-5.334a2.666 2.666 0 0 1-2.544-1.864 421.775 421.775 0 0 0-1.962-6.088c-1.566-.005-3.552-.048-3.552-.048a2.665 2.665 0 0 1-2.528-3.314L94.23 95.12c.843-4.176 4.72-7.32 9.179-7.32 4.459 0 8.333 3.144 9.213 7.469l4.043 15.885a2.675 2.675 0 0 1-.467 2.267 2.677 2.677 0 0 1-2.061 1.048s-1.984.043-3.55.048a418.407 418.407 0 0 0-1.965 6.088 2.672 2.672 0 0 1-2.546 1.861zm-3.38-5.333h1.425c2.53-8 2.661-8 4.619-8 .157 0 .309.013.46.04.302.013.862.013 1.473.008l-.648-2.592c-1.208-4.84-1.208-4.84-1.923-7.552l-.672-2.56c-.405-1.968-2.12-3.344-4.021-3.344-1.901 0-3.616 1.376-3.987 3.197l-.706 2.707c-.715 2.71-.715 2.71-1.923 7.552l-.648 2.592c.616.005 1.176.005 1.477-.008.222-.04.467-.04.672-.04 1.752 0 1.976.317 4.403 8z"/></g></g><g><text font-family="Roboto-Black, Roboto" font-size="14" font-weight="700" fill="#677C8C" transform="translate(29.906 41.3)"><tspan x="28.5" y="43.361">c</tspan></text><path d="M30.406 41.8h64v64h-64z"/><g fill="#556979" fill-rule="nonzero"><path d="M62.409 65.8c-4.41 0-8-3.59-8-8 0-4.411 3.59-8 8-8s8 3.589 8 8c0 4.41-3.59 8-8 8zm0-10.667a2.671 2.671 0 0 0-2.667 2.667 2.671 2.671 0 0 0 2.667 2.666 2.671 2.671 0 0 0 2.667-2.666 2.671 2.671 0 0 0-2.667-2.667zM65.076 100.466h-5.334a2.666 2.666 0 0 1-2.544-1.864 421.775 421.775 0 0 0-1.962-6.088c-1.566-.005-3.552-.048-3.552-.048a2.665 2.665 0 0 1-2.528-3.314L53.23 73.12c.843-4.176 4.72-7.32 9.179-7.32 4.459 0 8.333 3.144 9.213 7.469l4.043 15.885a2.675 2.675 0 0 1-.467 2.267 2.677 2.677 0 0 1-2.061 1.048s-1.984.043-3.55.048a418.407 418.407 0 0 0-1.965 6.088 2.672 2.672 0 0 1-2.546 1.861zm-3.38-5.333h1.425c2.53-8 2.661-8 4.619-8 .157 0 .309.013.46.04.302.013.862.013 1.473.008l-.648-2.592c-1.208-4.84-1.208-4.84-1.923-7.552l-.672-2.56c-.405-1.968-2.12-3.344-4.021-3.344-1.901 0-3.616 1.376-3.987 3.197l-.706 2.707c-.715 2.71-.715 2.71-1.923 7.552l-.648 2.592c.616.005 1.176.005 1.477-.008.222-.04.467-.04.672-.04 1.752 0 1.976.317 4.403 8z"/></g></g><g fill="#ED8000" fill-rule="nonzero"><path d="M84.863 72.342l1.356 5.06-7.681-4.435-1.616 2.798 7.682 4.435-5.06 1.356.836 3.12 10.387-2.783-2.783-10.387z"/></g><g fill="#ED8000" fill-rule="nonzero"><path d="M122.74 71.914l-1.356 5.06 7.681-4.435 1.616 2.798-7.682 4.435 5.06 1.356-.836 3.12-10.387-2.783 2.783-10.387z"/></g></g></g></svg>