<svg viewBox="0 0 350 350" version="1.1" xmlns="http://www.w3.org/2000/svg" xmlns:xlink="http://www.w3.org/1999/xlink">
  <g transform="translate(13.000000, 24.000000)">
      <path d="M86.529287,187 L105.674384,187 L124.972263,296.315223 C125.657086,300.105074 123.300214,302 117.901645,302 C112.503076,302 100.869195,302 83,302 C86.5027111,297.130472 92.4061684,293.598627 100.710372,291.404465 C109.014575,289.210304 115.299084,290.307385 119.563899,294.695708 L86.529287,187 Z M124.826081,188.791736 L141.952286,188.791736 L133.389183,295.292506 C139.646996,291.351199 145.925766,289.380546 152.225493,289.380546 C158.525221,289.380546 165.78339,293.510654 174,301.770868 C146.926122,301.770868 133.389183,301.770868 133.389183,301.770868 C133.389183,301.770868 127.64063,301.204466 127.64063,295.292506 C127.64063,291.351199 126.702447,255.850943 124.826081,188.791736 Z" fill="#465460" transform="translate(128.500000, 244.500000) scale(-1, 1) translate(-128.500000, -244.500000) "></path>
      <path d="M179.750348,21 L99.250116,21 L75.1000464,21 C66.2448353,21 59,28.2704349 59,37.1569358 L59,210.843064 C59,219.729565 66.2448353,227 75.1000464,227 L203.899954,227 C212.755165,227 220,219.729565 220,210.843064 L220,37.1569358 C220,28.2704349 212.755165,21 203.899954,21 L179.750348,21 Z" fill="#647F94" fill-rule="nonzero"></path>
      <g transform="translate(68.000000, 0.000000)" fill-rule="nonzero">
          <path d="M108.750313,30.7058824 L36.2501044,30.7058824 L14.5000418,30.7058824 C6.52485171,30.7058824 0,37.2455368 0,45.23882 L0,201.467062 C0,209.460346 6.52485171,216 14.5000418,216 L130.499958,216 C138.475148,216 145,209.460346 145,201.467062 L145,45.23882 C145,37.2455368 138.475148,30.7058824 130.499958,30.7058824 L108.750313,30.7058824 Z" fill="#FFFFFF"></path>
          <g transform="translate(13.759124, 61.411765)" fill="#46B1E1">
              <path d="M9.42189718,130.39226 C9.38481008,130.373545 9.34772204,130.354785 9.31063295,130.336025 C9.08410077,130.164173 8.88285442,129.958202 8.70814893,129.727 L1.31981752,122.25301 C-0.202138165,120.713409 -0.202138165,118.403785 1.31981752,116.864184 C2.8417732,115.324583 5.12492596,115.324583 6.64688165,116.864184 L11.2551349,121.525865 L23.7698697,105.701079 C24.9112268,104.161479 27.5749781,103.776467 29.0969338,104.931057 C30.6188895,106.085647 30.999488,108.780281 29.8581309,110.319882 L14.6376971,129.566003 C13.9158373,130.661347 12.8520941,131.064198 11.7706829,131.10291 C11.7127297,131.104984 11.6537829,131.106048 11.5937857,131.106048 C10.6964095,131.106048 10.0340358,130.868046 9.42189718,130.39226 Z M9.42189718,95.7496856 C9.38481008,95.7309706 9.34772204,95.7122111 9.31063295,95.6934515 C9.08410077,95.5215991 8.88285442,95.3156283 8.70814893,95.084426 L1.31981752,87.6104356 C-0.202138165,86.0708347 -0.202138165,83.7612114 1.31981752,82.2216105 C2.8417732,80.6820095 5.12492596,80.6820095 6.64688165,82.2216105 L11.2551349,86.8832909 L23.7698697,71.0585056 C24.9112268,69.5189046 27.5749781,69.1338935 29.0969338,70.2884833 C30.6188895,71.4430731 30.999488,74.1377075 29.8581309,75.6773084 L14.6376971,94.9234293 C13.9158373,96.0187726 12.8520941,96.421624 11.7706829,96.460336 C11.7127297,96.4624099 11.6537829,96.4634738 11.5937857,96.4634738 C10.6964095,96.4634738 10.0340358,96.2254725 9.42189718,95.7496856 Z M9.42189718,61.1066681 C9.38481008,61.0879531 9.34772204,61.0691936 9.31063295,61.050434 C9.08410077,60.8785816 8.88285442,60.6726108 8.70814893,60.4414085 L1.31981752,52.9674181 C-0.202138165,51.4278172 -0.202138165,49.118194 1.31981752,47.578593 C2.8417732,46.0389921 5.12492596,46.0389921 6.64688165,47.578593 L11.2551349,52.2402734 L23.7698697,36.4154881 C24.9112268,34.8758871 27.5749781,34.490876 29.0969338,35.6454658 C30.6188895,36.8000556 30.999488,39.49469 29.8581309,41.0342909 L14.6376971,60.2804118 C13.9158373,61.3757552 12.8520941,61.7786065 11.7706829,61.8173185 C11.7127297,61.8193924 11.6537829,61.8204563 11.5937857,61.8204563 C10.6964095,61.8204563 10.0340358,61.582455 9.42189718,61.1066681 Z M9.42189718,26.4636506 C9.38481008,26.4449356 9.34772204,26.4261761 9.31063295,26.4074165 C9.08410077,26.2355641 8.88285442,26.0295933 8.70814893,25.798391 L1.31981752,18.3244006 C-0.202138165,16.7847997 -0.202138165,14.4751765 1.31981752,12.9355755 C2.8417732,11.3959746 5.12492596,11.3959746 6.64688165,12.9355755 L11.2551349,17.597256 L23.7698697,1.77247059 C24.9112268,0.232869634 27.5749781,-0.152141494 29.0969338,1.00244833 C30.6188895,2.15703816 30.999488,4.8516725 29.8581309,6.39127345 L14.6376971,25.6373943 C13.9158373,26.7327377 12.8520941,27.135589 11.7706829,27.174301 C11.7127297,27.1763749 11.6537829,27.1774388 11.5937857,27.1774388 C10.6964095,27.1774388 10.0340358,26.9394375 9.42189718,26.4636506 Z" ></path>
          </g>
          <path d="M93.9328156,15.443806 L93.9328156,7.72190301 C93.9328156,3.47476737 90.4560598,0 86.2064937,0 L63.0275281,0 C58.777962,0 55.3012062,3.47476737 55.3012062,7.72190301 L55.3012062,15.443806 L39.8485624,15.443806 C37.5305768,15.443806 35.9854015,16.9880976 35.9854015,19.3047575 L35.9854015,37.4331661 C35.9854015,39.749826 37.5305768,41.2941176 39.8485624,41.2941176 L109.385014,41.2941176 C111.703,41.2941176 113.248175,39.749826 113.248175,37.4331661 L113.248175,19.3047575 C113.248175,16.9880976 111.703,15.443806 109.385014,15.443806 L93.9328156,15.443806 Z" fill="#465460"></path>
      </g>
      <path d="M130.339134,129.011389 L166.103511,132.69976 C167.266664,132.819716 168.11048,133.842167 167.988228,134.983469 L166.150572,152.139138 C166.02832,153.28044 164.986293,154.108405 163.82314,153.988449 C163.696778,153.975417 163.571868,153.951253 163.449921,153.91625 L140.828829,147.423081 C140.399732,147.299913 140.021371,147.046652 139.747944,146.699575 L128.442314,132.348703 C127.727031,131.440754 127.89731,130.135757 128.822642,129.433911 C129.253885,129.106822 129.797057,128.955484 130.339134,129.011389 Z" fill="#465460"></path>
      <path d="M167.15396,133.011899 L200.11599,136.53691 C201.271489,136.660481 202.109753,137.713747 201.988305,138.889446 C201.937379,139.382444 201.719862,139.842174 201.372885,140.190158 L188.493588,153.106817 C188.129571,153.47189 187.647378,153.689636 187.137091,153.719374 L165.22404,154.996435 C164.064077,155.064036 163.069882,154.162064 163.003442,152.981823 C162.996945,152.866408 162.999648,152.750647 163.011525,152.635676 L164.841842,134.916945 C164.96329,133.741246 165.99846,132.888328 167.15396,133.011899 Z" fill="#465460"></path>
      <path d="M144,132 L189,136.726297 L184.301026,147.863214 C175.285983,148.913981 168.845095,149.236305 164.978361,148.830187 C161.111628,148.424068 154.807694,146.763171 146.06656,143.847493 L144,132 Z" fill="#FFFFFF"></path>
      <path d="M142.197755,92.8889194 C142.09448,93.7811335 141.072954,94.4053683 139.916113,94.2831868 C138.759271,94.1610053 137.905187,93.3386752 138.008461,92.446461 C139.085424,83.1423168 142.815524,78.3724798 149.651328,79.0663245 C156.42105,79.7534616 159.33264,85.1439019 158.96997,94.4948509 C158.935147,95.3927205 157.965806,96.0643974 156.804886,95.9950831 C155.643966,95.9257689 154.731084,95.1417114 154.765907,94.2438417 C155.069567,86.4143907 153.052786,82.6805769 149.299435,82.299606 C145.612166,81.9253426 143.094083,85.1453223 142.197755,92.8889194 Z" fill="#2D3A45" fill-rule="nonzero"></path>
      <path d="M186.155933,92.5758899 C185.97272,93.4705805 184.899857,94.0153274 183.759626,93.7926161 C182.619396,93.5699048 181.84358,92.6640716 182.026794,91.7693809 C183.93737,82.4394113 188.079455,77.9282467 194.819641,79.2157677 C201.494667,80.4908419 203.906195,86.1987489 202.702237,95.6372323 C202.586634,96.543507 201.561426,97.1407624 200.41237,96.9712398 C199.263315,96.8017171 198.425536,95.929611 198.541139,95.0233364 C199.5492,87.1205936 197.8788,83.1668792 194.17795,82.459937 C190.542259,81.7654415 187.746056,84.810799 186.155933,92.5758899 Z" fill="#2D3A45" fill-rule="nonzero"></path>
      <path d="M59.7604984,73 L0,138.256331 L57.1419012,179.77847 C50.6976849,183.882519 47.0141362,187.282937 46.0912552,189.979727 C44.7069337,194.02491 41.9536225,201.969623 49.5477619,201.969623 C57.1419012,201.969623 49.5477619,200.535395 49.5477619,197.783004 C49.5477619,195.948076 51.0685279,193.346984 54.11006,189.979727 L58.8249885,201.969623 C59.8936672,202.773434 60.5832727,203.106947 60.8938048,202.970162 C61.2043369,202.833377 61.5118473,202.060649 61.8163359,200.651978 L63,175.720352 L16.8983618,138 L59.7604984,95.6787278 L59.7604984,73 Z" fill="#465460"></path>
      <g transform="translate(299.000000, 63.000000) scale(-1, 1) rotate(180.000000) translate(-299.000000, -63.000000) translate(273.000000, 37.000000)" fill="#46B1E1" fill-rule="nonzero">
          <path d="M13.8617267,47.640957 L0,52 L3.87854751,37.9125586 L36.5244141,4.83879883 L46.6117467,14.8174463 L13.8617267,47.640957 Z M50.5537707,10.8507275 L47.6778938,13.7587402 L37.5356346,3.73325195 L40.9079241,0.458535156 C42.4750515,-1.11340521 47.1063774,1.7893001 48.6698603,3.3575848 C50.2807215,4.97704894 52.1682764,9.23126339 50.5537707,10.8507275 Z"></path>
      </g>
      <path d="M220,77.8732705 L267,133.721233 L294.5516,81.7122985 L290.108641,73.1195451 C287.8988,65.5651108 287.8988,61.7878937 290.108641,61.7878937 C292.318481,61.7878937 293.799468,64.0506531 294.5516,68.5761719 L306.288269,80.8453369 C308.013936,78.4989827 309.037537,77.0311483 309.35907,76.4418335 C309.680603,75.8525187 310.219767,74.8677572 310.976562,73.4875488 C310.165391,73.652211 309.626227,73.5295431 309.35907,73.1195451 C308.842921,72.3274269 308.661463,71.6267712 308.814697,71.0175781 C307.866211,71.726888 307.024068,71.9042155 306.288269,71.5495605 C305.55247,71.1949056 305.18457,70.4567057 305.18457,69.3349609 C303.399934,69.359375 302.11608,69.1064453 301.333008,68.5761719 C301.072338,68.3996542 300.835522,67.6252043 300.622559,66.252822 C300.542965,64.4520758 300.262285,63.722294 299.780518,64.0634766 C297.135681,65.9365234 297.152344,59.4921875 297.152344,59.4921875 C297.152344,59.4921875 298.503138,55.1736571 298.503138,54.4329165 C298.503138,50.2609407 316.535686,55.4987649 313.696827,66.252822 C311.804254,73.4221934 307.971002,79.7700166 302.197069,85.2962917 L269.491739,153 L220,104.322101 L220,77.8732705 Z" fill="#465460"></path>
  </g>
</svg>
