<?xml version="1.0" encoding="UTF-8"?>
<svg viewBox="0 0 67 75" version="1.1" xmlns="http://www.w3.org/2000/svg" xmlns:xlink="http://www.w3.org/1999/xlink">
    <!-- Generator: Sketch 50.2 (55047) - http://www.bohemiancoding.com/sketch -->
    <title>MrClock</title>
    <desc>Created with Sketch.</desc>
    <defs></defs>
    <g id="Homepage-V3" stroke="none" stroke-width="1" fill="none" fill-rule="evenodd">
        <g id="All-Events-Done" transform="translate(-184.000000, -218.000000)">
            <g id="MrClock" transform="translate(180.000000, 214.000000)">
                <rect id="Rectangle-20" fill="#647F94" x="35.7215666" y="6.32852668" width="2.94177607" height="5.48472312"></rect>
                <rect id="Rectangle-22" fill="#2D3A45" transform="translate(57.364633, 11.813250) rotate(35.000000) translate(-57.364633, -11.813250) " x="55.0532379" y="4.64091956" width="4.62279097" height="14.3446605" rx="2.31139549"></rect>
                <rect id="Rectangle-22-Copy" fill="#2D3A45" transform="translate(16.179768, 13.500857) scale(-1, 1) rotate(35.000000) translate(-16.179768, -13.500857) " x="13.8683729" y="6.32852668" width="4.62279097" height="14.3446605" rx="2.31139549"></rect>
                <g id="Group-18" transform="translate(2.834703, 10.969446)">
                    <polygon id="Triangle-2" fill="#2D3A45" transform="translate(46.780265, 61.359880) scale(1, -1) rotate(15.000000) translate(-46.780265, -61.359880) " points="46.7802655 54.7125593 48.9054922 68.0071999 44.6550387 68.0071999"></polygon>
                    <polygon id="Triangle-2-Copy" fill="#2D3A45" transform="translate(21.787599, 61.359880) scale(1, -1) rotate(-15.000000) translate(-21.787599, -61.359880) " points="21.7875991 54.7125593 23.9128258 68.0071999 19.6623724 68.0071999"></polygon>
                    <ellipse id="Oval" fill="#46B1E1" cx="34.7939867" cy="29.6572751" rx="29.5831561" ry="29.6572751"></ellipse>
                    <ellipse id="Oval-Copy" fill="#E4F5FD" cx="34.7939867" cy="29.6572751" rx="25.6727389" ry="25.7370606"></ellipse>
                    <path d="M22.3958975,52.4967859 C14.4787301,48.0746173 9.12124781,39.5819731 9.12124781,29.8314174 C9.12124781,15.5210552 20.66118,3.92021453 34.8964078,3.92021453 C42.0312031,3.92021453 48.4889175,6.83444343 53.1559457,11.5434182 C49.4535155,9.47540965 45.1913012,8.29758394 40.6554354,8.29758394 C26.4202076,8.29758394 14.8802754,19.8984246 14.8802754,34.2087868 C14.8802754,41.3466957 17.7513469,47.8104906 22.3958975,52.4967859 Z" id="Combined-Shape" fill="#B6E6FB"></path>
                    <g id="Group-16" transform="translate(33.263823, 7.158653)" fill="#85D4F7">
                        <rect id="Rectangle-19" x="0" y="0" width="1.87019952" height="5.18883651" rx="0.935099761"></rect>
                        <rect id="Rectangle-19-Copy" x="0" y="39.1266321" width="1.87019952" height="5.18883651" rx="0.935099761"></rect>
                    </g>
                    <g id="Group-15" transform="translate(33.769920, 28.977478) rotate(90.000000) translate(-33.769920, -28.977478) translate(32.832420, 6.389243)" fill="#85D4F7">
                        <rect id="Rectangle-19-Copy-2" x="0" y="0" width="1.87019952" height="5.18883651" rx="0.935099761"></rect>
                        <rect id="Rectangle-19-Copy-3" x="0" y="39.1266321" width="1.87019952" height="5.18883651" rx="0.935099761"></rect>
                    </g>
                    <path d="M34.9640048,29.4648547 C38.7985674,26.5397919 42.9694501,26.5397919 47.4766531,29.4648547 C54.2374575,33.852449 50.402529,48.7503332 58.489584,48.7503332 C63.8809541,48.7503332 66.6935644,48.3182009 66.9274149,47.4539363 C66.3173542,51.7248713 63.9969644,53.8603388 59.9662456,53.8603388 C53.9201674,53.8603388 51.5640962,53.2025556 47.4766531,48.7503332 C43.3892099,44.2981108 44.6935028,34.1367033 41.4201449,31.4371087 C39.2379062,29.637379 37.0858596,28.979961 34.9640048,29.4648547 Z" id="Path-2" fill="#465460"></path>
                    <path d="M37.4962143,27.7513604 C39.5883032,27.2943307 41.7098193,27.960979 43.8607627,29.7513052 C47.1235436,32.4670633 45.8234652,42.6893111 49.8977007,47.1681907 C53.9719362,51.6470703 56.3203943,52.3087918 62.346936,52.3087918 C63.3584147,52.3087918 64.2618411,52.1726332 65.0572153,51.900316 C63.8785019,53.2069978 62.1813127,53.8603388 59.9656477,53.8603388 C53.9391059,53.8603388 51.5906479,53.1986172 47.5164124,48.7197376 C43.4421769,44.2408581 44.7422553,34.0186102 41.4794744,31.3028521 C39.3042872,29.4923467 37.0191186,28.8309925 34.6239686,29.3187894 C35.5709837,28.6395002 36.5283989,28.1170239 37.4962143,27.7513604 Z" id="Combined-Shape" fill="#2D3A45"></path>
                    <g id="Group-17" transform="translate(16.857573, 40.577228) scale(-1, 1) translate(-16.857573, -40.577228) translate(0.451323, 26.930169)">
                        <path d="M0.13957821,2.27658408 C3.94817321,-0.664864259 8.09081086,-0.664864259 12.5674911,2.27658408 C19.2825116,6.68875659 15.4735531,21.6700953 23.5058429,21.6700953 C28.8607027,21.6700953 31.6542661,21.2355423 31.886533,20.3664363 C31.2806036,24.661296 28.9759275,26.8087259 24.9725045,26.8087259 C18.9673702,26.8087259 16.6272542,26.147258 12.5674911,21.6700953 C8.50772806,17.1929326 9.80318832,6.97460324 6.55199745,4.25988619 C4.38453686,2.45007482 2.24706378,1.78897412 0.13957821,2.27658408 Z" id="Path-2-Copy-3" fill="#465460"></path>
                        <path d="M2.93556599,0.680023608 C2.88751245,0.716122082 2.83951185,0.75268675 2.79156419,0.789717611 C4.89904977,0.302107651 7.03652285,0.963208354 9.20398343,2.77301972 C12.4551743,5.48773677 11.159714,15.7060661 15.2194771,20.1832288 C19.2792402,24.6603915 21.6193561,25.3218594 27.6244905,25.3218594 C28.3950458,25.3218594 29.1026688,25.2423051 29.7473596,25.0831965 C28.5811131,26.2762732 26.9429686,26.8728116 24.8329263,26.8728116 C18.8277919,26.8728116 16.487676,26.2113437 12.4279129,21.734181 C8.36814985,17.2570183 9.66361011,7.03868893 6.41241924,4.32397188 C4.24495865,2.51416052 2.10748557,1.85305981 0,2.34066977 C0.957412843,1.60124213 1.93593484,1.04769341 2.93556599,0.680023608 Z" id="Combined-Shape-Copy" fill="#2D3A45"></path>
                    </g>
                    <ellipse id="Oval-3" fill="#647F94" cx="34.0289051" cy="29.0607208" rx="1.44515418" ry="1.44877494"></ellipse>
                    <path d="M33.2638235,29.7561984 C33.3752149,29.7804395 33.4921792,29.7933518 33.6127979,29.7933518 C34.3666252,29.7933518 34.9777229,29.289017 34.9777229,28.6668884 C34.9777229,28.3082105 34.7745997,27.9886862 34.4581087,27.7823899 C35.0428772,27.9096479 35.4740593,28.3491171 35.4740593,28.8716999 C35.4740593,29.4938285 34.8629615,29.9981634 34.1091342,29.9981634 C33.7899136,29.9981634 33.4962877,29.907724 33.2638235,29.7561984 Z" id="Combined-Shape" fill="#95A9BA" transform="translate(34.368941, 28.890277) rotate(-30.000000) translate(-34.368941, -28.890277) "></path>
                    <path d="M28.6209187,16.1035802 C28.622066,16.1047598 28.6228229,16.1054656 28.6231801,16.1057521 C28.6229443,16.1055629 28.6227072,16.1053733 28.6224687,16.1051831 L28.6209187,16.1035802 Z M23.3011418,15.8525319 C25.0201513,13.9917311 27.0133128,13.488748 29.0716683,14.4619294 C29.7611941,14.7879341 30.1502518,15.0999722 30.1994183,15.6514197 C30.2359886,16.0615887 30.0233029,16.3900409 29.6954213,16.6041219 C29.5053523,16.7282221 29.2749086,16.8164448 28.9909505,16.8881029 C28.5311252,17.0041419 27.3539791,16.5505609 26.4686748,16.6041219 C25.6468119,16.6538448 25.1468484,17.2148551 23.9424263,17.2148551 L22.0426263,17.2148551 L23.3011418,15.8525319 Z" id="Path-3" fill="#647F94" fill-rule="nonzero"></path>
                    <path d="M46.3495569,15.4900179 C46.3516774,15.489681 46.3531034,15.4894164 46.353802,15.4892454 C46.3534891,15.489322 46.3531735,15.4894 46.3528551,15.4894796 L46.3495569,15.4900179 Z M40.9609087,14.9932927 C42.8188864,14.0911179 44.6886427,14.0911179 46.492722,14.9984527 C46.7311942,15.1183887 46.9186482,15.2287076 47.0643579,15.3396232 C47.3681028,15.5708365 47.5595716,15.8182133 47.5445197,16.2415253 C47.5333698,16.5550986 47.3763538,16.810904 47.1508632,16.9737349 C47.0247343,17.0648149 46.8926588,17.1184122 46.7470131,17.1540805 C46.5690103,17.1976731 46.3597528,17.2148551 46.0993167,17.2148551 C45.5756326,17.2148551 44.8983414,16.7365551 43.7994124,16.5873348 C43.0935309,16.4914853 42.137987,16.7685432 41.1877834,16.6111231 L38.5343858,16.171535 L40.9609087,14.9932927 Z" id="Path-3-Copy" fill="#647F94" fill-rule="nonzero" transform="translate(43.039866, 15.766080) scale(-1, 1) rotate(-15.000000) translate(-43.039866, -15.766080) "></path>
                    <path d="M24.8989217,23.6392878 C24.8974858,23.8576618 24.6755782,24.0337553 24.4032773,24.0326037 C24.1309763,24.0314521 23.9113969,23.8534915 23.9128329,23.6351176 C23.9278073,21.3578808 24.6750274,20.112405 26.2833478,20.112405 C27.8761202,20.112405 28.6901934,21.3449292 28.8426263,23.6159495 C28.8572627,23.8340108 28.6487005,24.0202998 28.3767894,24.0320376 C28.1048783,24.0437755 27.8725856,23.8765172 27.8579492,23.6584559 C27.7303188,21.7569546 27.166432,20.903218 26.2833478,20.903218 C25.4158114,20.903218 24.9113846,21.744003 24.8989217,23.6392878 Z" id="Path-4" fill="#2D3A45" fill-rule="nonzero"></path>
                    <path d="M40.3705723,23.6392878 C40.3691364,23.8576618 40.1472288,24.0337553 39.8749279,24.0326037 C39.6026269,24.0314521 39.3830475,23.8534915 39.3844834,23.6351176 C39.3994579,21.3578808 40.146678,20.112405 41.7549984,20.112405 C43.3477708,20.112405 44.161844,21.3449292 44.3142769,23.6159495 C44.3289133,23.8340108 44.1203511,24.0202998 43.84844,24.0320376 C43.5765289,24.0437755 43.3442362,23.8765172 43.3295998,23.6584559 C43.2019694,21.7569546 42.6380826,20.903218 41.7549984,20.903218 C40.887462,20.903218 40.3830352,21.744003 40.3705723,23.6392878 Z" id="Path-4-Copy" fill="#2D3A45" fill-rule="nonzero"></path>
                    <path d="M28.8433519,36.9526126 C29.0748202,39.7022245 30.9345061,41.0770305 34.4224097,41.0770305 C37.9103133,41.0770305 39.8918127,39.4505849 40.366908,36.1976938 C40.4171444,35.5412348 40.4171444,35.1681248 40.366908,35.0783638 C39.8487583,34.1525478 39.2896059,34.6664317 38.8379105,35.8041082 C38.3865524,36.9409353 37.196943,37.4852317 36.4517272,37.8385924 C35.7831205,38.1556272 34.6962357,38.2428231 33.1910727,38.1001801 C31.8396461,37.7076206 30.9284268,36.9422633 30.4574146,35.8041082 C30.1722778,35.1151029 29.8641353,34.3544929 29.1851102,35.0783638 C29.0084124,35.2667314 28.894493,35.891481 28.8433519,36.9526126 Z" id="Path-5" fill="#465460"></path>
                    <path d="M30.3735151,40.1550064 C31.769598,39.4526986 32.9387823,39.0782831 33.881068,39.0317599 C33.9704319,39.0273477 34.0520447,39.2725053 34.1359154,39.4935648 C34.2042705,39.6737297 34.0591427,40.0369931 34.1359154,40.0369931 C34.2102367,40.0369931 34.3799837,39.6412904 34.3319595,39.442266 C34.2823237,39.2365622 34.229709,39.0282657 34.3030391,39.0317599 C35.2638626,39.0775427 36.4476206,39.4892177 37.8543132,40.2667848 C36.8612318,40.920578 35.6144321,41.2474746 34.1139142,41.2474746 C32.6133962,41.2474746 31.3665965,40.8833185 30.3735151,40.1550064 Z" id="Path-6" fill="#D36370"></path>
                </g>
                <g id="Group-25" transform="translate(42.013221, 0.421902)">
                    <path d="M15.1070469,16.5227313 C22.5848251,16.548429 27.7268896,18.8164948 30.1092429,18.70477 C32.4915962,18.5930452 32.1660223,18.0222221 32.1660223,16.7750421 C32.1660223,12.3493569 24.715301,8.43269044 15.96858,8.43269044 C7.22185891,8.43269044 0.131240517,12.0204171 0.131240517,16.4461023 C0.131240517,17.5804095 -0.0140988677,18.5445201 1.32814217,18.6058626 C3.80551291,18.7190821 7.62926868,16.4970336 15.1070469,16.5227313 Z" id="Oval-4" fill="#85D4F7" transform="translate(16.153829, 13.570728) rotate(34.000000) translate(-16.153829, -13.570728) "></path>
                    <path d="M1.53531083,9.14150247 C1.66028776,8.80822718 1.92851339,8.45909346 2.19201174,8.06844108 C4.47945541,4.67716638 11.767131,5.5928265 18.4694907,10.1136252 C25.1718504,14.6344239 28.8567688,21.4866052 26.5693251,24.8778799 C26.1964074,25.4307531 26.0239814,25.8664896 25.5802475,25.9137544 C26.8248453,22.3186957 23.2124549,16.1848854 17.0452242,12.0250358 C10.9690869,7.9266295 4.41189996,6.79115495 1.53531083,9.14150247 Z" id="Combined-Shape" fill="#B6E6FB"></path>
                </g>
                <g id="Group-24">
                    <path d="M14.9305733,17.0563586 C22.3289186,17.0818472 27.6876769,19.4147273 29.7734081,19.2206425 C31.8591393,19.0265578 31.7380283,18.3499946 31.7380283,17.1129627 C31.7380283,12.7232883 24.4367635,9.03214451 15.7829547,9.03214451 C7.12914599,9.03214451 0.113847908,12.5906787 0.113847908,16.9803531 C0.113847908,18.1054307 -0.0299476044,19.0616966 1.29803544,19.1225399 C3.74909024,19.2348382 7.53222804,17.03087 14.9305733,17.0563586 Z" id="Oval-4-Copy" fill="#85D4F7" transform="translate(15.924315, 14.132129) rotate(-38.000000) translate(-15.924315, -14.132129) "></path>
                    <path d="M8.01580653,26.4527427 C7.52995275,26.3918927 7.19081403,25.8586688 6.75945661,25.3065564 C4.29042134,22.1463354 7.33933682,15.6386151 13.5693999,10.7711564 C19.799463,5.90369761 27.1319374,4.45433037 29.6009727,7.6145514 C29.8824098,7.97477443 30.126535,8.25783649 30.22534,8.55410668 C27.1048019,6.72159232 20.760448,8.35683137 15.2717474,12.6450743 C9.48733352,17.1643537 6.44523662,23.0976249 8.01580653,26.4527427 Z" id="Combined-Shape" fill="#B6E6FB"></path>
                </g>
                <path d="M34.4300939,5.06789524 C35.2156833,4.78324479 35.9963855,4.64091956 36.7722004,4.64091956 C37.548015,4.64091956 38.328717,4.78324464 39.1143065,5.06789479 L39.1143007,5.06791078 C39.852611,5.33542981 40.3443576,6.03664109 40.3443576,6.82192353 L40.3443576,6.82192353 C40.3443576,7.48146765 39.8096914,8.01613379 39.1501473,8.01613379 L34.3942537,8.01613379 C33.73471,8.01613379 33.2000442,7.48146802 33.2000442,6.82192437 C33.2000442,6.82192409 33.2000442,6.82192381 33.2000442,6.82192353 L33.2000442,6.82192353 C33.2000448,6.03664197 33.6917908,5.33543166 34.4301002,5.06791266 Z" id="Rectangle-21" fill="#2D3A45"></path>
            </g>
        </g>
    </g>
</svg>
