<svg xmlns="http://www.w3.org/2000/svg" viewBox="0 20 335 275"><g fill="none" fill-rule="evenodd" opacity=".6" transform="translate(4 7)"><path fill="#6498C2" d="M168.219 21.078c27.78 9.9 71.547 38.922 153.596 99.176 24.122 17.714-52.49 94.92-86.751 130.746-38.332 40.082-122.461 43.643-162.065-16.5-39.603-60.143-100.483-73.955-59.241-114.246 41.241-40.292 126.68-109.075 154.46-99.176z"/><circle cx="156.999" cy="151" r="62" fill="#F5F5F5"/><path fill="#FFF" d="M107 114.985C118.243 99.254 136.66 89 157.471 89c34.242 0 62 27.758 62 62 0 14.098-4.705 27.097-12.632 37.512A66.026 66.026 0 0 0 209.472 170c0-36.45-29.55-66-66-66-13.484 0-26.024 4.044-36.473 10.985z"/><circle cx="126.999" cy="170" r="13" fill="#D8D8D8"/><circle cx="109.499" cy="140.5" r="4.5" fill="#D8D8D8"/><circle cx="176.499" cy="122.5" r="9.5" fill="#B6B8BA"/><circle cx="189.499" cy="135.5" r="3.5" fill="#B6B8BA"/><circle cx="178.499" cy="176.5" r="16.5" fill="#B6B8BA"/><path fill="#CBB8AD" d="M144.519 138.79L64.992.602c-2.729-.997-5.075-.756-7.039.723C55.99 2.803 55.005 4.734 55 7.115l89.52 131.675z"/><path fill="#D0021B" d="M71.708 11.969c-6.04 11.615-16.378 17.88-31.015 18.792-14.638.913-23.643 8.931-27.014 24.055 3.275-7.098 10.047-10.648 20.314-10.648 15.402 0 11.981 1.312 21.739 1.312 9.757 0 15.293-3.118 18.36-4.946 2.045-1.218 5.143-3.611 9.296-7.179l-11.68-21.386z"/><path fill="#F8F8FA" d="M209.39 90.703c11.601-24.194 27.149-36.351 46.644-36.47 1.699 25.995-32.325 49.894-34.445 49.67-1.413-.148-5.479-4.548-12.198-13.2z"/><path fill="#D0021B" d="M230.39 62.949c7.614-5.753 16.162-8.659 25.644-8.717.58 8.874-3.003 17.503-8.058 25.012-2.73-7.567-8.592-13-17.586-16.295zM229.628 96.705c3.935 4.752 3.89 12.197-.135 22.334l-7.258-16.603c3.131-2.087 5.596-3.997 7.393-5.731zM215.626 80.859c-5.31-3.144-12.656-1.935-22.039 3.626l17.534 4.572c1.572-3.42 3.073-6.152 4.505-8.198zM221.542 91.94c-8.206-.573-13.274 2.881-15.203 10.361-1.929 7.48 3.139 4.026 15.203-10.361z"/><g transform="rotate(6 -547.832 2207.28)"><circle cx="7" cy="7" r="7" fill="#46B1E1"/><path fill="#B7E9FF" d="M1 5.182a6.163 6.163 0 1 1 9.914 6.602A6.163 6.163 0 0 0 1 5.182z"/></g><path fill="#F8F8FA" d="M278 145c3.931 4 6.931 6 9 6 2.067 0 5.067-2 9-6-2.973 3.768-4.46 6.768-4.46 9s1.487 5.232 4.46 9c-3.93-4-6.93-6-9-6-2.072 0-5.072 2-9 6 3.77-3.949 5.655-6.949 5.655-9s-1.886-5.051-5.656-9zM244 132.72c5.42-.189 9.069-1.13 10.947-2.82 1.879-1.692 3.68-5.659 5.401-11.9.445 5.924 1.599 9.92 3.462 11.989 1.862 2.068 5.716 3.633 11.56 4.695-5.782-.476-9.614.133-11.495 1.827-1.88 1.693-3.499 5.991-4.854 12.894.13-6.744-.662-11.066-2.374-12.967-1.712-1.901-5.928-3.14-12.648-3.717zM130 258.691c2.463-.086 4.122-.513 4.976-1.282.853-.77 1.672-2.572 2.455-5.409.202 2.693.726 4.51 1.573 5.45.847.94 2.598 1.651 5.255 2.134-2.628-.217-4.37.06-5.225.83-.855.77-1.59 2.723-2.206 5.86.058-3.064-.302-5.029-1.08-5.893-.778-.864-2.694-1.428-5.749-1.69zM60 143.444c.914 5.863 2.262 9.686 4.044 11.468 1.783 1.782 5.62 3.145 11.512 4.088-5.875.093-9.713 1.04-11.512 2.839-1.799 1.799-3.147 6.038-4.045 12.717.43-6.663-.263-10.902-2.078-12.717-1.815-1.816-6.308-2.762-13.478-2.839 5.964-.929 9.844-2.291 11.64-4.088 1.797-1.796 3.102-5.62 3.916-11.468zM78.431 182.438c-.536 4.283-.36 7.225.53 8.829.888 1.603 3.297 3.325 7.227 5.165-4.126-1.112-6.998-1.22-8.616-.323-1.619.897-3.411 3.59-5.377 8.08.78-4.817.717-8.043-.188-9.676-.906-1.633-3.429-3.072-7.57-4.318 4.356.547 7.342.372 8.958-.524 1.616-.896 3.295-3.307 5.036-7.233zM135 44c1.745 3.947 3.412 6.379 5 7.295 1.587.917 4.54 1.152 8.856.705-4.11 1.171-6.627 2.558-7.553 4.161-.925 1.603-1.074 4.834-.447 9.695-1.813-4.53-3.528-7.263-5.145-8.197-1.617-.933-4.52-.867-8.712.197 4.015-1.775 6.485-3.462 7.408-5.062.924-1.6 1.122-4.532.592-8.794zM162 66.33c2.264.875 3.894 1.179 4.89.912.996-.267 2.263-1.347 3.803-3.242-1.17 2.1-1.619 3.654-1.35 4.659.27 1.005 1.496 2.35 3.679 4.034-2.523-1.08-4.292-1.486-5.307-1.214-1.014.272-2.143 1.453-3.386 3.544.89-2.303 1.201-3.957.932-4.96-.269-1.005-1.356-2.249-3.262-3.734zM190 249.33c2.264.875 3.894 1.179 4.89.912.996-.267 2.263-1.347 3.803-3.242-1.17 2.1-1.619 3.654-1.35 4.659.27 1.005 1.496 2.35 3.679 4.034-2.523-1.08-4.292-1.486-5.307-1.214-1.014.272-2.143 1.453-3.386 3.544.89-2.303 1.201-3.957.932-4.96-.269-1.005-1.356-2.249-3.262-3.734zM46.5 176c.981 2.22 1.919 3.588 2.812 4.103.893.516 2.553.648 4.982.397-2.312.659-3.728 1.44-4.249 2.34-.52.902-.604 2.72-.251 5.454-1.02-2.549-1.985-4.085-2.894-4.61-.91-.526-2.543-.489-4.9.11 2.258-.998 3.647-1.948 4.166-2.848.52-.9.631-2.549.333-4.946zM118.5 232c.981 2.22 1.919 3.588 2.812 4.103.893.516 2.553.648 4.982.397-2.312.659-3.728 1.44-4.249 2.34-.52.902-.604 2.72-.251 5.454-1.02-2.549-1.985-4.085-2.894-4.61-.91-.526-2.543-.489-4.9.11 2.258-.998 3.647-1.948 4.166-2.848.52-.9.631-2.549.333-4.946z"/><circle cx="251.499" cy="207.5" r="14.5" fill="#99C61C"/><circle cx="58.499" cy="108.5" r="14.5" fill="#FFBF97"/><circle cx="73.499" cy="234.5" r="16.5" fill="#F2E5E6"/></g></svg>