<svg xmlns="http://www.w3.org/2000/svg" viewBox="75 60 185 180"><g fill="none" fill-rule="evenodd" opacity=".6" transform="translate(80 64)"><path fill="#4D8BBE" d="M87.497 153.713L33.421 166.43l-7.267-59.324L0 63.57l40.062-22.56L87.497 0l36.406 38.076 51.091 25.494-27.969 47.405-5.452 55.455z"/><path fill="#F5A623" d="M92.55 94.438c-21.37 10.824-32.773 15.208-34.213 13.153-1.44-2.056 6.581-11.273 24.06-27.65l-2.093-2.991c-26.719 24.606-39.073 38.344-37.065 41.212 2.01 2.87 19.144-4.042 51.404-20.733l-2.094-2.99z"/><path fill="#F8E71C" d="M69.378 99.98c.804 1.148 7.22-1.31 19.251-7.375l-5.736-8.192c-9.813 9.23-14.318 14.42-13.515 15.567z"/><path fill="#F8F8FA" d="M80.774 74.875c22.783-35.363 49.483-51.243 80.099-47.64-2.255 40.745-60.171 71.291-63.455 70.533-2.19-.506-7.737-8.137-16.644-22.893z"/><path fill="#D0021B" d="M119.09 36c12.87-7.433 26.645-10.292 41.327-8.576-.781 13.81-7.957 26.45-17.2 37.08C140.425 52.302 132.383 42.8 119.09 36zM111.65 87.618c5.286 8.195 3.795 19.824-4.472 34.889L98.924 95.14c5.326-2.653 9.568-5.16 12.726-7.523zM92.589 60.622c-7.691-5.929-19.398-5.45-35.12 1.436L83.98 72.562c3.11-5.04 5.98-9.02 8.608-11.94zM99.592 78.468c-12.511-2.416-20.996 2.118-25.454 13.602-4.458 11.484 4.026 6.95 25.454-13.602z"/><g transform="rotate(13 -142.68 522.227)"><circle cx="11" cy="11" r="11" fill="#46B1E1"/><path fill="#B7E9FF" d="M1.571 8.143a9.688 9.688 0 0 1 9.174-6.572c5.348 0 9.684 4.336 9.684 9.684a9.66 9.66 0 0 1-3.278 7.263c.331-.977.51-2.024.51-3.112 0-5.349-4.335-9.684-9.683-9.684A9.647 9.647 0 0 0 1.57 8.143z"/></g><path fill="#F8F8FA" d="M45.397 42c.582 3.731 1.44 6.164 2.574 7.298 1.134 1.134 3.576 2.001 7.325 2.601-3.739.06-6.18.662-7.325 1.807-1.145 1.145-2.003 3.843-2.574 8.093.273-4.24-.168-6.938-1.323-8.093-1.155-1.155-4.014-1.757-8.577-1.807 3.795-.59 6.265-1.458 7.408-2.6 1.143-1.144 1.974-3.577 2.492-7.299zM48.54 74.576c-.334 2.676-.224 4.515.331 5.517.556 1.002 2.062 2.079 4.518 3.229-2.579-.696-4.374-.763-5.386-.202-1.011.56-2.131 2.244-3.36 5.05.487-3.011.448-5.027-.118-6.047-.565-1.021-2.142-1.92-4.73-2.7 2.722.342 4.588.233 5.598-.327 1.01-.56 2.06-2.067 3.148-4.52zM26.494 69.275c.654 1.48 1.28 2.392 1.875 2.735.595.344 1.702.432 3.32.265-1.54.439-2.484.96-2.831 1.56-.347.601-.403 1.813-.168 3.636-.68-1.7-1.323-2.724-1.93-3.074-.606-.35-1.695-.326-3.266.074 1.505-.666 2.431-1.299 2.778-1.899.346-.6.42-1.699.222-3.297zM128.497 148c1.748 2 3.081 3 4 3 .92 0 2.253-1 4-3-1.321 1.884-1.982 3.384-1.982 4.5s.661 2.616 1.982 4.5c-1.746-2-3.08-3-4-3-.92 0-2.254 1-4 3 1.676-1.974 2.514-3.474 2.514-4.5 0-1.026-.838-2.526-2.514-4.5zM103.497 137.691c2.547.006 4.247-.376 5.1-1.145.854-.768 1.631-2.617 2.332-5.546.313 2.816.926 4.731 1.839 5.745.913 1.013 2.753 1.823 5.521 2.43-2.728-.328-4.52-.107-5.375.663-.855.77-1.54 2.78-2.056 6.028-.059-3.195-.507-5.258-1.346-6.19-.839-.931-2.844-1.593-6.015-1.985z"/><circle cx="34.997" cy="142.5" r="10.5" fill="#F2E5E6"/></g></svg>