<svg viewBox="0 0 24 24" version="1.1" xmlns="http://www.w3.org/2000/svg" xmlns:xlink="http://www.w3.org/1999/xlink">
  <path d="M10,2 L13,2 L13,0 L10,0 C8.346,0 7,1.346 7,3 L7,5 C7,6.654 8.346,8 10,8 L13,8 L13,6 L10,6 C9.449,6 9,5.552 9,5 L12,5 L12,3 L9,3 C9,2.448 9.449,2 10,2 Z"></path>
  <path d="M2,4.303 L4.168,7.555 C4.357,7.838 4.672,8 5,8 C5.097,8 5.193,7.986 5.289,7.957 C5.711,7.829 6,7.44 6,7 L6,-5.55111512e-17 L4,-5.55111512e-17 L4,3.697 L1.832,0.445 C1.588,0.078 1.131,-0.085 0.711,0.043 C0.289,0.171 0,0.56 0,1 L0,8 L2,8 L2,4.303 Z"></path>
  <polygon points="20.985 3.901 20 0 18 0 17.942 0 16.985 3.901 16 0 14 0 15.963 8 15.979 8 17.979 8 18.021 8 18 7.919 18.985 4.017 19.963 8 19.979 8 21.979 8 22.021 8 22 7.919 24 0 21.942 0"></polygon>
</svg>
