<svg viewBox="0 0 24 24" version="1.1" xmlns="http://www.w3.org/2000/svg" xmlns:xlink="http://www.w3.org/1999/xlink">
  <polygon points="8.99066667 7.66791667 11.583 10.2593333 8.34258333 10.9074167"></polygon>
  <path d="M18.7128333,3.1295 C19.42875,2.41358333 19.42875,1.25308333 18.7128333,0.537166667 C17.9969167,-0.17875 16.8364167,-0.17875 16.1205,0.537166667 L10.2868333,6.37083333 L12.8800833,8.96408333 L18.7128333,3.1295 Z"></path>
  <path d="M21.0833333,16.5 L0.916666667,16.5 C0.410666667,16.5 0,16.0893333 0,15.5833333 L0,8.25 C0,7.744 0.410666667,7.33333333 0.916666667,7.33333333 L6.41666667,7.33333333 L6.41666667,9.16666667 L1.83333333,9.16666667 L1.83333333,14.6666667 L20.1666667,14.6666667 L20.1666667,9.16666667 L16.5,9.16666667 L16.5,7.33333333 L21.0833333,7.33333333 C21.5893333,7.33333333 22,7.744 22,8.25 L22,15.5833333 C22,16.0893333 21.5893333,16.5 21.0833333,16.5 Z"></path>
</svg>
