<svg xmlns="http://www.w3.org/2000/svg" width="113" height="125"><g fill="none"><path fill="#754C29" d="M83.333 82.043l9.261 35.354-5.27 5.024 5.362-2.133L94.394 125l.545-5.158 5.26 1.29L94.577 117l-9.841-35.65zm-34.28 1.29l-12.036 32.368-7.255 3.657 7.065-.914.19 4.572 2.39-3.658 6.772.183-6.771-2.926 11.187-33.282z"/><path fill="#C74F28" d="M9.519 64.237l-5.422-3.721 2.36 6.516L0 64.568s12.51 17.014 21.387 16.779c8.877-.236 1.598-4.905 1.598-4.905L9.519 64.237z"/><path fill="#754C29" d="M38.085 10.96S57.192-12.348 86.21 9.016c0 0 5.08 9.714 4.11 13.841-.968 4.128 18.138 2.621 21.526 33.729 3.387 31.107-27.571 51.748-38.694 52.474-11.123.727-40.627-4.368-51.27-21.361-10.642-16.993-18.137-27.915 0-55.367 9.434-4.374 16.203-21.372 16.203-21.372z"/><path fill="#EFCDC3" d="M31.746 92.787c29.56 23.581 53.197 6.204 53.197 6.204s12.183-6.761 15.305-15.59c3.123-8.83 11.998-67.753-68.502 9.386z"/><path fill="#E35F2B" d="M40.25 12.45s3.161-2.42 8.266-.962 15.075 3.373 20.913.963c5.837-2.41 13.86-2.421 14.59 3.134.73 5.555 14.345 24.105 16.776 33.504 2.432 9.4 2.918 33.747-9.24 38.326-12.158 4.579-25.782-.963-26.748 0-.966.963-5.227 7.836-10.09 7.715-21.884 1.077-25.895-6.268-25.895-6.268S8.34 71.002 26.08 36.292c0 0 6.874-7.45 11.251-19.741l2.918-4.1z"/><path fill="#5D2310" d="M53.571 28.77s4.152 7.796 10.437 1.533l.476-.795-10.913-.738z"/><path fill="#5D2310" d="M52.58 27.963l3.93-4.153h5.891l4.067 5.017s-9.211 2.596-13.889-.864z"/><path fill="#E35F2B" d="M59.438 29.762c-2.547 0-5.285-.364-7.28-1.582l-.57-.349L56.2 23.81h6.376l4.883 4.952-.872.202c-2.345.51-4.743.778-7.15.798zm-6.104-2.096c3.734 1.797 9.824.926 12.105.5l-3.322-3.369h-5.504l-3.28 2.87z"/><path fill="#C74F28" d="M83.797 18.85s2.625 7.438-1.323 2.628a173.012 173.012 0 0 1-1.736 3.308c-1.42 2.631-4.03.766-6.636 2.058-2.607 1.291-3.083 2.218-2.382 4.027.702 1.81 1.657 3.251 3.083 2.763 1.426-.488 1.347-.478 2.808-1.674a20.048 20.048 0 0 0 2.646-2.696l10.02 1.602-6.48-12.017zm-48.55 1.983l1.824 5.042 2.882-1.52-2.353 4.16 1.374 2.014s6.37-2.815 7.497-.019c1.127 2.796-4.138 7.148-6.767 4.246-2.63-2.902-7.52-4.246-7.52-4.246l-4.406 2.888 7.47-12.565z"/><path fill="#5D2310" stroke="#E35F2B" d="M71.616 18.93c.774-2.178 2.36-3.49 3.568-2.926 1.207.563 1.568 2.79.804 4.971-.763 2.182-.977-.459-2.187-1.022s-2.949 1.16-2.185-1.022zm-27.787 1.518c-.513-2.146.119-4.172 1.413-4.523s2.754 1.11 3.269 3.259c.515 2.149-1.057 1.792-2.343 2.143-1.286.352-1.827 1.27-2.34-.879z"/><path fill="#5D2310" d="M33.73 26.786l5.953-1.984-.869 1.448z"/></g></svg>
