<svg viewBox="0 0 24 24" xmlns="http://www.w3.org/2000/svg"><path d="M22.083 13.833h-3.666V7.417A.916.916 0 0 0 17.5 6.5h-1.01A4.589 4.589 0 0 0 12 1a4.589 4.589 0 0 0-4.49 5.5H6.5a.917.917 0 0 0-.917.917v6.416H1.917A.917.917 0 0 0 1 14.75v7.333c0 .506.41.917.917.917h20.166c.507 0 .917-.41.917-.917V14.75a.916.916 0 0 0-.917-.917zM12 2.833a2.754 2.754 0 0 1 2.75 2.75A2.753 2.753 0 0 1 12 8.333a2.753 2.753 0 0 1-2.75-2.75A2.754 2.754 0 0 1 12 2.833zM2.833 18.417h1.834v-1.834H2.833v-.916h2.75v5.5h-2.75v-2.75zM7.417 8.333h.94c.837 1.108 2.152 1.834 3.643 1.834 1.491 0 2.806-.726 3.644-1.834h.94v12.834H14.75V17.5a.916.916 0 0 0-.917-.917h-3.666a.917.917 0 0 0-.917.917v3.667H7.417V8.333zm3.666 12.834v-2.75h1.834v2.75h-1.834zm10.084-4.584h-1.834v1.834h1.834v2.75h-2.75v-5.5h2.75v.916z"></path><path d="M8.333 13.833h2.75v1.833h-2.75zM12.917 13.833h2.75v1.833h-2.75zM8.333 11.083h2.75v1.833h-2.75zM12.917 11.083h2.75v1.833h-2.75zM12.269 7.149l1.296-1.296-.648-.65V3.75h-1.834v1.833c0 .243.097.477.269.65l.917.916z"></path></svg>