<svg xmlns="http://www.w3.org/2000/svg" width="125" height="168"><g fill="none"><path fill="#E36F34" d="M15.08 39.362h1.976s.987 5.908-3.73 6.178C8.61 45.81-9.28 43.405 8.11 9.545c0 0 11.926-17.997 35.778-4.566 23.85 13.431 11.674 42.978 11.674 42.978s-31.054 40.024-15.142 64.2c15.913 24.175 21.617 19.339 21.617 19.339l-2.982 6.449S5.65 140.89.686 103.82c-4.964-37.07 18.628-56.409 18.628-56.409s4.72-7.79 2.485-11.282c-2.235-3.49-6.3-2.683-6.718 3.232z"/><path fill="#E36F34" d="M59.14 98.107s1.209 17.335-11.475 37.27c-12.683 19.934 2.415 25.136 2.415 25.136s13.69 5.416 23.956 2.6c10.266-2.817 22.95.812 22.95.812s21.743 1.783 21.531-12.08c-.212-13.862-9.06-27.517-9.06-27.517s-5.631-17.767-2.415-23.835c3.217-6.069-47.902-2.386-47.902-2.386z"/><path fill="#F68A5C" d="M67.138 101.08s-19.994 33.023-5.208 52.236c6.983 10.941 9.256 9.636 9.256 9.636s11.85-2.174 22.544-.033c10.694 2.142 19.344-52.66 5.844-61.84-13.5-9.179-32.436 0-32.436 0z"/><path fill="#E36F34" d="M70.699 47.75c6.893-4.126 5.961-3.624 5.961-3.624s-3.726-4.026-1.863-6.046c1.863-2.02 5.965-5.637 5.965-5.637s1.488-2.414 0 4.026l.659 7.148s7.9-3.912 15.643 1.608l1.024.907s3.934-9.873 4.757-9.762c.823.11 4.562 2.315 2.327 7.546 0 0-2.327 2.134-2.05 3.322.276 1.187 8.2 5.939 9.503 19.428 0 0 7.173 12.173 4.28 22.806-2.874 7.042-6.801 16.046-15.472 11.114 0 0-19.94-3.322-36.433.907-12.206-1.729-16.98-20.755-6.304-34.827 2.857-8.002 3.618-9.762 12.003-18.916z"/><path fill="#F68A5C" d="M67.928 101s-3.113-5.282-3.113-10.457c0-5.175 16.49-11.543 19.6-11.543 3.11 0 16.886 6.152 17.437 14.805C100.404 101 97.117 101 97.117 101h-29.19zm-4.044 62.621c.27.106-10.048.41-12.463 3.41-2.414 3-6.228-1.764-4.822-3.452 1.406-1.689 4.822-4.865 17.285.042z"/><path fill="#E36F34" d="M111.994 106.854s3.169 7.419 7.571 10.083c4.403 2.664 8.822 10.298 1.62 13.65-7.201 3.353-12.113 7.954-18.407-6.83 0 0 5.718-9.423 2.715-13.195 0-6.132 1.564-12.49 2.552-11.45l3.95 7.742z"/><path fill="#F68A5C" d="M94.45 162.623c-.271.106 10.05.406 12.46 3.407 2.41 3 6.23-1.763 4.825-3.453-1.406-1.689-4.825-4.862-17.285.046z"/><path fill="#5D2310" d="M94.724 69.111c1.14-2.93 3.524-4.693 5.328-3.935 1.803.757 2.34 3.751 1.204 6.682-1.136 2.93-1.463-.616-3.266-1.373-1.803-.758-4.406 1.557-3.266-1.374zm-23.169 1.617c-.706-3.131.082-6.103 1.764-6.643s3.61 1.564 4.317 4.691c.705 3.128-1.36.44-3.042.976-1.682.537-2.336 4.108-3.04.976z"/><path fill="#E36F34" d="M68.256 106l-6.055 2.199s-10.73-1.847-12.09 10.23c-1.361 12.075 10.31 9.294 10.31 9.294s4.28 1.096 7.63-10.692c0 0 2.94-10.672.278-10.991l-.073-.04z"/><path fill="#F1F2F2" d="M79.639 91.7l1.364 4.3h6.231l3.507-4.3s-4.525-2.71-6.115-4.7c.065.963-5.249 4.373-4.987 4.7z"/><path fill="#E36F34" d="M118.996 115.434c3.961 3.34 8.493 10.447 1.223 13.505-7.27 3.058-12.257 7.424-18.118-7.346 0 0-4.896-6.77-3.79-8.917 1.106-2.146 8.777-1.619 8.777-1.619s8.086 1.163 11.908 4.377z"/><path fill="#F68A5C" d="M84.722 95c-.255 0-.463-.24-.463-.534v-7.932c0-.295.208-.534.463-.534.256 0 .463.24.463.534v7.935c-.002.294-.208.531-.463.531z"/><ellipse cx="84.722" cy="83" fill="#5D2310" rx="6.019" ry="4"/><path fill="#A87142" d="M71.296 111.777s2.648 20.084 12.593 20.404c2.255-.356 2.464 2.112 2.945 1.78 0 0 1.352.157 2.055-.163a7.434 7.434 0 0 0 .42-1.923s4.142-2.297 5.235-5.697c0 0 3.894-9.91 2.29-17.178l-25.538 2.777z"/><path fill="#973B2F" d="M85.021 100.56h.143L88.292 96h-2.77l-3.973 4.683-1.268.053s-14.062.947-12.579 8.84c0 0 1.943 2.844 10.014 2.37 0 0 21.305-.308 22.155-5.286.765-4.504-1.592-6.356-14.85-6.1z"/><path fill="#F9AA8E" d="M69.674 103.43s5.157-2.221 5.996-2.41c.838-.189 3.188.974.538 2.443 0 0-3.554.282-4.04 1.315a1.032 1.032 0 0 0-.004.969c.16.298.454.468.76.441.252-.1 5.223-1.18 5.618-.026.394 1.155.222 2.062-2.285 2.221-2.506.16-3.322-.618-3.564-.159-.241.46 3.551 1.918 4.06 2.192.51.274 1.873 1.344.568 1.977-1.305.633-6.08-2.7-6.08-2.7s-1.162.671.89 1.852c2.054 1.18 2.073 3.702 1.564 3.435-.51-.266-4.569-1.636-4.948-2.672-.378-1.037-5.02-3.51.927-8.878zm30.019 7.304s-4.223-4.77-4.982-5.378c-.758-.609-3.598-.725-1.564 2.047 0 0 3.226 2.099 3.276 3.33.02.454.078.726-.13.892a.9.9 0 0 1-1.008.062c-.208-.225-4.72-3.809-5.602-2.9-.883.91-1.088 1.849 1.343 3.306 2.43 1.457 3.578 1.12 3.632 1.678.053.558-4.364 0-4.982 0-.618 0-2.437.282-1.4 1.569 1.037 1.286 7.21.561 7.21.561s.88 1.229-1.678 1.287c-2.558.058-3.628 2.464-3.02 2.464.607 0 5.24.783 6.069 0 .829-.783 6.529-.743 2.836-8.918z"/></g></svg>
