<svg viewBox="0 0 24 24" version="1.1" xmlns="http://www.w3.org/2000/svg" xmlns:xlink="http://www.w3.org/1999/xlink">
  <path d="M8.18181818,11.8181818 L8.18181818,10 C6.67818182,10 5.45454545,8.77636364 5.45454545,7.27272727 L5.45454545,7.03 C6.69272727,6.56272727 7.59909091,5.77727273 8.18181818,5.13454545 C8.86727273,5.89090909 10.0018182,6.84636364 11.5972727,7.24545455 L12.0381818,5.48090909 C10.0390909,4.98090909 8.97909091,3.19909091 8.97,3.18545455 C8.80909091,2.90272727 8.50818182,2.73090909 8.18363636,2.72909091 C7.83636364,2.69363636 7.55727273,2.90090909 7.39363636,3.18181818 C7.38272727,3.2 6.32272727,4.98090909 4.32363636,5.48090909 C3.92,5.58363636 3.63636364,5.94636364 3.63636364,6.36363636 L3.63636364,7.27272727 L1.88272727,7.27272727 C2.32545455,4.19272727 4.98090909,1.81818182 8.18181818,1.81818182 C10.1318182,1.81818182 11.9481818,2.69545455 13.1645455,4.22363636 L14.5872727,3.09090909 C13.0236364,1.12727273 10.6890909,0 8.18181818,0 C3.67090909,0 0,3.67 0,8.18181818 L0,9.09090909 L4.02181818,9.09090909 C4.72454545,10.6936364 6.32272727,11.8181818 8.18181818,11.8181818 Z"></path>
  <path d="M14.5454545,5.45454545 L14.5454545,7.27272727 C14.5454545,8.45818182 13.7854545,9.46909091 12.7272727,9.84363636 L12.7272727,8.18181818 L9.09090909,8.18181818 L9.09090909,11.8181818 L11.8181818,11.8181818 C14.3245455,11.8181818 16.3636364,9.77909091 16.3636364,7.27272727 L16.3636364,5.45454545 L14.5454545,5.45454545 Z"></path>
  <path d="M11.3954545,13.2281818 L10.9327273,13.0718182 L8.18181818,15.2109091 L5.43090909,13.0709091 L4.96818182,13.2272727 C2.42636364,14.0836364 0.909090909,15.9354545 0.909090909,18.1818182 L0.909090909,20 L15.4545455,20 L15.4545455,18.1818182 C15.4545455,15.9354545 13.9372727,14.0836364 11.3954545,13.2281818 Z M2.72727273,18.1818182 C2.72727273,16.8572727 3.58545455,15.76 5.10181818,15.1190909 L8.18181818,17.5163636 L11.2618182,15.1190909 C12.7781818,15.76 13.6363636,16.8572727 13.6363636,18.1818182 L2.72727273,18.1818182 Z"></path>
</svg>
