<svg xmlns="http://www.w3.org/2000/svg" viewBox="0 0 22 29"><path d="M2.6 6.7L.5 4.9C3.1 1.8 6.9 0 11 0s7.9 1.8 10.5 4.9l-2.1 1.8c-2.1-2.5-5.2-3.9-8.4-3.9-3.2-.1-6.3 1.4-8.4 3.9"/><path d="M15.4 10.5c-1.1-1.4-2.7-2.2-4.4-2.2-1.7 0-3.4.8-4.4 2.2L4.4 8.8C6 6.7 8.4 5.5 11 5.5c2.6 0 5 1.2 6.6 3.3l-2.2 1.7zM5.5 26.1h11c0-2.3-1.9-4.1-4.1-4.1H9.6c-2.2 0-4.1 1.9-4.1 4.1zm13.8 2.8H2.8v-2.8c0-3.8 3.1-6.9 6.9-6.9h2.8c3.8 0 6.9 3.1 6.9 6.9v2.8z"/><path d="M11 13.8c-.8 0-1.4.6-1.4 1.4 0 .8.6 1.4 1.4 1.4s1.4-.6 1.4-1.4c0-.8-.6-1.4-1.4-1.4m0 5.5c-2.3 0-4.1-1.9-4.1-4.1S8.7 11 11 11s4.1 1.9 4.1 4.1-1.8 4.2-4.1 4.2"/></svg>