<svg width="24" height="24" viewBox="0 0 24 24" xmlns="http://www.w3.org/2000/svg">
    <path id="search" d="M15.5 14H14.71L14.43 13.73C15.41 12.59 16 11.11 16 9.5C16 5.91 13.09 3 9.5 3C5.91 3 3 5.91 3 9.5C3 13.09 5.91 16 9.5 16C11.11 16 12.59 15.41 13.73 14.43L14 14.71V15.5L19 20.49L20.49 19L15.5 14ZM9.5 14C7.01 14 5 11.99 5 9.5C5 7.01 7.01 5 9.5 5C11.99 5 14 7.01 14 9.5C14 11.99 11.99 14 9.5 14Z"/>
    <path id="school" fill-rule="evenodd" clip-rule="evenodd" d="M20 7V4H4V7H2V20H10V16H14V20H22V7H20ZM5 12H7V14H5V12ZM11 12H9V14H11V12ZM13 12H15V14H13V12ZM19 12H17V14H19V12ZM5 8H7V10H5V8ZM11 8H9V10H11V8ZM13 8H15V10H13V8ZM19 8H17V10H19V8Z"/>
    <path id="organization" d="M12 7V3H2V21H22V7H12ZM6 19H4V17H6V19ZM6 15H4V13H6V15ZM6 11H4V9H6V11ZM6 7H4V5H6V7ZM10 19H8V17H10V19ZM10 15H8V13H10V15ZM10 11H8V9H10V11ZM10 7H8V5H10V7ZM20 19H12V17H14V15H12V13H14V11H12V9H20V19ZM18 11H16V13H18V11ZM18 15H16V17H18V15Z"/>
</svg>
